SplineFontDB: 3.2
FontName: unimono54
FullName: unimono54
FamilyName: unimono54
Weight: Regular
Copyright: Copyright 2022 The Noto Project Authors (https://github.com/notofonts/latin-greek-cyrillic)
Version: 2.010
ItalicAngle: 0
UnderlinePosition: -125
UnderlineWidth: 50
Ascent: 800
Descent: 200
InvalidEm: 0
sfntRevision: 0x0002028f
LayerCount: 2
Layer: 0 1 "Back" 1
Layer: 1 1 "Fore" 0
XUID: [1021 467 -1121320856 1033699]
StyleMap: 0x0040
FSType: 0
OS2Version: 4
OS2_WeightWidthSlopeOnly: 0
OS2_UseTypoMetrics: 1
CreationTime: 1633360997
ModificationTime: 1679464248
PfmFamily: 17
TTFWeight: 400
TTFWidth: 5
LineGap: 0
VLineGap: 0
Panose: 2 11 5 9 4 5 4 2 2 4
OS2TypoAscent: 1069
OS2TypoAOffset: 0
OS2TypoDescent: -293
OS2TypoDOffset: 0
OS2TypoLinegap: 0
OS2WinAscent: 1069
OS2WinAOffset: 0
OS2WinDescent: 293
OS2WinDOffset: 0
HheadAscent: 1069
HheadAOffset: 0
HheadDescent: -293
HheadDOffset: 0
OS2SubXSize: 650
OS2SubYSize: 600
OS2SubXOff: 0
OS2SubYOff: 75
OS2SupXSize: 650
OS2SupYSize: 600
OS2SupXOff: 0
OS2SupYOff: 350
OS2StrikeYSize: 50
OS2StrikeYPos: 322
OS2CapHeight: 714
OS2XHeight: 536
OS2Vendor: 'GOOG'
OS2CodePages: 0000019f.dfd70000
OS2UnicodeRanges: e00002ff.0200fcff.08000039.00100000
Lookup: 1 0 0 "'aalt' Access All Alternates lookup 0" { "'aalt' Access All Alternates lookup 0 subtable"  } ['aalt' ('DFLT' <'dflt' > 'cyrl' <'MKD ' 'SRB ' 'dflt' > 'grek' <'dflt' > 'latn' <'APPH' 'CAT ' 'IPPH' 'MAH ' 'MOL ' 'NAV ' 'ROM ' 'dflt' > ) ]
Lookup: 3 0 0 "'aalt' Access All Alternates lookup 1" { "'aalt' Access All Alternates lookup 1 subtable"  } ['aalt' ('DFLT' <'dflt' > 'cyrl' <'MKD ' 'SRB ' 'dflt' > 'grek' <'dflt' > 'latn' <'APPH' 'CAT ' 'IPPH' 'MAH ' 'MOL ' 'NAV ' 'ROM ' 'dflt' > ) ]
Lookup: 4 0 0 "'ccmp' Glyph Composition/Decomposition lookup 2" { "'ccmp' Glyph Composition/Decomposition lookup 2 subtable"  } ['ccmp' ('DFLT' <'dflt' > 'cyrl' <'MKD ' 'SRB ' 'dflt' > 'grek' <'dflt' > 'latn' <'APPH' 'CAT ' 'IPPH' 'MAH ' 'MOL ' 'NAV ' 'ROM ' 'dflt' > ) ]

StartChar: exclam
Encoding: 33 33 3
Width: 600
Flags: W
LayerCount: 2
Fore
SplineSet
262 202 m 1,0,-1
 246 714 l 1,1,-1
 355 714 l 1,2,-1
 339 202 l 1,3,-1
 262 202 l 1,0,-1
300 -10 m 256,4,5
 274 -10 274 -10 256 6 c 128,-1,6
 238 22 238 22 238 58 c 0,7,8
 238 96 238 96 256 111 c 128,-1,9
 274 126 274 126 300 126 c 256,10,11
 326 126 326 126 344 111 c 128,-1,12
 362 96 362 96 362 58 c 0,13,14
 362 22 362 22 344 6 c 128,-1,15
 326 -10 326 -10 300 -10 c 256,4,5
EndSplineSet
Substitution2: "'smcp' Lowercase to Small Capitals lookup 35 subtable" exclam.sc
Substitution2: "'c2sc' Capitals to Small Capitals lookup 34 subtable" exclam.sc
Substitution2: "'aalt' Access All Alternates lookup 0 subtable" exclam.sc
EndChar

StartChar: quotedbl
Encoding: 34 34 4
Width: 600
Flags: W
LayerCount: 2
Fore
SplineSet
365 456 m 1,0,-1
 345 714 l 1,1,-1
 440 714 l 1,2,-1
 420 456 l 1,3,-1
 365 456 l 1,0,-1
180 456 m 1,4,-1
 160 714 l 1,5,-1
 255 714 l 1,6,-1
 235 456 l 1,7,-1
 180 456 l 1,4,-1
EndSplineSet
EndChar

StartChar: numbersign
Encoding: 35 35 5
Width: 600
Flags: W
LayerCount: 2
Fore
SplineSet
101 0 m 1,0,-1
 139 209 l 1,1,-1
 20 209 l 1,2,-1
 20 276 l 1,3,-1
 152 276 l 1,4,-1
 184 436 l 1,5,-1
 57 436 l 1,6,-1
 57 502 l 1,7,-1
 196 502 l 1,8,-1
 236 714 l 1,9,-1
 308 714 l 1,10,-1
 268 502 l 1,11,-1
 392 502 l 1,12,-1
 432 714 l 1,13,-1
 501 714 l 1,14,-1
 461 502 l 1,15,-1
 580 502 l 1,16,-1
 580 436 l 1,17,-1
 448 436 l 1,18,-1
 417 276 l 1,19,-1
 546 276 l 1,20,-1
 546 209 l 1,21,-1
 404 209 l 1,22,-1
 363 0 l 1,23,-1
 292 0 l 1,24,-1
 333 209 l 1,25,-1
 210 209 l 1,26,-1
 171 0 l 1,27,-1
 101 0 l 1,0,-1
223 276 m 1,28,-1
 346 276 l 1,29,-1
 377 436 l 1,30,-1
 254 436 l 1,31,-1
 223 276 l 1,28,-1
EndSplineSet
EndChar

StartChar: dollar
Encoding: 36 36 6
Width: 600
Flags: W
LayerCount: 2
Fore
SplineSet
263 34 m 1,0,1
 213 35 213 35 167.5 43.5 c 128,-1,2
 122 52 122 52 90 67 c 1,3,-1
 90 152 l 1,4,5
 124 136 124 136 170.5 124 c 128,-1,6
 217 112 217 112 263 111 c 1,7,-1
 263 328 l 1,8,9
 203 348 203 348 162 371.5 c 128,-1,10
 121 395 121 395 100.5 429.5 c 128,-1,11
 80 464 80 464 80 515 c 0,12,13
 80 565 80 565 102.5 602 c 128,-1,14
 125 639 125 639 166 660.5 c 128,-1,15
 207 682 207 682 263 686 c 1,16,-1
 263 759 l 1,17,-1
 327 759 l 1,18,-1
 327 687 l 1,19,20
 377 686 377 686 417 675.5 c 128,-1,21
 457 665 457 665 493 650 c 1,22,-1
 466 576 l 1,23,24
 434 589 434 589 399 598.5 c 128,-1,25
 364 608 364 608 327 611 c 1,26,-1
 327 395 l 1,27,28
 391 376 391 376 434 354.5 c 128,-1,29
 477 333 477 333 498.5 299.5 c 128,-1,30
 520 266 520 266 520 212 c 0,31,32
 520 142 520 142 469.5 95.5 c 128,-1,33
 419 49 419 49 327 38 c 1,34,-1
 327 -58 l 1,35,-1
 263 -58 l 1,36,-1
 263 34 l 1,0,1
327 116 m 1,37,38
 383 123 383 123 408.5 148.5 c 128,-1,39
 434 174 434 174 434 214 c 0,40,41
 434 239 434 239 424.5 255.5 c 128,-1,42
 415 272 415 272 392 284 c 128,-1,43
 369 296 369 296 327 307 c 1,44,-1
 327 116 l 1,37,38
263 609 m 1,45,46
 230 606 230 606 208.5 593.5 c 128,-1,47
 187 581 187 581 176.5 561 c 128,-1,48
 166 541 166 541 166 515 c 0,49,50
 166 490 166 490 175 471.5 c 128,-1,51
 184 453 184 453 205 440 c 128,-1,52
 226 427 226 427 263 417 c 1,53,-1
 263 609 l 1,45,46
EndSplineSet
EndChar

StartChar: percent
Encoding: 37 37 7
Width: 600
Flags: W
LayerCount: 2
Fore
SplineSet
83 0 m 1,0,-1
 439 714 l 1,1,-1
 516 714 l 1,2,-1
 160 0 l 1,3,-1
 83 0 l 1,0,-1
456 -9 m 0,4,5
 395 -9 395 -9 354.5 35.5 c 128,-1,6
 314 80 314 80 314 161 c 256,7,8
 314 242 314 242 352.5 286 c 128,-1,9
 391 330 391 330 458 330 c 0,10,11
 519 330 519 330 559.5 286 c 128,-1,12
 600 242 600 242 600 161 c 256,13,14
 600 80 600 80 561 35.5 c 128,-1,15
 522 -9 522 -9 456 -9 c 0,4,5
457 49 m 256,16,17
 491 49 491 49 508 76 c 128,-1,18
 525 103 525 103 525 161 c 0,19,20
 525 220 525 220 508 245.5 c 128,-1,21
 491 271 491 271 457 271 c 256,22,23
 423 271 423 271 405.5 245.5 c 128,-1,24
 388 220 388 220 388 161 c 0,25,26
 388 103 388 103 405.5 76 c 128,-1,27
 423 49 423 49 457 49 c 256,16,17
142 383 m 0,28,29
 81 383 81 383 40.5 427.5 c 128,-1,30
 0 472 0 472 0 553 c 256,31,32
 0 634 0 634 38.5 678 c 128,-1,33
 77 722 77 722 144 722 c 0,34,35
 205 722 205 722 245.5 678 c 128,-1,36
 286 634 286 634 286 553 c 256,37,38
 286 472 286 472 247 427.5 c 128,-1,39
 208 383 208 383 142 383 c 0,28,29
143 441 m 256,40,41
 177 441 177 441 194 468 c 128,-1,42
 211 495 211 495 211 553 c 0,43,44
 211 612 211 612 194 637.5 c 128,-1,45
 177 663 177 663 143 663 c 256,46,47
 109 663 109 663 91.5 637.5 c 128,-1,48
 74 612 74 612 74 553 c 0,49,50
 74 495 74 495 91.5 468 c 128,-1,51
 109 441 109 441 143 441 c 256,40,41
EndSplineSet
EndChar

StartChar: ampersand
Encoding: 38 38 8
Width: 600
Flags: W
LayerCount: 2
Fore
SplineSet
224 -10 m 0,0,1
 165 -10 165 -10 123.5 14 c 128,-1,2
 82 38 82 38 60.5 80.5 c 128,-1,3
 39 123 39 123 39 176 c 0,4,5
 39 233 39 233 61.5 275.5 c 128,-1,6
 84 318 84 318 120 351.5 c 128,-1,7
 156 385 156 385 197 414 c 0,8,9
 220 430 220 430 248 454 c 128,-1,10
 276 478 276 478 297 509.5 c 128,-1,11
 318 541 318 541 318 580 c 0,12,13
 318 616 318 616 299 636 c 128,-1,14
 280 656 280 656 249 656 c 256,15,16
 218 656 218 656 199.5 635 c 128,-1,17
 181 614 181 614 181 576 c 0,18,19
 181 550 181 550 189.5 522 c 128,-1,20
 198 494 198 494 212.5 468 c 128,-1,21
 227 442 227 442 244 420 c 2,22,-1
 581 0 l 1,23,-1
 474 0 l 1,24,-1
 192 364 l 2,25,26
 170 393 170 393 148.5 427 c 128,-1,27
 127 461 127 461 113 499.5 c 128,-1,28
 99 538 99 538 99 578 c 0,29,30
 99 644 99 644 139 684.5 c 128,-1,31
 179 725 179 725 249 725 c 256,32,33
 319 725 319 725 359 684.5 c 128,-1,34
 399 644 399 644 399 580 c 0,35,36
 399 530 399 530 376 490 c 128,-1,37
 353 450 353 450 318 418.5 c 128,-1,38
 283 387 283 387 248 359 c 0,39,40
 219 336 219 336 190.5 310.5 c 128,-1,41
 162 285 162 285 143.5 253.5 c 128,-1,42
 125 222 125 222 125 181 c 0,43,44
 125 133 125 133 154 100 c 128,-1,45
 183 67 183 67 234 67 c 0,46,47
 271 67 271 67 303.5 84.5 c 128,-1,48
 336 102 336 102 363 132 c 128,-1,49
 390 162 390 162 410.5 198.5 c 128,-1,50
 431 235 431 235 444.5 274 c 128,-1,51
 458 313 458 313 464 349 c 1,52,-1
 547 349 l 1,53,54
 537 292 537 292 517.5 239 c 128,-1,55
 498 186 498 186 469 140.5 c 128,-1,56
 440 95 440 95 403 61.5 c 128,-1,57
 366 28 366 28 321 9 c 128,-1,58
 276 -10 276 -10 224 -10 c 0,0,1
EndSplineSet
Substitution2: "'smcp' Lowercase to Small Capitals lookup 35 subtable" ampersand.sc
Substitution2: "'c2sc' Capitals to Small Capitals lookup 34 subtable" ampersand.sc
Substitution2: "'aalt' Access All Alternates lookup 0 subtable" ampersand.sc
EndChar

StartChar: quotesingle
Encoding: 39 39 9
Width: 600
Flags: W
LayerCount: 2
Fore
SplineSet
272 456 m 1,0,-1
 252 714 l 1,1,-1
 347 714 l 1,2,-1
 327 456 l 1,3,-1
 272 456 l 1,0,-1
EndSplineSet
EndChar

StartChar: parenleft
Encoding: 40 40 10
Width: 600
Flags: W
LayerCount: 2
Fore
SplineSet
347 -158 m 1,0,1
 271 -70 271 -70 235.5 41.5 c 128,-1,2
 200 153 200 153 200 274 c 0,3,4
 200 396 200 396 235.5 509.5 c 128,-1,5
 271 623 271 623 347 714 c 1,6,-1
 430 714 l 1,7,8
 360 620 360 620 324.5 507 c 128,-1,9
 289 394 289 394 289 275 c 0,10,11
 289 159 289 159 324.5 47.5 c 128,-1,12
 360 -64 360 -64 429 -158 c 1,13,-1
 347 -158 l 1,0,1
EndSplineSet
Substitution2: "'smcp' Lowercase to Small Capitals lookup 35 subtable" parenleft.sc
Substitution2: "'c2sc' Capitals to Small Capitals lookup 34 subtable" parenleft.sc
Substitution2: "'sups' Superscript lookup 23 subtable" uni207D
Substitution2: "'subs' Subscript lookup 22 subtable" uni208D
AlternateSubs2: "'aalt' Access All Alternates lookup 1 subtable" uni208D uni207D parenleft.sc
EndChar

StartChar: parenright
Encoding: 41 41 11
Width: 600
Flags: W
LayerCount: 2
Fore
SplineSet
253 714 m 1,0,1
 329 626 329 626 364.5 514.5 c 128,-1,2
 400 403 400 403 400 282 c 0,3,4
 400 160 400 160 364.5 46.5 c 128,-1,5
 329 -67 329 -67 253 -158 c 1,6,-1
 170 -158 l 1,7,8
 240 -64 240 -64 275.5 49.5 c 128,-1,9
 311 163 311 163 311 281 c 0,10,11
 311 397 311 397 275.5 508.5 c 128,-1,12
 240 620 240 620 171 714 c 1,13,-1
 253 714 l 1,0,1
EndSplineSet
Substitution2: "'smcp' Lowercase to Small Capitals lookup 35 subtable" parenright.sc
Substitution2: "'c2sc' Capitals to Small Capitals lookup 34 subtable" parenright.sc
Substitution2: "'sups' Superscript lookup 23 subtable" uni207E
Substitution2: "'subs' Subscript lookup 22 subtable" uni208E
AlternateSubs2: "'aalt' Access All Alternates lookup 1 subtable" uni208E uni207E parenright.sc
EndChar

StartChar: asterisk
Encoding: 42 42 12
Width: 600
Flags: W
LayerCount: 2
Fore
SplineSet
381 334 m 1,0,-1
 300 489 l 1,1,-1
 220 335 l 1,2,-1
 146 382 l 1,3,-1
 252 516 l 1,4,-1
 90 537 l 1,5,-1
 104 612 l 1,6,-1
 274 569 l 1,7,-1
 260 746 l 1,8,-1
 339 746 l 1,9,-1
 327 569 l 1,10,-1
 498 616 l 1,11,-1
 513 534 l 1,12,-1
 352 514 l 1,13,-1
 458 381 l 1,14,-1
 381 334 l 1,0,-1
EndSplineSet
EndChar

StartChar: plus
Encoding: 43 43 13
Width: 600
Flags: W
LayerCount: 2
Fore
SplineSet
265 121 m 1,0,-1
 265 317 l 1,1,-1
 80 317 l 1,2,-1
 80 388 l 1,3,-1
 265 388 l 1,4,-1
 265 585 l 1,5,-1
 337 585 l 1,6,-1
 337 388 l 1,7,-1
 520 388 l 1,8,-1
 520 317 l 1,9,-1
 337 317 l 1,10,-1
 337 121 l 1,11,-1
 265 121 l 1,0,-1
EndSplineSet
Substitution2: "'sups' Superscript lookup 23 subtable" uni207A
Substitution2: "'subs' Subscript lookup 22 subtable" uni208A
AlternateSubs2: "'aalt' Access All Alternates lookup 1 subtable" uni208A uni207A
EndChar

StartChar: comma
Encoding: 44 44 14
Width: 600
Flags: W
LayerCount: 2
Fore
SplineSet
211 -140 m 1,0,1
 222 -96 222 -96 232 -48.5 c 128,-1,2
 242 -1 242 -1 251 45 c 128,-1,3
 260 91 260 91 265 129 c 1,4,-1
 372 129 l 1,5,-1
 380 117 l 1,6,7
 373 88 373 88 362 55.5 c 128,-1,8
 351 23 351 23 338.5 -10.5 c 128,-1,9
 326 -44 326 -44 312.5 -77 c 128,-1,10
 299 -110 299 -110 285 -140 c 1,11,-1
 211 -140 l 1,0,1
EndSplineSet
EndChar

StartChar: hyphen
Encoding: 45 45 15
Width: 600
Flags: W
LayerCount: 2
Fore
SplineSet
150 230 m 1,0,-1
 150 310 l 1,1,-1
 450 310 l 1,2,-1
 450 230 l 1,3,-1
 150 230 l 1,0,-1
EndSplineSet
EndChar

StartChar: period
Encoding: 46 46 16
Width: 600
Flags: W
LayerCount: 2
Fore
SplineSet
300 -10 m 256,0,1
 274 -10 274 -10 256 6 c 128,-1,2
 238 22 238 22 238 58 c 0,3,4
 238 96 238 96 256 111 c 128,-1,5
 274 126 274 126 300 126 c 256,6,7
 326 126 326 126 344 111 c 128,-1,8
 362 96 362 96 362 58 c 0,9,10
 362 22 362 22 344 6 c 128,-1,11
 326 -10 326 -10 300 -10 c 256,0,1
EndSplineSet
EndChar

StartChar: slash
Encoding: 47 47 17
Width: 600
Flags: W
LayerCount: 2
Fore
SplineSet
120 0 m 1,0,-1
 394 714 l 1,1,-1
 480 714 l 1,2,-1
 206 0 l 1,3,-1
 120 0 l 1,0,-1
EndSplineSet
Substitution2: "'frac' Diagonal Fractions lookup 26 subtable" fraction
Substitution2: "'aalt' Access All Alternates lookup 0 subtable" fraction
EndChar

StartChar: zero
Encoding: 48 48 18
Width: 600
Flags: W
LayerCount: 2
Fore
SplineSet
299 -10 m 0,0,1
 216 -10 216 -10 163 34 c 128,-1,2
 110 78 110 78 85 160.5 c 128,-1,3
 60 243 60 243 60 358 c 0,4,5
 60 474 60 474 84 555.5 c 128,-1,6
 108 637 108 637 160.5 680.5 c 128,-1,7
 213 724 213 724 299 724 c 0,8,9
 383 724 383 724 436.5 681 c 128,-1,10
 490 638 490 638 515 556 c 128,-1,11
 540 474 540 474 540 358 c 0,12,13
 540 271 540 271 526.5 203 c 128,-1,14
 513 135 513 135 484.5 87.5 c 128,-1,15
 456 40 456 40 410 15 c 128,-1,16
 364 -10 364 -10 299 -10 c 0,0,1
185 100 m 1,17,-1
 126 152 l 1,18,-1
 406 626 l 1,19,-1
 458 560 l 1,20,-1
 185 100 l 1,17,-1
299 69 m 0,21,22
 381 69 381 69 420 139.5 c 128,-1,23
 459 210 459 210 459 358 c 0,24,25
 459 453 459 453 442 516.5 c 128,-1,26
 425 580 425 580 389.5 612.5 c 128,-1,27
 354 645 354 645 299 645 c 0,28,29
 245 645 245 645 211 614 c 128,-1,30
 177 583 177 583 160.5 519.5 c 128,-1,31
 144 456 144 456 144 358 c 0,32,33
 144 219 144 219 179.5 144 c 128,-1,34
 215 69 215 69 299 69 c 0,21,22
EndSplineSet
Substitution2: "'zero' Slashed Zero lookup 37 subtable" zero.slash
Substitution2: "'onum' Oldstyle Figures lookup 33 subtable" zero.osf
Substitution2: "'frac' Diagonal Fractions lookup 27 subtable" zero.numr
Substitution2: "'dnom' Denominators lookup 25 subtable" zero.dnom
Substitution2: "'numr' Numerators lookup 24 subtable" zero.numr
Substitution2: "'sups' Superscript lookup 23 subtable" uni2070
Substitution2: "'subs' Subscript lookup 22 subtable" uni2080
AlternateSubs2: "'aalt' Access All Alternates lookup 1 subtable" uni2070 zero.osf zero.dnom zero.numr uni2080
EndChar

StartChar: one
Encoding: 49 49 19
Width: 600
Flags: W
LayerCount: 2
Fore
SplineSet
283 446 m 2,0,1
 283 474 283 474 283.5 506.5 c 128,-1,2
 284 539 284 539 285 569.5 c 128,-1,3
 286 600 286 600 287 622 c 1,4,5
 271 613 271 613 258 607 c 128,-1,6
 245 601 245 601 219 588 c 2,7,-1
 136 545 l 1,8,-1
 97 613 l 1,9,-1
 296 714 l 1,10,-1
 369 714 l 1,11,-1
 369 0 l 1,12,-1
 283 0 l 1,13,-1
 283 446 l 2,0,1
133 0 m 1,14,-1
 133 60 l 1,15,-1
 283 70 l 1,16,-1
 369 70 l 1,17,-1
 520 60 l 1,18,-1
 520 0 l 1,19,-1
 133 0 l 1,14,-1
EndSplineSet
Substitution2: "'onum' Oldstyle Figures lookup 33 subtable" one.osf
Substitution2: "'frac' Diagonal Fractions lookup 27 subtable" one.numr
Substitution2: "'dnom' Denominators lookup 25 subtable" one.dnom
Substitution2: "'numr' Numerators lookup 24 subtable" one.numr
Substitution2: "'sups' Superscript lookup 23 subtable" uni00B9
Substitution2: "'subs' Subscript lookup 22 subtable" uni2081
AlternateSubs2: "'aalt' Access All Alternates lookup 1 subtable" uni00B9 one.osf one.dnom one.numr uni2081
EndChar

StartChar: two
Encoding: 50 50 20
Width: 600
Flags: W
LayerCount: 2
Fore
SplineSet
70 0 m 1,0,-1
 70 76 l 1,1,-1
 260 263 l 2,2,3
 310 312 310 312 345 354.5 c 128,-1,4
 380 397 380 397 398.5 438 c 128,-1,5
 417 479 417 479 417 524 c 0,6,7
 417 588 417 588 382 616.5 c 128,-1,8
 347 645 347 645 293 645 c 0,9,10
 246 645 246 645 204.5 626 c 128,-1,11
 163 607 163 607 127 578 c 1,12,-1
 77 640 l 1,13,14
 104 664 104 664 137 683 c 128,-1,15
 170 702 170 702 210 713 c 128,-1,16
 250 724 250 724 296 724 c 0,17,18
 360 724 360 724 407.5 701 c 128,-1,19
 455 678 455 678 481 634.5 c 128,-1,20
 507 591 507 591 507 527 c 0,21,22
 507 473 507 473 487.5 424.5 c 128,-1,23
 468 376 468 376 431.5 329.5 c 128,-1,24
 395 283 395 283 344 233 c 2,25,-1
 191 84 l 1,26,-1
 191 80 l 1,27,-1
 545 80 l 1,28,-1
 545 0 l 1,29,-1
 70 0 l 1,0,-1
EndSplineSet
Substitution2: "'onum' Oldstyle Figures lookup 33 subtable" two.osf
Substitution2: "'frac' Diagonal Fractions lookup 27 subtable" two.numr
Substitution2: "'dnom' Denominators lookup 25 subtable" two.dnom
Substitution2: "'numr' Numerators lookup 24 subtable" two.numr
Substitution2: "'sups' Superscript lookup 23 subtable" uni00B2
Substitution2: "'subs' Subscript lookup 22 subtable" uni2082
AlternateSubs2: "'aalt' Access All Alternates lookup 1 subtable" uni00B2 two.osf two.dnom two.numr uni2082
EndChar

StartChar: three
Encoding: 51 51 21
Width: 600
Flags: W
LayerCount: 2
Fore
SplineSet
261 -10 m 0,0,1
 218 -10 218 -10 168 -1.5 c 128,-1,2
 118 7 118 7 74 29 c 1,3,-1
 74 114 l 1,4,5
 118 92 118 92 169 80.5 c 128,-1,6
 220 69 220 69 267 69 c 0,7,8
 354 69 354 69 394 106 c 128,-1,9
 434 143 434 143 434 203 c 0,10,11
 434 249 434 249 412.5 276.5 c 128,-1,12
 391 304 391 304 351 316.5 c 128,-1,13
 311 329 311 329 253 329 c 2,14,-1
 179 329 l 1,15,-1
 179 409 l 1,16,-1
 253 409 l 2,17,18
 305 409 305 409 340 425.5 c 128,-1,19
 375 442 375 442 393.5 471.5 c 128,-1,20
 412 501 412 501 412 539 c 0,21,22
 412 589 412 589 380.5 617 c 128,-1,23
 349 645 349 645 288 645 c 0,24,25
 237 645 237 645 194.5 627.5 c 128,-1,26
 152 610 152 610 122 590 c 1,27,-1
 77 651 l 1,28,29
 115 681 115 681 170 702.5 c 128,-1,30
 225 724 225 724 294 724 c 256,31,32
 363 724 363 724 409.5 701 c 128,-1,33
 456 678 456 678 479.5 638.5 c 128,-1,34
 503 599 503 599 503 547 c 0,35,36
 503 499 503 499 484.5 463.5 c 128,-1,37
 466 428 466 428 432.5 406 c 128,-1,38
 399 384 399 384 354 376 c 1,39,-1
 354 373 l 1,40,41
 410 366 410 366 448 344 c 128,-1,42
 486 322 486 322 505.5 285.5 c 128,-1,43
 525 249 525 249 525 198 c 0,44,45
 525 138 525 138 497 91 c 128,-1,46
 469 44 469 44 411 17 c 128,-1,47
 353 -10 353 -10 261 -10 c 0,0,1
EndSplineSet
Substitution2: "'onum' Oldstyle Figures lookup 33 subtable" three.osf
Substitution2: "'frac' Diagonal Fractions lookup 27 subtable" three.numr
Substitution2: "'dnom' Denominators lookup 25 subtable" three.dnom
Substitution2: "'numr' Numerators lookup 24 subtable" three.numr
Substitution2: "'sups' Superscript lookup 23 subtable" uni00B3
Substitution2: "'subs' Subscript lookup 22 subtable" uni2083
AlternateSubs2: "'aalt' Access All Alternates lookup 1 subtable" uni00B3 three.osf three.dnom three.numr uni2083
EndChar

StartChar: four
Encoding: 52 52 22
Width: 600
Flags: W
LayerCount: 2
Fore
SplineSet
360 0 m 1,0,-1
 360 160 l 1,1,-1
 50 160 l 1,2,-1
 50 234 l 1,3,-1
 344 718 l 1,4,-1
 446 718 l 1,5,-1
 446 237 l 1,6,-1
 550 237 l 1,7,-1
 550 160 l 1,8,-1
 446 160 l 1,9,-1
 446 0 l 1,10,-1
 360 0 l 1,0,-1
137 237 m 1,11,-1
 360 237 l 1,12,-1
 360 415 l 2,13,14
 360 442 360 442 360.5 472 c 128,-1,15
 361 502 361 502 362 531 c 128,-1,16
 363 560 363 560 364 584.5 c 128,-1,17
 365 609 365 609 366 626 c 1,18,-1
 362 626 l 1,19,20
 355 607 355 607 341.5 581 c 128,-1,21
 328 555 328 555 318 538 c 2,22,-1
 137 237 l 1,11,-1
EndSplineSet
Substitution2: "'onum' Oldstyle Figures lookup 33 subtable" four.osf
Substitution2: "'frac' Diagonal Fractions lookup 27 subtable" four.numr
Substitution2: "'dnom' Denominators lookup 25 subtable" four.dnom
Substitution2: "'numr' Numerators lookup 24 subtable" four.numr
Substitution2: "'sups' Superscript lookup 23 subtable" uni2074
Substitution2: "'subs' Subscript lookup 22 subtable" uni2084
AlternateSubs2: "'aalt' Access All Alternates lookup 1 subtable" uni2074 four.osf four.dnom four.numr uni2084
EndChar

StartChar: five
Encoding: 53 53 23
Width: 600
Flags: W
LayerCount: 2
Fore
SplineSet
257 -10 m 0,0,1
 210 -10 210 -10 162 0 c 128,-1,2
 114 10 114 10 80 29 c 1,3,-1
 80 114 l 1,4,5
 114 92 114 92 158 80.5 c 128,-1,6
 202 69 202 69 249 69 c 0,7,8
 333 69 333 69 380 104.5 c 128,-1,9
 427 140 427 140 427 214 c 0,10,11
 427 264 427 264 406 297.5 c 128,-1,12
 385 331 385 331 346.5 348 c 128,-1,13
 308 365 308 365 256 365 c 0,14,15
 228 365 228 365 196 360.5 c 128,-1,16
 164 356 164 356 139 350 c 1,17,-1
 95 378 l 1,18,-1
 122 714 l 1,19,-1
 478 714 l 1,20,-1
 478 634 l 1,21,-1
 199 634 l 1,22,-1
 180 428 l 1,23,24
 201 433 201 433 231.5 435.5 c 128,-1,25
 262 438 262 438 285 438 c 0,26,27
 350 438 350 438 403 414 c 128,-1,28
 456 390 456 390 487.5 341.5 c 128,-1,29
 519 293 519 293 519 220 c 0,30,31
 519 150 519 150 488.5 98.5 c 128,-1,32
 458 47 458 47 399.5 18.5 c 128,-1,33
 341 -10 341 -10 257 -10 c 0,0,1
EndSplineSet
Substitution2: "'onum' Oldstyle Figures lookup 33 subtable" five.osf
Substitution2: "'frac' Diagonal Fractions lookup 27 subtable" five.numr
Substitution2: "'dnom' Denominators lookup 25 subtable" five.dnom
Substitution2: "'numr' Numerators lookup 24 subtable" five.numr
Substitution2: "'sups' Superscript lookup 23 subtable" uni2075
Substitution2: "'subs' Subscript lookup 22 subtable" uni2085
AlternateSubs2: "'aalt' Access All Alternates lookup 1 subtable" uni2075 five.osf five.dnom five.numr uni2085
EndChar

StartChar: six
Encoding: 54 54 24
Width: 600
Flags: W
LayerCount: 2
Fore
SplineSet
308 -10 m 0,0,1
 251 -10 251 -10 205 9.5 c 128,-1,2
 159 29 159 29 127 68.5 c 128,-1,3
 95 108 95 108 77.5 168 c 128,-1,4
 60 228 60 228 60 308 c 0,5,6
 60 385 60 385 73.5 459 c 128,-1,7
 87 533 87 533 123 593 c 128,-1,8
 159 653 159 653 224 688.5 c 128,-1,9
 289 724 289 724 392 724 c 0,10,11
 412 724 412 724 438.5 722 c 128,-1,12
 465 720 465 720 481 715 c 1,13,-1
 481 636 l 1,14,15
 464 642 464 642 441 645 c 128,-1,16
 418 648 418 648 395 648 c 0,17,18
 323 648 323 648 276 625.5 c 128,-1,19
 229 603 229 603 202 564 c 128,-1,20
 175 525 175 525 163 473.5 c 128,-1,21
 151 422 151 422 149 364 c 1,22,-1
 155 364 l 1,23,24
 168 389 168 389 191 409 c 128,-1,25
 214 429 214 429 247 440.5 c 128,-1,26
 280 452 280 452 322 452 c 0,27,28
 422 452 422 452 481 394 c 128,-1,29
 540 336 540 336 540 230 c 0,30,31
 540 156 540 156 511.5 102 c 128,-1,32
 483 48 483 48 431 19 c 128,-1,33
 379 -10 379 -10 308 -10 c 0,0,1
307 65 m 0,34,35
 372 65 372 65 413 103.5 c 128,-1,36
 454 142 454 142 454 230 c 0,37,38
 454 304 454 304 417.5 343 c 128,-1,39
 381 382 381 382 310 382 c 0,40,41
 262 382 262 382 225.5 362 c 128,-1,42
 189 342 189 342 169 311 c 128,-1,43
 149 280 149 280 149 247 c 0,44,45
 149 221 149 221 155.5 195 c 128,-1,46
 162 169 162 169 174.5 145.5 c 128,-1,47
 187 122 187 122 206 104 c 128,-1,48
 225 86 225 86 250.5 75.5 c 128,-1,49
 276 65 276 65 307 65 c 0,34,35
EndSplineSet
Substitution2: "'onum' Oldstyle Figures lookup 33 subtable" six.osf
Substitution2: "'frac' Diagonal Fractions lookup 27 subtable" six.numr
Substitution2: "'dnom' Denominators lookup 25 subtable" six.dnom
Substitution2: "'numr' Numerators lookup 24 subtable" six.numr
Substitution2: "'sups' Superscript lookup 23 subtable" uni2076
Substitution2: "'subs' Subscript lookup 22 subtable" uni2086
AlternateSubs2: "'aalt' Access All Alternates lookup 1 subtable" uni2076 six.osf six.dnom six.numr uni2086
EndChar

StartChar: seven
Encoding: 55 55 25
Width: 600
Flags: W
LayerCount: 2
Fore
SplineSet
174 0 m 1,0,-1
 449 634 l 1,1,-1
 60 634 l 1,2,-1
 60 714 l 1,3,-1
 540 714 l 1,4,-1
 540 643 l 1,5,-1
 269 0 l 1,6,-1
 174 0 l 1,0,-1
EndSplineSet
Substitution2: "'onum' Oldstyle Figures lookup 33 subtable" seven.osf
Substitution2: "'frac' Diagonal Fractions lookup 27 subtable" seven.numr
Substitution2: "'dnom' Denominators lookup 25 subtable" seven.dnom
Substitution2: "'numr' Numerators lookup 24 subtable" seven.numr
Substitution2: "'sups' Superscript lookup 23 subtable" uni2077
Substitution2: "'subs' Subscript lookup 22 subtable" uni2087
AlternateSubs2: "'aalt' Access All Alternates lookup 1 subtable" uni2077 seven.osf seven.dnom seven.numr uni2087
EndChar

StartChar: eight
Encoding: 56 56 26
Width: 600
Flags: W
LayerCount: 2
Fore
SplineSet
295 -10 m 0,0,1
 226 -10 226 -10 175 13 c 128,-1,2
 124 36 124 36 96 78.5 c 128,-1,3
 68 121 68 121 68 179 c 0,4,5
 68 230 68 230 88 266.5 c 128,-1,6
 108 303 108 303 141 329.5 c 128,-1,7
 174 356 174 356 214 374 c 1,8,9
 182 393 182 393 153.5 418.5 c 128,-1,10
 125 444 125 444 108 477.5 c 128,-1,11
 91 511 91 511 91 554 c 0,12,13
 91 610 91 610 120 648 c 128,-1,14
 149 686 149 686 197 705 c 128,-1,15
 245 724 245 724 301 724 c 256,16,17
 357 724 357 724 404 705 c 128,-1,18
 451 686 451 686 479.5 648 c 128,-1,19
 508 610 508 610 508 554 c 0,20,21
 508 488 508 488 469.5 446.5 c 128,-1,22
 431 405 431 405 373 378 c 1,23,24
 417 356 417 356 453 328.5 c 128,-1,25
 489 301 489 301 510 265 c 128,-1,26
 531 229 531 229 531 180 c 0,27,28
 531 125 531 125 502 82 c 128,-1,29
 473 39 473 39 420.5 14.5 c 128,-1,30
 368 -10 368 -10 295 -10 c 0,0,1
298 63 m 0,31,32
 369 63 369 63 406.5 97.5 c 128,-1,33
 444 132 444 132 444 185 c 0,34,35
 444 221 444 221 426.5 246 c 128,-1,36
 409 271 409 271 374.5 293 c 128,-1,37
 340 315 340 315 287 340 c 1,38,39
 247 322 247 322 217.5 299.5 c 128,-1,40
 188 277 188 277 172 247.5 c 128,-1,41
 156 218 156 218 156 180 c 0,42,43
 156 129 156 129 190 96 c 128,-1,44
 224 63 224 63 298 63 c 0,31,32
301 414 m 1,45,46
 335 429 335 429 362 447 c 128,-1,47
 389 465 389 465 405 490 c 128,-1,48
 421 515 421 515 421 549 c 0,49,50
 421 598 421 598 388 623.5 c 128,-1,51
 355 649 355 649 299 649 c 0,52,53
 244 649 244 649 211 624 c 128,-1,54
 178 599 178 599 178 549 c 0,55,56
 178 512 178 512 196 487 c 128,-1,57
 214 462 214 462 242 445 c 128,-1,58
 270 428 270 428 301 414 c 1,45,46
EndSplineSet
Substitution2: "'onum' Oldstyle Figures lookup 33 subtable" eight.osf
Substitution2: "'frac' Diagonal Fractions lookup 27 subtable" eight.numr
Substitution2: "'dnom' Denominators lookup 25 subtable" eight.dnom
Substitution2: "'numr' Numerators lookup 24 subtable" eight.numr
Substitution2: "'sups' Superscript lookup 23 subtable" uni2078
Substitution2: "'subs' Subscript lookup 22 subtable" uni2088
AlternateSubs2: "'aalt' Access All Alternates lookup 1 subtable" uni2078 eight.osf eight.dnom eight.numr uni2088
EndChar

StartChar: nine
Encoding: 57 57 27
Width: 600
Flags: W
LayerCount: 2
Fore
SplineSet
217 -10 m 0,0,1
 194 -10 194 -10 170 -7.5 c 128,-1,2
 146 -5 146 -5 129 -1 c 1,3,-1
 129 78 l 1,4,5
 146 72 146 72 167.5 69 c 128,-1,6
 189 66 189 66 213 66 c 0,7,8
 281 66 281 66 326 88.5 c 128,-1,9
 371 111 371 111 397.5 150.5 c 128,-1,10
 424 190 424 190 436.5 241 c 128,-1,11
 449 292 449 292 451 350 c 1,12,-1
 445 350 l 1,13,14
 432 325 432 325 408.5 305 c 128,-1,15
 385 285 385 285 352.5 273.5 c 128,-1,16
 320 262 320 262 278 262 c 0,17,18
 178 262 178 262 119 320.5 c 128,-1,19
 60 379 60 379 60 488 c 0,20,21
 60 561 60 561 88.5 613.5 c 128,-1,22
 117 666 117 666 169.5 695 c 128,-1,23
 222 724 222 724 294 724 c 0,24,25
 349 724 349 724 394.5 705 c 128,-1,26
 440 686 440 686 472.5 645.5 c 128,-1,27
 505 605 505 605 522.5 542 c 128,-1,28
 540 479 540 479 540 391 c 0,29,30
 540 337 540 337 532 280.5 c 128,-1,31
 524 224 524 224 503.5 172 c 128,-1,32
 483 120 483 120 446.5 79 c 128,-1,33
 410 38 410 38 353.5 14 c 128,-1,34
 297 -10 297 -10 217 -10 c 0,0,1
287 332 m 0,35,36
 334 332 334 332 371 350.5 c 128,-1,37
 408 369 408 369 429.5 402 c 128,-1,38
 451 435 451 435 451 477 c 0,39,40
 451 503 451 503 441.5 532.5 c 128,-1,41
 432 562 432 562 413 588.5 c 128,-1,42
 394 615 394 615 364 632 c 128,-1,43
 334 649 334 649 293 649 c 0,44,45
 226 649 226 649 186 609 c 128,-1,46
 146 569 146 569 146 487 c 0,47,48
 146 406 146 406 183.5 369 c 128,-1,49
 221 332 221 332 287 332 c 0,35,36
EndSplineSet
Substitution2: "'onum' Oldstyle Figures lookup 33 subtable" nine.osf
Substitution2: "'frac' Diagonal Fractions lookup 27 subtable" nine.numr
Substitution2: "'dnom' Denominators lookup 25 subtable" nine.dnom
Substitution2: "'numr' Numerators lookup 24 subtable" nine.numr
Substitution2: "'sups' Superscript lookup 23 subtable" uni2079
Substitution2: "'subs' Subscript lookup 22 subtable" uni2089
AlternateSubs2: "'aalt' Access All Alternates lookup 1 subtable" uni2079 nine.osf nine.dnom nine.numr uni2089
EndChar

StartChar: colon
Encoding: 58 58 28
Width: 600
Flags: W
LayerCount: 2
Fore
SplineSet
301 410 m 256,0,1
 275 410 275 410 257 426 c 128,-1,2
 239 442 239 442 239 478 c 0,3,4
 239 516 239 516 257 531 c 128,-1,5
 275 546 275 546 301 546 c 256,6,7
 327 546 327 546 344.5 531 c 128,-1,8
 362 516 362 516 362 478 c 0,9,10
 362 442 362 442 344.5 426 c 128,-1,11
 327 410 327 410 301 410 c 256,0,1
300 -10 m 256,12,13
 274 -10 274 -10 256 6 c 128,-1,14
 238 22 238 22 238 58 c 0,15,16
 238 96 238 96 256 111 c 128,-1,17
 274 126 274 126 300 126 c 256,18,19
 326 126 326 126 343.5 111 c 128,-1,20
 361 96 361 96 361 58 c 0,21,22
 361 22 361 22 343.5 6 c 128,-1,23
 326 -10 326 -10 300 -10 c 256,12,13
EndSplineSet
EndChar

StartChar: semicolon
Encoding: 59 59 29
Width: 600
Flags: W
LayerCount: 2
Fore
SplineSet
211 -140 m 1,0,1
 222 -96 222 -96 232 -48.5 c 128,-1,2
 242 -1 242 -1 251 45 c 128,-1,3
 260 91 260 91 265 129 c 1,4,-1
 372 129 l 1,5,-1
 380 117 l 1,6,7
 373 88 373 88 362 55.5 c 128,-1,8
 351 23 351 23 338.5 -10.5 c 128,-1,9
 326 -44 326 -44 312.5 -77 c 128,-1,10
 299 -110 299 -110 285 -140 c 1,11,-1
 211 -140 l 1,0,1
323 410 m 256,12,13
 297 410 297 410 279 426 c 128,-1,14
 261 442 261 442 261 478 c 0,15,16
 261 516 261 516 279 531 c 128,-1,17
 297 546 297 546 323 546 c 256,18,19
 349 546 349 546 367 531 c 128,-1,20
 385 516 385 516 385 478 c 0,21,22
 385 442 385 442 367 426 c 128,-1,23
 349 410 349 410 323 410 c 256,12,13
EndSplineSet
EndChar

StartChar: less
Encoding: 60 60 30
Width: 600
Flags: W
LayerCount: 2
Fore
SplineSet
510 116 m 1,0,-1
 90 323 l 1,1,-1
 90 373 l 1,2,-1
 510 608 l 1,3,-1
 510 530 l 1,4,-1
 184 351 l 1,5,-1
 510 194 l 1,6,-1
 510 116 l 1,0,-1
EndSplineSet
EndChar

StartChar: equal
Encoding: 61 61 31
Width: 600
Flags: W
LayerCount: 2
Fore
SplineSet
70 407 m 1,0,-1
 70 487 l 1,1,-1
 530 487 l 1,2,-1
 530 407 l 1,3,-1
 70 407 l 1,0,-1
70 217 m 1,4,-1
 70 297 l 1,5,-1
 530 297 l 1,6,-1
 530 217 l 1,7,-1
 70 217 l 1,4,-1
EndSplineSet
Substitution2: "'sups' Superscript lookup 23 subtable" uni207C
Substitution2: "'subs' Subscript lookup 22 subtable" uni208C
AlternateSubs2: "'aalt' Access All Alternates lookup 1 subtable" uni208C uni207C
EndChar

StartChar: greater
Encoding: 62 62 32
Width: 600
Flags: W
LayerCount: 2
Fore
SplineSet
90 116 m 1,0,-1
 90 194 l 1,1,-1
 416 351 l 1,2,-1
 90 530 l 1,3,-1
 90 608 l 1,4,-1
 510 373 l 1,5,-1
 510 323 l 1,6,-1
 90 116 l 1,0,-1
EndSplineSet
EndChar

StartChar: question
Encoding: 63 63 33
Width: 600
Flags: W
LayerCount: 2
Fore
SplineSet
230 220 m 2,0,1
 230 258 230 258 239 286 c 128,-1,2
 248 314 248 314 270.5 339.5 c 128,-1,3
 293 365 293 365 331 392 c 0,4,5
 365 416 365 416 385.5 437 c 128,-1,6
 406 458 406 458 415.5 483 c 128,-1,7
 425 508 425 508 425 545 c 0,8,9
 425 589 425 589 392.5 617.5 c 128,-1,10
 360 646 360 646 298 646 c 0,11,12
 246 646 246 646 204.5 633.5 c 128,-1,13
 163 621 163 621 122 602 c 1,14,-1
 90 677 l 1,15,16
 131 695 131 695 178.5 709.5 c 128,-1,17
 226 724 226 724 293 724 c 256,18,19
 360 724 360 724 408.5 702.5 c 128,-1,20
 457 681 457 681 483.5 642 c 128,-1,21
 510 603 510 603 510 549 c 0,22,23
 510 502 510 502 498 468 c 128,-1,24
 486 434 486 434 461.5 406.5 c 128,-1,25
 437 379 437 379 398 350 c 256,26,27
 359 321 359 321 339.5 300.5 c 128,-1,28
 320 280 320 280 314 260 c 128,-1,29
 308 240 308 240 308 211 c 2,30,-1
 308 202 l 1,31,-1
 230 202 l 1,32,-1
 230 220 l 2,0,1
273 -10 m 256,33,34
 247 -10 247 -10 229 6 c 128,-1,35
 211 22 211 22 211 58 c 0,36,37
 211 96 211 96 229 111 c 128,-1,38
 247 126 247 126 273 126 c 256,39,40
 299 126 299 126 317 111 c 128,-1,41
 335 96 335 96 335 58 c 0,42,43
 335 22 335 22 317 6 c 128,-1,44
 299 -10 299 -10 273 -10 c 256,33,34
EndSplineSet
Substitution2: "'smcp' Lowercase to Small Capitals lookup 35 subtable" question.sc
Substitution2: "'c2sc' Capitals to Small Capitals lookup 34 subtable" question.sc
Substitution2: "'aalt' Access All Alternates lookup 0 subtable" question.sc
EndChar

StartChar: at
Encoding: 64 64 34
Width: 600
Flags: W
LayerCount: 2
Fore
SplineSet
324 -89 m 0,0,1
 224 -89 224 -89 155 -42 c 128,-1,2
 86 5 86 5 50.5 91.5 c 128,-1,3
 15 178 15 178 15 294 c 0,4,5
 15 386 15 386 34.5 463 c 128,-1,6
 54 540 54 540 92.5 596 c 128,-1,7
 131 652 131 652 188 683 c 128,-1,8
 245 714 245 714 319 714 c 0,9,10
 400 714 400 714 459.5 671 c 128,-1,11
 519 628 519 628 552 548 c 128,-1,12
 585 468 585 468 585 357 c 0,13,14
 585 311 585 311 578.5 267 c 128,-1,15
 572 223 572 223 558.5 187 c 128,-1,16
 545 151 545 151 522.5 129.5 c 128,-1,17
 500 108 500 108 467 108 c 0,18,19
 433 108 433 108 414 135 c 128,-1,20
 395 162 395 162 390 196 c 1,21,-1
 388 196 l 1,22,23
 374 159 374 159 346 133.5 c 128,-1,24
 318 108 318 108 276 108 c 0,25,26
 215 108 215 108 182 160 c 128,-1,27
 149 212 149 212 149 296 c 0,28,29
 149 362 149 362 170 412.5 c 128,-1,30
 191 463 191 463 229.5 491.5 c 128,-1,31
 268 520 268 520 321 520 c 0,32,33
 357 520 357 520 392 512.5 c 128,-1,34
 427 505 427 505 446 497 c 1,35,-1
 435 294 l 2,36,37
 434 286 434 286 434 275.5 c 128,-1,38
 434 265 434 265 434 257 c 0,39,40
 434 205 434 205 445 188 c 128,-1,41
 456 171 456 171 469 171 c 0,42,43
 487 171 487 171 498 196.5 c 128,-1,44
 509 222 509 222 513.5 264.5 c 128,-1,45
 518 307 518 307 518 358 c 0,46,47
 518 497 518 497 462.5 572.5 c 128,-1,48
 407 648 407 648 318 648 c 0,49,50
 242 648 242 648 189.5 604 c 128,-1,51
 137 560 137 560 110.5 481.5 c 128,-1,52
 84 403 84 403 84 297 c 0,53,54
 84 199 84 199 111 127 c 128,-1,55
 138 55 138 55 192 16.5 c 128,-1,56
 246 -22 246 -22 327 -22 c 0,57,58
 377 -22 377 -22 419 -11 c 128,-1,59
 461 0 461 0 496 16 c 1,60,-1
 496 -49 l 1,61,62
 460 -67 460 -67 419 -78 c 128,-1,63
 378 -89 378 -89 324 -89 c 0,0,1
289 171 m 0,64,65
 326 171 326 171 341 213.5 c 128,-1,66
 356 256 356 256 360 323 c 2,67,-1
 367 447 l 1,68,69
 357 451 357 451 344 454 c 128,-1,70
 331 457 331 457 317 457 c 0,71,72
 284 457 284 457 264.5 433 c 128,-1,73
 245 409 245 409 236 372 c 128,-1,74
 227 335 227 335 227 294 c 0,75,76
 227 229 227 229 244 200 c 128,-1,77
 261 171 261 171 289 171 c 0,64,65
EndSplineSet
EndChar

StartChar: A
Encoding: 65 65 35
Width: 600
GlyphClass: 2
Flags: W
AnchorPoint: "Anchor-2" 300 536 basechar 0
AnchorPoint: "Anchor-1" 300 0 basechar 0
LayerCount: 2
Fore
SplineSet
47 0 m 1,0,-1
 262 538 l 1,1,-1
 339 538 l 1,2,-1
 553 0 l 1,3,-1
 462 0 l 1,4,-1
 397 161 l 1,5,-1
 201 161 l 1,6,-1
 138 0 l 1,7,-1
 47 0 l 1,0,-1
229 234 m 1,8,-1
 372 234 l 1,9,-1
 318 382 l 2,10,11
 315 391 315 391 312 399.5 c 128,-1,12
 309 408 309 408 306 417 c 128,-1,13
 303 426 303 426 300 435 c 1,14,15
 298 426 298 426 295 417.5 c 128,-1,16
 292 409 292 409 289.5 400.5 c 128,-1,17
 287 392 287 392 283 382 c 2,18,-1
 229 234 l 1,8,-1
EndSplineSet
Substitution2: "'c2sc' Capitals to Small Capitals lookup 34 subtable" a.sc
Substitution2: "Single Substitution lookup 32 subtable" ordfeminine
AlternateSubs2: "'aalt' Access All Alternates lookup 1 subtable" ordfeminine a.sc
EndChar

StartChar: B
Encoding: 66 66 36
Width: 600
GlyphClass: 2
Flags: W
AnchorPoint: "Anchor-2" 300 536 basechar 0
AnchorPoint: "Anchor-1" 300 0 basechar 0
LayerCount: 2
Fore
SplineSet
130 0 m 1,0,-1
 130 537 l 1,1,-1
 340 537 l 2,2,3
 394 537 394 537 434.5 523 c 128,-1,4
 475 509 475 509 497 479.5 c 128,-1,5
 519 450 519 450 519 403 c 0,6,7
 519 354 519 354 494.5 325 c 128,-1,8
 470 296 470 296 426 286 c 1,9,-1
 426 282 l 1,10,11
 473 275 473 275 503.5 244 c 128,-1,12
 534 213 534 213 534 158 c 0,13,14
 534 110 534 110 513.5 74.5 c 128,-1,15
 493 39 493 39 451 19.5 c 128,-1,16
 409 0 409 0 344 0 c 2,17,-1
 130 0 l 1,0,-1
337 68 m 2,18,19
 392 68 392 68 420 90 c 128,-1,20
 448 112 448 112 448 161 c 0,21,22
 448 207 448 207 419.5 227 c 128,-1,23
 391 247 391 247 337 247 c 2,24,-1
 215 247 l 1,25,-1
 215 68 l 1,26,-1
 337 68 l 2,18,19
331 315 m 2,27,28
 383 315 383 315 408 334.5 c 128,-1,29
 433 354 433 354 433 394 c 0,30,31
 433 431 433 431 409.5 449.5 c 128,-1,32
 386 468 386 468 335 468 c 2,33,-1
 215 468 l 1,34,-1
 215 315 l 1,35,-1
 331 315 l 2,27,28
EndSplineSet
Substitution2: "'c2sc' Capitals to Small Capitals lookup 34 subtable" b.sc
Substitution2: "'aalt' Access All Alternates lookup 0 subtable" b.sc
EndChar

StartChar: C
Encoding: 67 67 37
Width: 600
GlyphClass: 2
Flags: W
AnchorPoint: "Anchor-2" 360 536 basechar 0
AnchorPoint: "Anchor-1" 360 0 basechar 0
LayerCount: 2
Fore
SplineSet
356 -7 m 0,0,1
 271 -7 271 -7 213.5 27 c 128,-1,2
 156 61 156 61 127.5 123 c 128,-1,3
 99 185 99 185 99 269 c 0,4,5
 99 350 99 350 130 412 c 128,-1,6
 161 474 161 474 221 508.5 c 128,-1,7
 281 543 281 543 367 543 c 0,8,9
 410 543 410 543 451.5 534 c 128,-1,10
 493 525 493 525 528 508 c 1,11,-1
 494 439 l 1,12,13
 466 452 466 452 433.5 461.5 c 128,-1,14
 401 471 401 471 366 471 c 0,15,16
 312 471 312 471 273 446.5 c 128,-1,17
 234 422 234 422 213 376.5 c 128,-1,18
 192 331 192 331 192 268 c 0,19,20
 192 174 192 174 235 119.5 c 128,-1,21
 278 65 278 65 366 65 c 0,22,23
 400 65 400 65 434.5 72 c 128,-1,24
 469 79 469 79 504 89 c 1,25,-1
 504 17 l 1,26,27
 482 9 482 9 459.5 3.5 c 128,-1,28
 437 -2 437 -2 412 -4.5 c 128,-1,29
 387 -7 387 -7 356 -7 c 0,0,1
EndSplineSet
Substitution2: "'c2sc' Capitals to Small Capitals lookup 34 subtable" c.sc
Substitution2: "'aalt' Access All Alternates lookup 0 subtable" c.sc
EndChar

StartChar: D
Encoding: 68 68 38
Width: 600
GlyphClass: 2
Flags: W
AnchorPoint: "Anchor-2" 300 536 basechar 0
AnchorPoint: "Anchor-1" 300 0 basechar 0
LayerCount: 2
Fore
SplineSet
116 0 m 1,0,-1
 116 536 l 1,1,-1
 272 536 l 2,2,3
 398 536 398 536 472 469 c 128,-1,4
 546 402 546 402 546 273 c 0,5,6
 546 183 546 183 511.5 122 c 128,-1,7
 477 61 477 61 412.5 30.5 c 128,-1,8
 348 0 348 0 256 0 c 2,9,-1
 116 0 l 1,0,-1
247 71 m 2,10,11
 351 71 351 71 402.5 121.5 c 128,-1,12
 454 172 454 172 454 271 c 0,13,14
 454 371 454 371 404 418 c 128,-1,15
 354 465 354 465 262 465 c 2,16,-1
 205 465 l 1,17,-1
 205 71 l 1,18,-1
 247 71 l 2,10,11
EndSplineSet
Substitution2: "'c2sc' Capitals to Small Capitals lookup 34 subtable" d.sc
Substitution2: "'aalt' Access All Alternates lookup 0 subtable" d.sc
EndChar

StartChar: F
Encoding: 70 70 40
Width: 600
GlyphClass: 2
Flags: W
AnchorPoint: "Anchor-3" 580 572 basechar 0
AnchorPoint: "Anchor-2" 320 572 basechar 0
AnchorPoint: "Anchor-1" 320 0 basechar 0
LayerCount: 2
Fore
SplineSet
136 0 m 1,0,-1
 136 572 l 1,1,-1
 484 572 l 1,2,-1
 484 501 l 1,3,-1
 223 501 l 1,4,-1
 223 309 l 1,5,-1
 469 309 l 1,6,-1
 469 238 l 1,7,-1
 223 238 l 1,8,-1
 223 0 l 1,9,-1
 136 0 l 1,0,-1
EndSplineSet
Substitution2: "'c2sc' Capitals to Small Capitals lookup 34 subtable" f.sc
Substitution2: "'aalt' Access All Alternates lookup 0 subtable" f.sc
EndChar

StartChar: G
Encoding: 71 71 41
Width: 600
GlyphClass: 2
Flags: W
AnchorPoint: "Anchor-3" 580 572 basechar 0
AnchorPoint: "Anchor-2" 330 572 basechar 0
AnchorPoint: "Anchor-1" 330 0 basechar 0
LayerCount: 2
Fore
SplineSet
335 -8 m 0,0,1
 197 -8 197 -8 122 66.5 c 128,-1,2
 47 141 47 141 47 278 c 0,3,4
 47 370 47 370 81 438 c 128,-1,5
 115 506 115 506 182 544 c 128,-1,6
 249 582 249 582 348 582 c 0,7,8
 395 582 395 582 440.5 573 c 128,-1,9
 486 564 486 564 523 547 c 1,10,-1
 493 476 l 1,11,12
 458 493 458 493 421.5 501 c 128,-1,13
 385 509 385 509 348 509 c 0,14,15
 279 509 279 509 232.5 481 c 128,-1,16
 186 453 186 453 162 402 c 128,-1,17
 138 351 138 351 138 281 c 0,18,19
 138 177 138 177 190 121 c 128,-1,20
 242 65 242 65 342 65 c 0,21,22
 371 65 371 65 399 69.5 c 128,-1,23
 427 74 427 74 448 81 c 1,24,-1
 448 235 l 1,25,-1
 304 235 l 1,26,-1
 304 306 l 1,27,-1
 532 306 l 1,28,-1
 532 27 l 1,29,30
 492 11 492 11 439 1.5 c 128,-1,31
 386 -8 386 -8 335 -8 c 0,0,1
EndSplineSet
Substitution2: "'c2sc' Capitals to Small Capitals lookup 34 subtable" g.sc
Substitution2: "'aalt' Access All Alternates lookup 0 subtable" g.sc
EndChar

StartChar: H
Encoding: 72 72 42
Width: 600
GlyphClass: 2
Flags: W
AnchorPoint: "Anchor-2" 300 536 basechar 0
AnchorPoint: "Anchor-1" 300 0 basechar 0
LayerCount: 2
Fore
SplineSet
80 0 m 1,0,-1
 80 536 l 1,1,-1
 165 536 l 1,2,-1
 165 314 l 1,3,-1
 436 314 l 1,4,-1
 436 536 l 1,5,-1
 520 536 l 1,6,-1
 520 0 l 1,7,-1
 436 0 l 1,8,-1
 436 242 l 1,9,-1
 165 242 l 1,10,-1
 165 0 l 1,11,-1
 80 0 l 1,0,-1
EndSplineSet
Substitution2: "'c2sc' Capitals to Small Capitals lookup 34 subtable" h.sc
Substitution2: "'aalt' Access All Alternates lookup 0 subtable" h.sc
EndChar

StartChar: I
Encoding: 73 73 43
Width: 600
GlyphClass: 2
Flags: W
AnchorPoint: "Anchor-2" 300 536 basechar 0
AnchorPoint: "Anchor-1" 300 0 basechar 0
LayerCount: 2
Fore
SplineSet
110 0 m 1,0,-1
 110 62 l 1,1,-1
 254 75 l 1,2,-1
 254 461 l 1,3,-1
 110 474 l 1,4,-1
 110 536 l 1,5,-1
 490 536 l 1,6,-1
 490 474 l 1,7,-1
 344 461 l 1,8,-1
 344 75 l 1,9,-1
 490 62 l 1,10,-1
 490 0 l 1,11,-1
 110 0 l 1,0,-1
EndSplineSet
Substitution2: "'c2sc' Capitals to Small Capitals lookup 34 subtable" i.sc
Substitution2: "'aalt' Access All Alternates lookup 0 subtable" i.sc
EndChar

StartChar: J
Encoding: 74 74 44
Width: 600
GlyphClass: 2
Flags: W
AnchorPoint: "Anchor-3" 518 536 basechar 0
AnchorPoint: "Anchor-2" 370 536 basechar 0
AnchorPoint: "Anchor-1" 270 0 basechar 0
LayerCount: 2
Fore
SplineSet
232 -8 m 0,0,1
 202 -8 202 -8 169 -0.5 c 128,-1,2
 136 7 136 7 110 19 c 1,3,-1
 110 98 l 1,4,5
 131 89 131 89 162 79 c 128,-1,6
 193 69 193 69 226 69 c 0,7,8
 272 69 272 69 300 101.5 c 128,-1,9
 328 134 328 134 328 214 c 2,10,-1
 328 536 l 1,11,-1
 411 536 l 1,12,-1
 411 203 l 2,13,14
 411 135 411 135 391 88 c 128,-1,15
 371 41 371 41 331 16.5 c 128,-1,16
 291 -8 291 -8 232 -8 c 0,0,1
EndSplineSet
Substitution2: "'c2sc' Capitals to Small Capitals lookup 34 subtable" j.sc
Substitution2: "'aalt' Access All Alternates lookup 0 subtable" j.sc
EndChar

StartChar: K
Encoding: 75 75 45
Width: 600
GlyphClass: 2
Flags: W
AnchorPoint: "Anchor-2" 320 536 basechar 0
AnchorPoint: "Anchor-1" 329 0 basechar 0
LayerCount: 2
Fore
SplineSet
105 0 m 1,0,-1
 105 537 l 1,1,-1
 190 537 l 1,2,-1
 190 279 l 1,3,-1
 444 537 l 1,4,-1
 554 537 l 1,5,-1
 291 281 l 1,6,-1
 570 0 l 1,7,-1
 461 0 l 1,8,-1
 190 275 l 1,9,-1
 190 0 l 1,10,-1
 105 0 l 1,0,-1
EndSplineSet
Substitution2: "'c2sc' Capitals to Small Capitals lookup 34 subtable" k.sc
Substitution2: "'aalt' Access All Alternates lookup 0 subtable" k.sc
EndChar

StartChar: L
Encoding: 76 76 46
Width: 600
GlyphClass: 2
Flags: W
AnchorPoint: "Anchor-2" 209 536 basechar 0
AnchorPoint: "Anchor-1" 339 0 basechar 0
LayerCount: 2
Fore
SplineSet
165 0 m 1,0,-1
 165 536 l 1,1,-1
 253 536 l 1,2,-1
 253 73 l 1,3,-1
 507 73 l 1,4,-1
 507 0 l 1,5,-1
 165 0 l 1,0,-1
EndSplineSet
Substitution2: "'c2sc' Capitals to Small Capitals lookup 34 subtable" l.sc
Substitution2: "'aalt' Access All Alternates lookup 0 subtable" l.sc
EndChar

StartChar: M
Encoding: 77 77 47
Width: 600
GlyphClass: 2
Flags: W
AnchorPoint: "Anchor-2" 299 536 basechar 0
AnchorPoint: "Anchor-1" 299 0 basechar 0
LayerCount: 2
Fore
SplineSet
50 0 m 1,0,-1
 50 537 l 1,1,-1
 166 537 l 1,2,-1
 299 111 l 1,3,-1
 434 537 l 1,4,-1
 550 537 l 1,5,-1
 550 0 l 1,6,-1
 471 0 l 1,7,-1
 471 317 l 2,8,9
 471 340 471 340 472.5 369 c 128,-1,10
 474 398 474 398 477 432 c 1,11,-1
 473 432 l 1,12,-1
 335 0 l 1,13,-1
 262 0 l 1,14,-1
 127 432 l 1,15,-1
 123 432 l 1,16,17
 125 401 125 401 126.5 370.5 c 128,-1,18
 128 340 128 340 128 316 c 2,19,-1
 128 0 l 1,20,-1
 50 0 l 1,0,-1
EndSplineSet
Substitution2: "'c2sc' Capitals to Small Capitals lookup 34 subtable" m.sc
Substitution2: "'aalt' Access All Alternates lookup 0 subtable" m.sc
EndChar

StartChar: N
Encoding: 78 78 48
Width: 600
GlyphClass: 2
Flags: W
AnchorPoint: "Anchor-2" 300 536 basechar 0
AnchorPoint: "Anchor-1" 300 0 basechar 0
LayerCount: 2
Fore
SplineSet
69 0 m 1,0,-1
 69 536 l 1,1,-1
 172 536 l 1,2,-1
 454 104 l 1,3,4
 453 118 453 118 451.5 142 c 128,-1,5
 450 166 450 166 449 190 c 128,-1,6
 448 214 448 214 448 226 c 2,7,-1
 448 536 l 1,8,-1
 531 536 l 1,9,-1
 531 0 l 1,10,-1
 427 0 l 1,11,-1
 148 431 l 1,12,13
 149 418 149 418 150 392.5 c 128,-1,14
 151 367 151 367 151.5 341 c 128,-1,15
 152 315 152 315 152 299 c 2,16,-1
 152 0 l 1,17,-1
 69 0 l 1,0,-1
EndSplineSet
Substitution2: "'c2sc' Capitals to Small Capitals lookup 34 subtable" n.sc
Substitution2: "'aalt' Access All Alternates lookup 0 subtable" n.sc
EndChar

StartChar: P
Encoding: 80 80 50
Width: 600
GlyphClass: 2
Flags: W
AnchorPoint: "Anchor-2" 300 536 basechar 0
AnchorPoint: "Anchor-1" 300 0 basechar 0
LayerCount: 2
Fore
SplineSet
148 0 m 1,0,-1
 148 536 l 1,1,-1
 301 536 l 2,2,3
 411 536 411 536 461.5 494 c 128,-1,4
 512 452 512 452 512 375 c 0,5,6
 512 330 512 330 491 291 c 128,-1,7
 470 252 470 252 421.5 227.5 c 128,-1,8
 373 203 373 203 288 203 c 2,9,-1
 237 203 l 1,10,-1
 237 0 l 1,11,-1
 148 0 l 1,0,-1
280 274 m 2,12,13
 328 274 328 274 359.5 283.5 c 128,-1,14
 391 293 391 293 406 315 c 128,-1,15
 421 337 421 337 421 372 c 0,16,17
 421 419 421 419 390.5 442 c 128,-1,18
 360 465 360 465 295 465 c 2,19,-1
 237 465 l 1,20,-1
 237 274 l 1,21,-1
 280 274 l 2,12,13
EndSplineSet
Substitution2: "'c2sc' Capitals to Small Capitals lookup 34 subtable" p.sc
Substitution2: "'aalt' Access All Alternates lookup 0 subtable" p.sc
EndChar

StartChar: Q
Encoding: 81 81 51
Width: 600
GlyphClass: 2
Flags: W
AnchorPoint: "Anchor-4" 300 286 basechar 0
AnchorPoint: "Anchor-3" 300 572 basechar 0
AnchorPoint: "Anchor-2" 300 572 basechar 0
AnchorPoint: "Anchor-1" 300 0 basechar 0
AnchorPoint: "Anchor-0" 301 10 basechar 0
LayerCount: 2
Fore
SplineSet
413 40 m 1,0,-1
 546 -139 l 1,1,-1
 438 -139 l 1,2,-1
 326 27 l 1,3,-1
 413 40 l 1,0,-1
301 -8 m 0,4,5
 211 -8 211 -8 151 29 c 128,-1,6
 91 66 91 66 61.5 133 c 128,-1,7
 32 200 32 200 32 288 c 0,8,9
 32 375 32 375 62 441 c 128,-1,10
 92 507 92 507 151.5 544 c 128,-1,11
 211 581 211 581 301 581 c 0,12,13
 392 581 392 581 451 544 c 128,-1,14
 510 507 510 507 539 440.5 c 128,-1,15
 568 374 568 374 568 287 c 0,16,17
 568 199 568 199 539 132.5 c 128,-1,18
 510 66 510 66 451 29 c 128,-1,19
 392 -8 392 -8 301 -8 c 0,4,5
300 67 m 0,20,21
 362 67 362 67 400.5 94 c 128,-1,22
 439 121 439 121 457.5 170.5 c 128,-1,23
 476 220 476 220 476 287 c 0,24,25
 476 391 476 391 432 448.5 c 128,-1,26
 388 506 388 506 300 506 c 0,27,28
 240 506 240 506 201 479 c 128,-1,29
 162 452 162 452 143 403 c 128,-1,30
 124 354 124 354 124 287 c 0,31,32
 124 221 124 221 142.5 171.5 c 128,-1,33
 161 122 161 122 200 94.5 c 128,-1,34
 239 67 239 67 300 67 c 0,20,21
EndSplineSet
Substitution2: "'c2sc' Capitals to Small Capitals lookup 34 subtable" q.sc
Substitution2: "'aalt' Access All Alternates lookup 0 subtable" q.sc
EndChar

StartChar: R
Encoding: 82 82 52
Width: 600
GlyphClass: 2
Flags: W
AnchorPoint: "Anchor-2" 300 536 basechar 0
AnchorPoint: "Anchor-1" 318 0 basechar 0
LayerCount: 2
Fore
SplineSet
110 0 m 1,0,-1
 110 536 l 1,1,-1
 320 536 l 2,2,3
 406 536 406 536 458 495.5 c 128,-1,4
 510 455 510 455 510 378 c 0,5,6
 510 331 510 331 492 299.5 c 128,-1,7
 474 268 474 268 445.5 250.5 c 128,-1,8
 417 233 417 233 385 225 c 1,9,-1
 538 0 l 1,10,-1
 436 0 l 1,11,-1
 298 213 l 1,12,-1
 198 213 l 1,13,-1
 198 0 l 1,14,-1
 110 0 l 1,0,-1
294 286 m 2,15,16
 356 286 356 286 390.5 308.5 c 128,-1,17
 425 331 425 331 425 377 c 0,18,19
 425 415 425 415 399 439 c 128,-1,20
 373 463 373 463 311 463 c 2,21,-1
 198 463 l 1,22,-1
 198 286 l 1,23,-1
 294 286 l 2,15,16
EndSplineSet
Substitution2: "'c2sc' Capitals to Small Capitals lookup 34 subtable" r.sc
Substitution2: "'aalt' Access All Alternates lookup 0 subtable" r.sc
EndChar

StartChar: S
Encoding: 83 83 53
Width: 600
GlyphClass: 2
Flags: W
AnchorPoint: "Anchor-3" 580 536 basechar 0
AnchorPoint: "Anchor-2" 305 536 basechar 0
AnchorPoint: "Anchor-1" 305 0 basechar 0
LayerCount: 2
Fore
SplineSet
132 606 m 5,0,1
 135 636 135 636 143.5 659.5 c 132,-1,2
 152 683 152 683 166 699.5 c 132,-1,3
 180 716 180 716 199 725 c 132,-1,4
 218 734 218 734 242 734 c 4,5,6
 263 734 263 734 282.5 725.5 c 132,-1,7
 302 717 302 717 320 705.5 c 132,-1,8
 338 694 338 694 354.5 685.5 c 132,-1,9
 371 677 371 677 387 677 c 4,10,11
 410 677 410 677 422.5 691.5 c 132,-1,12
 435 706 435 706 442 735 c 5,13,-1
 492 735 l 5,14,15
 486 677 486 677 458 642 c 132,-1,16
 430 607 430 607 383 607 c 4,17,18
 362 607 362 607 343 615.5 c 132,-1,19
 324 624 324 624 306.5 635.5 c 132,-1,20
 289 647 289 647 272 655.5 c 132,-1,21
 255 664 255 664 238 664 c 4,22,23
 214 664 214 664 202 649.5 c 132,-1,24
 190 635 190 635 183 606 c 5,25,-1
 132 606 l 5,0,1
279 -10 m 0,26,27
 229 -10 229 -10 183.5 -1 c 128,-1,28
 138 8 138 8 105 24 c 1,29,-1
 105 107 l 1,30,31
 140 91 140 91 182.5 77.5 c 128,-1,32
 225 64 225 64 284 64 c 0,33,34
 350 64 350 64 377.5 84.5 c 128,-1,35
 405 105 405 105 405 144 c 0,36,37
 405 165 405 165 395.5 178.5 c 128,-1,38
 386 192 386 192 359 206 c 128,-1,39
 332 220 332 220 280 242 c 0,40,41
 228 265 228 265 191 285 c 128,-1,42
 154 305 154 305 134 332.5 c 128,-1,43
 114 360 114 360 114 403 c 0,44,45
 114 451 114 451 138.5 482.5 c 128,-1,46
 163 514 163 514 209.5 530 c 128,-1,47
 256 546 256 546 320 546 c 0,48,49
 364 546 364 546 404 538 c 128,-1,50
 444 530 444 530 487 512 c 1,51,-1
 460 442 l 1,52,53
 420 459 420 459 386.5 465 c 128,-1,54
 353 471 353 471 320 471 c 0,55,56
 258 471 258 471 229.5 455 c 128,-1,57
 201 439 201 439 201 405 c 0,58,59
 201 383 201 383 213.5 368 c 128,-1,60
 226 353 226 353 254.5 339 c 128,-1,61
 283 325 283 325 330 305 c 0,62,63
 383 283 383 283 420 264 c 128,-1,64
 457 245 457 245 476 218.5 c 128,-1,65
 495 192 495 192 495 146 c 0,66,67
 495 95 495 95 470.5 60.5 c 128,-1,68
 446 26 446 26 398 8 c 128,-1,69
 350 -10 350 -10 279 -10 c 0,26,27
EndSplineSet
Substitution2: "'c2sc' Capitals to Small Capitals lookup 34 subtable" s.sc
Substitution2: "'aalt' Access All Alternates lookup 0 subtable" s.sc
EndChar

StartChar: T
Encoding: 84 84 54
Width: 600
GlyphClass: 2
Flags: W
AnchorPoint: "Anchor-2" 303 528 basechar 0
AnchorPoint: "Anchor-1" 303 0 basechar 0
LayerCount: 2
Fore
SplineSet
257 0 m 1,0,-1
 257 465 l 1,1,-1
 68 465 l 1,2,-1
 68 537 l 1,3,-1
 531 537 l 1,4,-1
 531 465 l 1,5,-1
 341 465 l 1,6,-1
 341 0 l 1,7,-1
 257 0 l 1,0,-1
EndSplineSet
Substitution2: "'c2sc' Capitals to Small Capitals lookup 34 subtable" t.sc
Substitution2: "'aalt' Access All Alternates lookup 0 subtable" t.sc
EndChar

StartChar: U
Encoding: 85 85 55
Width: 600
GlyphClass: 2
Flags: W
AnchorPoint: "Anchor-2" 300 536 basechar 0
AnchorPoint: "Anchor-1" 300 0 basechar 0
LayerCount: 2
Fore
SplineSet
298 -7 m 0,0,1
 228 -7 228 -7 180 18 c 128,-1,2
 132 43 132 43 107.5 88 c 128,-1,3
 83 133 83 133 83 193 c 2,4,-1
 83 536 l 1,5,-1
 172 536 l 1,6,-1
 172 191 l 2,7,8
 172 130 172 130 204 97 c 128,-1,9
 236 64 236 64 301 64 c 0,10,11
 369 64 369 64 399 100 c 128,-1,12
 429 136 429 136 429 191 c 2,13,-1
 429 536 l 1,14,-1
 517 536 l 1,15,-1
 517 191 l 2,16,17
 517 135 517 135 493.5 90 c 128,-1,18
 470 45 470 45 421.5 19 c 128,-1,19
 373 -7 373 -7 298 -7 c 0,0,1
EndSplineSet
Substitution2: "'c2sc' Capitals to Small Capitals lookup 34 subtable" u.sc
Substitution2: "'aalt' Access All Alternates lookup 0 subtable" u.sc
EndChar

StartChar: V
Encoding: 86 86 56
Width: 600
GlyphClass: 2
Flags: W
AnchorPoint: "Anchor-3" 580 536 basechar 0
AnchorPoint: "Anchor-2" 300 536 basechar 0
AnchorPoint: "Anchor-1" 300 0 basechar 0
LayerCount: 2
Fore
SplineSet
243 0 m 1,0,-1
 45 536 l 1,1,-1
 137 536 l 1,2,-1
 249 218 l 2,3,4
 257 197 257 197 265 174 c 128,-1,5
 273 151 273 151 281.5 127 c 128,-1,6
 290 103 290 103 298 76 c 1,7,-1
 301 76 l 1,8,9
 310 103 310 103 318.5 127.5 c 128,-1,10
 327 152 327 152 335.5 174.5 c 128,-1,11
 344 197 344 197 351 218 c 2,12,-1
 460 536 l 1,13,-1
 554 536 l 1,14,-1
 354 0 l 1,15,-1
 243 0 l 1,0,-1
EndSplineSet
Substitution2: "'c2sc' Capitals to Small Capitals lookup 34 subtable" v.sc
Substitution2: "'aalt' Access All Alternates lookup 0 subtable" v.sc
EndChar

StartChar: X
Encoding: 88 88 58
Width: 600
GlyphClass: 2
Flags: W
AnchorPoint: "Anchor-3" 580 536 basechar 0
AnchorPoint: "Anchor-2" 300 536 basechar 0
AnchorPoint: "Anchor-1" 300 0 basechar 0
LayerCount: 2
Fore
SplineSet
45 0 m 1,0,-1
 248 274 l 1,1,-1
 55 536 l 1,2,-1
 156 536 l 1,3,-1
 300 335 l 1,4,-1
 444 536 l 1,5,-1
 545 536 l 1,6,-1
 351 274 l 1,7,-1
 554 0 l 1,8,-1
 453 0 l 1,9,-1
 300 213 l 1,10,-1
 146 0 l 1,11,-1
 45 0 l 1,0,-1
EndSplineSet
Substitution2: "'c2sc' Capitals to Small Capitals lookup 34 subtable" x.sc
Substitution2: "'aalt' Access All Alternates lookup 0 subtable" x.sc
EndChar

StartChar: Y
Encoding: 89 89 59
Width: 600
GlyphClass: 2
Flags: W
AnchorPoint: "Anchor-2" 300 536 basechar 0
AnchorPoint: "Anchor-1" 300 0 basechar 0
LayerCount: 2
Fore
SplineSet
257 0 m 1,0,-1
 257 219 l 1,1,-1
 38 536 l 1,2,-1
 143 536 l 1,3,-1
 301 294 l 1,4,-1
 458 536 l 1,5,-1
 562 536 l 1,6,-1
 345 219 l 1,7,-1
 345 0 l 1,8,-1
 257 0 l 1,0,-1
EndSplineSet
Substitution2: "'c2sc' Capitals to Small Capitals lookup 34 subtable" y.sc
Substitution2: "'aalt' Access All Alternates lookup 0 subtable" y.sc
EndChar

StartChar: Z
Encoding: 90 90 60
Width: 600
GlyphClass: 2
Flags: W
AnchorPoint: "Anchor-3" 580 536 basechar 0
AnchorPoint: "Anchor-2" 300 536 basechar 0
AnchorPoint: "Anchor-1" 300 0 basechar 0
LayerCount: 2
Fore
SplineSet
129 243 m 1,0,-1
 129 313 l 1,1,-1
 486 313 l 1,2,-1
 486 243 l 1,3,-1
 129 243 l 1,0,-1
90 0 m 1,4,-1
 90 61 l 1,5,-1
 405 467 l 1,6,-1
 106 467 l 1,7,-1
 106 536 l 1,8,-1
 502 536 l 1,9,-1
 502 465 l 1,10,-1
 197 76 l 1,11,-1
 510 76 l 1,12,-1
 510 0 l 1,13,-1
 90 0 l 1,4,-1
EndSplineSet
Substitution2: "'c2sc' Capitals to Small Capitals lookup 34 subtable" z.sc
Substitution2: "'aalt' Access All Alternates lookup 0 subtable" z.sc
EndChar

StartChar: bracketleft
Encoding: 91 91 61
Width: 600
Flags: W
LayerCount: 2
Fore
SplineSet
240 -158 m 1,0,-1
 240 714 l 1,1,-1
 465 714 l 1,2,-1
 465 642 l 1,3,-1
 326 642 l 1,4,-1
 326 -86 l 1,5,-1
 465 -86 l 1,6,-1
 465 -158 l 1,7,-1
 240 -158 l 1,0,-1
EndSplineSet
Substitution2: "'smcp' Lowercase to Small Capitals lookup 35 subtable" bracketleft.sc
Substitution2: "'c2sc' Capitals to Small Capitals lookup 34 subtable" bracketleft.sc
Substitution2: "'aalt' Access All Alternates lookup 0 subtable" bracketleft.sc
EndChar

StartChar: backslash
Encoding: 92 92 62
Width: 600
Flags: W
LayerCount: 2
Fore
SplineSet
480 0 m 1,0,-1
 394 0 l 1,1,-1
 120 714 l 1,2,-1
 206 714 l 1,3,-1
 480 0 l 1,0,-1
EndSplineSet
EndChar

StartChar: bracketright
Encoding: 93 93 63
Width: 600
Flags: W
LayerCount: 2
Fore
SplineSet
360 714 m 1,0,-1
 360 -158 l 1,1,-1
 135 -158 l 1,2,-1
 135 -86 l 1,3,-1
 274 -86 l 1,4,-1
 274 642 l 1,5,-1
 135 642 l 1,6,-1
 135 714 l 1,7,-1
 360 714 l 1,0,-1
EndSplineSet
Substitution2: "'smcp' Lowercase to Small Capitals lookup 35 subtable" bracketright.sc
Substitution2: "'c2sc' Capitals to Small Capitals lookup 34 subtable" bracketright.sc
Substitution2: "'aalt' Access All Alternates lookup 0 subtable" bracketright.sc
EndChar

StartChar: asciicircum
Encoding: 94 94 64
Width: 600
Flags: W
LayerCount: 2
Fore
SplineSet
50 267 m 1,0,-1
 264 719 l 1,1,-1
 314 719 l 1,2,-1
 550 267 l 1,3,-1
 472 267 l 1,4,-1
 290 626 l 1,5,-1
 128 267 l 1,6,-1
 50 267 l 1,0,-1
EndSplineSet
EndChar

StartChar: underscore
Encoding: 95 95 65
Width: 600
Flags: W
LayerCount: 2
Fore
SplineSet
0 -154 m 1,0,-1
 0 -74 l 1,1,-1
 600 -74 l 1,2,-1
 600 -154 l 1,3,-1
 0 -154 l 1,0,-1
EndSplineSet
EndChar

StartChar: grave
Encoding: 96 96 66
Width: 600
Flags: W
LayerCount: 2
Fore
SplineSet
331 606 m 1,0,1
 314 620 314 620 293 639.5 c 128,-1,2
 272 659 272 659 251.5 680.5 c 128,-1,3
 231 702 231 702 214.5 722 c 128,-1,4
 198 742 198 742 189 756 c 1,5,-1
 189 766 l 1,6,-1
 294 766 l 1,7,8
 305 744 305 744 321.5 716.5 c 128,-1,9
 338 689 338 689 356.5 663 c 128,-1,10
 375 637 375 637 390 618 c 1,11,-1
 390 606 l 1,12,-1
 331 606 l 1,0,1
EndSplineSet
EndChar

StartChar: a
Encoding: 97 97 67
Width: 600
GlyphClass: 2
Flags: W
AnchorPoint: "Anchor-3" 580 536 basechar 0
AnchorPoint: "Anchor-2" 305 536 basechar 0
AnchorPoint: "Anchor-1" 300 0 basechar 0
AnchorPoint: "Anchor-0" 540 10 basechar 0
LayerCount: 2
Fore
SplineSet
246 -10 m 0,0,1
 167 -10 167 -10 118.5 29 c 128,-1,2
 70 68 70 68 70 147 c 0,3,4
 70 205 70 205 98 243.5 c 128,-1,5
 126 282 126 282 180.5 301.5 c 128,-1,6
 235 321 235 321 313 323 c 2,7,-1
 428 326 l 1,8,-1
 428 348 l 2,9,10
 428 420 428 420 392 446.5 c 128,-1,11
 356 473 356 473 295 473 c 0,12,13
 252 473 252 473 213 462 c 128,-1,14
 174 451 174 451 139 431 c 1,15,-1
 108 499 l 1,16,17
 146 518 146 518 192.5 532 c 128,-1,18
 239 546 239 546 300 546 c 0,19,20
 401 546 401 546 455.5 500.5 c 128,-1,21
 510 455 510 455 510 359 c 2,22,-1
 510 0 l 1,23,-1
 438 0 l 1,24,-1
 428 74 l 1,25,-1
 424 74 l 1,26,27
 402 46 402 46 375.5 27.5 c 128,-1,28
 349 9 349 9 317 -0.5 c 128,-1,29
 285 -10 285 -10 246 -10 c 0,0,1
261 63 m 0,30,31
 306 63 306 63 344 79.5 c 128,-1,32
 382 96 382 96 405 129.5 c 128,-1,33
 428 163 428 163 428 214 c 2,34,-1
 428 262 l 1,35,-1
 332 259 l 2,36,37
 268 257 268 257 229 243.5 c 128,-1,38
 190 230 190 230 172.5 206.5 c 128,-1,39
 155 183 155 183 155 150 c 0,40,41
 155 104 155 104 184 83.5 c 128,-1,42
 213 63 213 63 261 63 c 0,30,31
EndSplineSet
Substitution2: "'smcp' Lowercase to Small Capitals lookup 35 subtable" a.sc
Substitution2: "Single Substitution lookup 32 subtable" ordfeminine
AlternateSubs2: "'aalt' Access All Alternates lookup 1 subtable" ordfeminine a.sc
EndChar

StartChar: b
Encoding: 98 98 68
Width: 600
GlyphClass: 2
Flags: W
AnchorPoint: "Anchor-2" 300 536 basechar 0
AnchorPoint: "Anchor-1" 300 0 basechar 0
LayerCount: 2
Fore
SplineSet
130 0 m 1,0,-1
 130 536 l 1,1,-1
 215 536 l 1,2,-1
 215 316 l 1,3,-1
 351 316 l 2,4,5
 447 316 447 316 495.5 277.5 c 128,-1,6
 544 239 544 239 544 162 c 0,7,8
 544 111 544 111 523 74.5 c 128,-1,9
 502 38 502 38 459 19 c 128,-1,10
 416 0 416 0 351 0 c 2,11,-1
 130 0 l 1,0,-1
348 68 m 2,12,13
 399 68 399 68 429.5 90 c 128,-1,14
 460 112 460 112 460 158 c 0,15,16
 460 205 460 205 431 226 c 128,-1,17
 402 247 402 247 347 247 c 2,18,-1
 215 247 l 1,19,-1
 215 68 l 1,20,-1
 348 68 l 2,12,13
EndSplineSet
Substitution2: "'smcp' Lowercase to Small Capitals lookup 35 subtable" b.sc
Substitution2: "'aalt' Access All Alternates lookup 0 subtable" b.sc
EndChar

StartChar: c
Encoding: 99 99 69
Width: 600
GlyphClass: 2
Flags: W
LayerCount: 2
Fore
SplineSet
295 90 m 1,0,1
 233 99 233 99 187 129 c 128,-1,2
 141 159 141 159 115.5 216 c 128,-1,3
 90 273 90 273 90 362 c 0,4,5
 90 449 90 449 115.5 507.5 c 128,-1,6
 141 566 141 566 187.5 598.5 c 128,-1,7
 234 631 234 631 295 640 c 1,8,-1
 295 724 l 1,9,-1
 363 724 l 1,10,-1
 363 644 l 1,11,12
 404 643 404 643 444.5 634.5 c 128,-1,13
 485 626 485 626 510 615 c 1,14,-1
 484 542 l 1,15,16
 458 552 458 552 423 560 c 128,-1,17
 388 568 388 568 350 568 c 0,18,19
 292 568 292 568 254.5 545.5 c 128,-1,20
 217 523 217 523 198.5 477.5 c 128,-1,21
 180 432 180 432 180 363 c 256,22,23
 180 294 180 294 199 250 c 128,-1,24
 218 206 218 206 255 185 c 128,-1,25
 292 164 292 164 346 164 c 0,26,27
 393 164 393 164 431.5 172.5 c 128,-1,28
 470 181 470 181 501 194 c 1,29,-1
 501 117 l 1,30,31
 474 104 474 104 439.5 96.5 c 128,-1,32
 405 89 405 89 362 87 c 1,33,-1
 362 -10 l 1,34,-1
 295 -10 l 1,35,-1
 295 90 l 1,0,1
EndSplineSet
Substitution2: "'smcp' Lowercase to Small Capitals lookup 35 subtable" c.sc
Substitution2: "'aalt' Access All Alternates lookup 0 subtable" c.sc
EndChar

StartChar: d
Encoding: 100 100 70
Width: 600
GlyphClass: 2
Flags: W
AnchorPoint: "Anchor-4" 300 268 basechar 0
AnchorPoint: "Anchor-3" 580 760 basechar 0
AnchorPoint: "Anchor-2" 300 760 basechar 0
AnchorPoint: "Anchor-1" 300 0 basechar 0
LayerCount: 2
Fore
SplineSet
274 -10 m 0,0,1
 225 -10 225 -10 184.5 7 c 128,-1,2
 144 24 144 24 115 59 c 128,-1,3
 86 94 86 94 70.5 147 c 128,-1,4
 55 200 55 200 55 271 c 0,5,6
 55 360 55 360 80.5 421.5 c 128,-1,7
 106 483 106 483 157 514.5 c 128,-1,8
 208 546 208 546 284 546 c 0,9,10
 321 546 321 546 349.5 536 c 128,-1,11
 378 526 378 526 398.5 508.5 c 128,-1,12
 419 491 419 491 431 468 c 1,13,-1
 437 468 l 1,14,15
 436 478 436 478 434.5 491.5 c 128,-1,16
 433 505 433 505 432 519.5 c 128,-1,17
 431 534 431 534 431 547 c 2,18,-1
 431 760 l 1,19,-1
 520 760 l 1,20,-1
 520 0 l 1,21,-1
 446 0 l 1,22,-1
 436 72 l 1,23,-1
 432 72 l 1,24,25
 417 48 417 48 395.5 29.5 c 128,-1,26
 374 11 374 11 344.5 0.5 c 128,-1,27
 315 -10 315 -10 274 -10 c 0,0,1
291 63 m 0,28,29
 362 63 362 63 396.5 112.5 c 128,-1,30
 431 162 431 162 431 247 c 2,31,-1
 431 267 l 2,32,33
 431 326 431 326 418 372.5 c 128,-1,34
 405 419 405 419 375 446 c 128,-1,35
 345 473 345 473 294 473 c 0,36,37
 224 473 224 473 185.5 421 c 128,-1,38
 147 369 147 369 147 262 c 0,39,40
 147 163 147 163 182.5 113 c 128,-1,41
 218 63 218 63 291 63 c 0,28,29
EndSplineSet
Substitution2: "'smcp' Lowercase to Small Capitals lookup 35 subtable" d.sc
Substitution2: "'aalt' Access All Alternates lookup 0 subtable" d.sc
EndChar

StartChar: e
Encoding: 101 101 71
Width: 600
GlyphClass: 2
Flags: W
AnchorPoint: "Anchor-3" 580 536 basechar 0
AnchorPoint: "Anchor-2" 304 536 basechar 0
AnchorPoint: "Anchor-1" 310 0 basechar 0
AnchorPoint: "Anchor-0" 306 10 basechar 0
LayerCount: 2
Fore
SplineSet
337 -10 m 0,0,1
 251 -10 251 -10 189 22 c 128,-1,2
 127 54 127 54 93.5 115.5 c 128,-1,3
 60 177 60 177 60 266 c 0,4,5
 60 354 60 354 92 416.5 c 128,-1,6
 124 479 124 479 181 512.5 c 128,-1,7
 238 546 238 546 314 546 c 0,8,9
 384 546 384 546 434.5 515 c 128,-1,10
 485 484 485 484 512.5 427.5 c 128,-1,11
 540 371 540 371 540 292 c 2,12,-1
 540 251 l 1,13,-1
 151 251 l 1,14,15
 153 181 153 181 177.5 140 c 128,-1,16
 202 99 202 99 244.5 81.5 c 128,-1,17
 287 64 287 64 343 64 c 0,18,19
 387 64 387 64 430 76 c 128,-1,20
 473 88 473 88 516 108 c 1,21,-1
 516 28 l 1,22,23
 470 8 470 8 424 -1 c 128,-1,24
 378 -10 378 -10 337 -10 c 0,0,1
450 323 m 1,25,26
 448 370 448 370 432 403.5 c 128,-1,27
 416 437 416 437 386.5 455 c 128,-1,28
 357 473 357 473 314 473 c 0,29,30
 247 473 247 473 205.5 432.5 c 128,-1,31
 164 392 164 392 153 323 c 1,32,-1
 450 323 l 1,25,26
EndSplineSet
Substitution2: "'smcp' Lowercase to Small Capitals lookup 35 subtable" e.sc
Substitution2: "'aalt' Access All Alternates lookup 0 subtable" e.sc
EndChar

StartChar: f
Encoding: 102 102 72
Width: 600
GlyphClass: 2
Flags: W
AnchorPoint: "Anchor-3" 620 765 basechar 0
AnchorPoint: "Anchor-2" 406 765 basechar 0
AnchorPoint: "Anchor-1" 300 0 basechar 0
LayerCount: 2
Fore
SplineSet
241 0 m 1,0,-1
 241 461 l 1,1,-1
 66 461 l 1,2,-1
 66 523 l 1,3,-1
 241 536 l 1,4,-1
 241 597 l 2,5,6
 241 661 241 661 265.5 697.5 c 128,-1,7
 290 734 290 734 334 749.5 c 128,-1,8
 378 765 378 765 436 765 c 0,9,10
 480 765 480 765 513 759 c 128,-1,11
 546 753 546 753 570 745 c 1,12,-1
 550 676 l 1,13,14
 530 682 530 682 500 686.5 c 128,-1,15
 470 691 470 691 441 691 c 0,16,17
 389 691 389 691 360 669 c 128,-1,18
 331 647 331 647 331 585 c 2,19,-1
 331 536 l 1,20,-1
 533 536 l 1,21,-1
 533 461 l 1,22,-1
 331 461 l 1,23,-1
 331 0 l 1,24,-1
 241 0 l 1,0,-1
EndSplineSet
Substitution2: "'smcp' Lowercase to Small Capitals lookup 35 subtable" f.sc
Substitution2: "'aalt' Access All Alternates lookup 0 subtable" f.sc
EndChar

StartChar: g
Encoding: 103 103 73
Width: 600
GlyphClass: 2
Flags: W
AnchorPoint: "Anchor-3" 580 536 basechar 0
AnchorPoint: "Anchor-2" 300 536 basechar 0
AnchorPoint: "Anchor-1" 300 -245 basechar 0
LayerCount: 2
Fore
SplineSet
276 -245 m 0,0,1
 221 -245 221 -245 172.5 -234.5 c 128,-1,2
 124 -224 124 -224 83 -207 c 1,3,-1
 83 -127 l 1,4,5
 123 -150 123 -150 175.5 -161.5 c 128,-1,6
 228 -173 228 -173 273 -173 c 0,7,8
 364 -173 364 -173 400 -130.5 c 128,-1,9
 436 -88 436 -88 436 -14 c 2,10,-1
 436 5 l 2,11,12
 436 17 436 17 436.5 28 c 128,-1,13
 437 39 437 39 439 62 c 1,14,-1
 435 62 l 1,15,16
 407 21 407 21 369.5 5.5 c 128,-1,17
 332 -10 332 -10 279 -10 c 0,18,19
 173 -10 173 -10 114 62.5 c 128,-1,20
 55 135 55 135 55 265 c 0,21,22
 55 396 55 396 113.5 471 c 128,-1,23
 172 546 172 546 274 546 c 0,24,25
 328 546 328 546 365 528.5 c 128,-1,26
 402 511 402 511 431 470 c 1,27,-1
 436 470 l 1,28,-1
 448 536 l 1,29,-1
 520 536 l 1,30,-1
 520 -14 l 2,31,32
 520 -90 520 -90 494 -141.5 c 128,-1,33
 468 -193 468 -193 414 -219 c 128,-1,34
 360 -245 360 -245 276 -245 c 0,0,1
296 63 m 0,35,36
 329 63 329 63 355.5 73.5 c 128,-1,37
 382 84 382 84 400.5 106.5 c 128,-1,38
 419 129 419 129 429 163.5 c 128,-1,39
 439 198 439 198 439 246 c 2,40,-1
 439 267 l 2,41,42
 439 340 439 340 421.5 385.5 c 128,-1,43
 404 431 404 431 371 452 c 128,-1,44
 338 473 338 473 293 473 c 0,45,46
 217 473 217 473 182 419.5 c 128,-1,47
 147 366 147 366 147 268 c 0,48,49
 147 168 147 168 183.5 115.5 c 128,-1,50
 220 63 220 63 296 63 c 0,35,36
EndSplineSet
Substitution2: "'smcp' Lowercase to Small Capitals lookup 35 subtable" g.sc
Substitution2: "'aalt' Access All Alternates lookup 0 subtable" g.sc
EndChar

StartChar: h
Encoding: 104 104 74
Width: 600
GlyphClass: 2
Flags: W
AnchorPoint: "Anchor-4" 300 268 basechar 0
AnchorPoint: "Anchor-3" 580 760 basechar 0
AnchorPoint: "Anchor-2" 126 760 basechar 0
AnchorPoint: "Anchor-1" 300 0 basechar 0
LayerCount: 2
Fore
SplineSet
80 0 m 1,0,-1
 80 760 l 1,1,-1
 170 760 l 1,2,-1
 170 544 l 2,3,4
 170 525 170 525 168.5 496 c 128,-1,5
 167 467 167 467 166 450 c 1,6,-1
 171 450 l 1,7,8
 188 483 188 483 213.5 504 c 128,-1,9
 239 525 239 525 271 535.5 c 128,-1,10
 303 546 303 546 339 546 c 0,11,12
 422 546 422 546 473.5 499.5 c 128,-1,13
 525 453 525 453 525 350 c 2,14,-1
 525 0 l 1,15,-1
 435 0 l 1,16,-1
 435 332 l 2,17,18
 435 405 435 405 404 439 c 128,-1,19
 373 473 373 473 316 473 c 0,20,21
 272 473 272 473 239 450 c 128,-1,22
 206 427 206 427 188 383.5 c 128,-1,23
 170 340 170 340 170 278 c 2,24,-1
 170 0 l 1,25,-1
 80 0 l 1,0,-1
EndSplineSet
Substitution2: "'smcp' Lowercase to Small Capitals lookup 35 subtable" h.sc
Substitution2: "'subs' Subscript lookup 22 subtable" uni2095
AlternateSubs2: "'aalt' Access All Alternates lookup 1 subtable" h.sc uni2095
EndChar

StartChar: i
Encoding: 105 105 75
Width: 600
GlyphClass: 2
Flags: W
AnchorPoint: "Anchor-4" 320 283 basechar 0
AnchorPoint: "Anchor-3" 498 760 basechar 0
AnchorPoint: "Anchor-2" 307 760 basechar 0
AnchorPoint: "Anchor-1" 321 0 basechar 0
LayerCount: 2
Fore
SplineSet
80 0 m 1,0,-1
 80 60 l 1,1,-1
 271 75 l 1,2,-1
 271 461 l 1,3,-1
 96 474 l 1,4,-1
 96 536 l 1,5,-1
 361 536 l 1,6,-1
 361 75 l 1,7,-1
 540 60 l 1,8,-1
 540 0 l 1,9,-1
 80 0 l 1,0,-1
307 633 m 256,10,11
 281 633 281 633 262.5 649 c 128,-1,12
 244 665 244 665 244 696 c 0,13,14
 244 729 244 729 262.5 744.5 c 128,-1,15
 281 760 281 760 307 760 c 256,16,17
 333 760 333 760 351.5 744.5 c 128,-1,18
 370 729 370 729 370 696 c 0,19,20
 370 665 370 665 351.5 649 c 128,-1,21
 333 633 333 633 307 633 c 256,10,11
EndSplineSet
Substitution2: "'smcp' Lowercase to Small Capitals lookup 35 subtable" i.sc
Substitution2: "Single Substitution lookup 5 subtable" dotlessi
Substitution2: "Single Substitution lookup 4 subtable" dotlessi
AlternateSubs2: "'aalt' Access All Alternates lookup 1 subtable" dotlessi i.sc
EndChar

StartChar: j
Encoding: 106 106 76
Width: 600
GlyphClass: 2
Flags: W
AnchorPoint: "Anchor-3" 580 536 basechar 0
AnchorPoint: "Anchor-2" 310 536 basechar 0
AnchorPoint: "Anchor-1" 310 0 basechar 0
LayerCount: 2
Fore
SplineSet
304 606 m 4,0,1
 255 606 255 606 225 634 c 132,-1,2
 195 662 195 662 195 712 c 260,3,4
 195 762 195 762 225 789.5 c 132,-1,5
 255 817 255 817 304 817 c 4,6,7
 351 817 351 817 383 789.5 c 132,-1,8
 415 762 415 762 415 713 c 4,9,10
 415 662 415 662 383.5 634 c 132,-1,11
 352 606 352 606 304 606 c 4,0,1
304 658 m 4,12,13
 328 658 328 658 343 672.5 c 132,-1,14
 358 687 358 687 358 712 c 4,15,16
 358 738 358 738 342.5 752 c 132,-1,17
 327 766 327 766 304 766 c 4,18,19
 282 766 282 766 266.5 752 c 132,-1,20
 251 738 251 738 251 712 c 4,21,22
 251 687 251 687 266 672.5 c 132,-1,23
 281 658 281 658 304 658 c 4,12,13
90 0 m 1,24,-1
 90 61 l 1,25,-1
 405 467 l 1,26,-1
 106 467 l 1,27,-1
 106 536 l 1,28,-1
 502 536 l 1,29,-1
 502 465 l 1,30,-1
 197 76 l 1,31,-1
 510 76 l 1,32,-1
 510 0 l 1,33,-1
 90 0 l 1,24,-1
EndSplineSet
Substitution2: "'smcp' Lowercase to Small Capitals lookup 35 subtable" j.sc
Substitution2: "Single Substitution lookup 5 subtable" uni0237
Substitution2: "Single Substitution lookup 4 subtable" uni0237
AlternateSubs2: "'aalt' Access All Alternates lookup 1 subtable" uni0237 j.sc
EndChar

StartChar: k
Encoding: 107 107 77
Width: 600
GlyphClass: 2
Flags: W
AnchorPoint: "Anchor-3" 500 860 basechar 0
AnchorPoint: "Anchor-2" 340 760 basechar 0
AnchorPoint: "Anchor-1" 339 0 basechar 0
LayerCount: 2
Fore
SplineSet
105 0 m 1,0,-1
 105 760 l 1,1,-1
 195 760 l 1,2,-1
 195 394 l 2,3,4
 195 373 195 373 194 347 c 128,-1,5
 193 321 193 321 191.5 294 c 128,-1,6
 190 267 190 267 188 243 c 1,7,-1
 190 243 l 1,8,9
 209 268 209 268 226.5 288.5 c 128,-1,10
 244 309 244 309 263 331 c 2,11,-1
 448 536 l 1,12,-1
 556 536 l 1,13,-1
 343 305 l 1,14,-1
 570 0 l 1,15,-1
 466 0 l 1,16,-1
 283 252 l 1,17,-1
 195 167 l 1,18,-1
 195 0 l 1,19,-1
 105 0 l 1,0,-1
EndSplineSet
Substitution2: "'smcp' Lowercase to Small Capitals lookup 35 subtable" k.sc
Substitution2: "'subs' Subscript lookup 22 subtable" uni2096
AlternateSubs2: "'aalt' Access All Alternates lookup 1 subtable" k.sc uni2096
EndChar

StartChar: l
Encoding: 108 108 78
Width: 600
GlyphClass: 2
Flags: W
AnchorPoint: "Anchor-4" 322 387 basechar 0
AnchorPoint: "Anchor-3" 493 760 basechar 0
AnchorPoint: "Anchor-2" 300 760 basechar 0
AnchorPoint: "Anchor-1" 322 0 basechar 0
LayerCount: 2
Fore
SplineSet
80 0 m 1,0,-1
 80 60 l 1,1,-1
 276 75 l 1,2,-1
 276 685 l 1,3,-1
 86 698 l 1,4,-1
 86 760 l 1,5,-1
 366 760 l 1,6,-1
 366 75 l 1,7,-1
 540 60 l 1,8,-1
 540 0 l 1,9,-1
 80 0 l 1,0,-1
EndSplineSet
Substitution2: "'smcp' Lowercase to Small Capitals lookup 35 subtable" l.sc
Substitution2: "'subs' Subscript lookup 22 subtable" uni2097
AlternateSubs2: "'aalt' Access All Alternates lookup 1 subtable" l.sc uni2097
EndChar

StartChar: m
Encoding: 109 109 79
Width: 600
GlyphClass: 2
Flags: W
AnchorPoint: "Anchor-3" 580 536 basechar 0
AnchorPoint: "Anchor-2" 326 536 basechar 0
AnchorPoint: "Anchor-1" 305 0 basechar 0
LayerCount: 2
Fore
SplineSet
50 0 m 1,0,-1
 50 536 l 1,1,-1
 112 536 l 1,2,-1
 125 477 l 1,3,-1
 130 477 l 1,4,5
 143 504 143 504 158 519 c 128,-1,6
 173 534 173 534 190.5 540 c 128,-1,7
 208 546 208 546 229 546 c 0,8,9
 270 546 270 546 292.5 526.5 c 128,-1,10
 315 507 315 507 327 469 c 1,11,-1
 330 469 l 1,12,13
 347 506 347 506 372.5 526 c 128,-1,14
 398 546 398 546 440 546 c 0,15,16
 481 546 481 546 505.5 525 c 128,-1,17
 530 504 530 504 540.5 461 c 128,-1,18
 551 418 551 418 551 350 c 2,19,-1
 551 0 l 1,20,-1
 471 0 l 1,21,-1
 471 335 l 2,22,23
 471 377 471 377 467.5 406.5 c 128,-1,24
 464 436 464 436 453 452 c 128,-1,25
 442 468 442 468 417 468 c 0,26,27
 393 468 393 468 376 445.5 c 128,-1,28
 359 423 359 423 350 379 c 128,-1,29
 341 335 341 335 341 268 c 2,30,-1
 341 0 l 1,31,-1
 261 0 l 1,32,-1
 261 335 l 2,33,34
 261 378 261 378 256 407.5 c 128,-1,35
 251 437 251 437 238.5 452.5 c 128,-1,36
 226 468 226 468 201 468 c 0,37,38
 175 468 175 468 159 443.5 c 128,-1,39
 143 419 143 419 136.5 374.5 c 128,-1,40
 130 330 130 330 130 268 c 2,41,-1
 130 0 l 1,42,-1
 50 0 l 1,0,-1
EndSplineSet
Substitution2: "'smcp' Lowercase to Small Capitals lookup 35 subtable" m.sc
Substitution2: "'subs' Subscript lookup 22 subtable" uni2098
AlternateSubs2: "'aalt' Access All Alternates lookup 1 subtable" m.sc uni2098
EndChar

StartChar: n
Encoding: 110 110 80
Width: 600
GlyphClass: 2
Flags: W
AnchorPoint: "Anchor-3" 580 536 basechar 0
AnchorPoint: "Anchor-2" 312 536 basechar 0
AnchorPoint: "Anchor-1" 306 0 basechar 0
LayerCount: 2
Fore
SplineSet
80 0 m 1,0,-1
 80 536 l 1,1,-1
 152 536 l 1,2,-1
 165 457 l 1,3,-1
 170 457 l 1,4,5
 186 488 186 488 211.5 507.5 c 128,-1,6
 237 527 237 527 271 536.5 c 128,-1,7
 305 546 305 546 345 546 c 0,8,9
 426 546 426 546 475.5 500.5 c 128,-1,10
 525 455 525 455 525 358 c 2,11,-1
 525 0 l 1,12,-1
 435 0 l 1,13,-1
 435 342 l 2,14,15
 435 410 435 410 407.5 441.5 c 128,-1,16
 380 473 380 473 319 473 c 0,17,18
 237 473 237 473 203.5 421 c 128,-1,19
 170 369 170 369 170 275 c 2,20,-1
 170 0 l 1,21,-1
 80 0 l 1,0,-1
EndSplineSet
Substitution2: "'smcp' Lowercase to Small Capitals lookup 35 subtable" n.sc
Substitution2: "'sups' Superscript lookup 23 subtable" uni207F
Substitution2: "'subs' Subscript lookup 22 subtable" uni2099
AlternateSubs2: "'aalt' Access All Alternates lookup 1 subtable" uni207F n.sc uni2099
EndChar

StartChar: o
Encoding: 111 111 81
Width: 600
GlyphClass: 2
Flags: W
AnchorPoint: "Anchor-4" 300 268 basechar 0
AnchorPoint: "Anchor-3" 580 536 basechar 0
AnchorPoint: "Anchor-2" 300 536 basechar 0
AnchorPoint: "Anchor-1" 300 0 basechar 0
AnchorPoint: "Anchor-0" 301 10 basechar 0
LayerCount: 2
Fore
SplineSet
301 -10 m 0,0,1
 249 -10 249 -10 204 7 c 128,-1,2
 159 24 159 24 125.5 59 c 128,-1,3
 92 94 92 94 73.5 146.5 c 128,-1,4
 55 199 55 199 55 270 c 0,5,6
 55 363 55 363 86.5 424 c 128,-1,7
 118 485 118 485 173 515.5 c 128,-1,8
 228 546 228 546 298 546 c 256,9,10
 368 546 368 546 424 515.5 c 128,-1,11
 480 485 480 485 512.5 423.5 c 128,-1,12
 545 362 545 362 545 267 c 0,13,14
 545 197 545 197 526.5 145 c 128,-1,15
 508 93 508 93 475.5 58.5 c 128,-1,16
 443 24 443 24 398.5 7 c 128,-1,17
 354 -10 354 -10 301 -10 c 0,0,1
300 63 m 256,18,19
 352 63 352 63 386 88 c 128,-1,20
 420 113 420 113 437 159.5 c 128,-1,21
 454 206 454 206 454 269 c 0,22,23
 454 333 454 333 437 378.5 c 128,-1,24
 420 424 420 424 385.5 448.5 c 128,-1,25
 351 473 351 473 299 473 c 0,26,27
 221 473 221 473 182.5 418.5 c 128,-1,28
 144 364 144 364 144 269 c 0,29,30
 144 206 144 206 161.5 159.5 c 128,-1,31
 179 113 179 113 213.5 88 c 128,-1,32
 248 63 248 63 300 63 c 256,18,19
EndSplineSet
Substitution2: "'smcp' Lowercase to Small Capitals lookup 35 subtable" o.sc
Substitution2: "Single Substitution lookup 32 subtable" ordmasculine
AlternateSubs2: "'aalt' Access All Alternates lookup 1 subtable" ordmasculine o.sc
EndChar

StartChar: p
Encoding: 112 112 82
Width: 600
GlyphClass: 2
Flags: W
AnchorPoint: "Anchor-3" 580 536 basechar 0
AnchorPoint: "Anchor-2" 310 536 basechar 0
AnchorPoint: "Anchor-1" 310 -240 basechar 0
LayerCount: 2
Fore
SplineSet
80 -240 m 1,0,-1
 80 536 l 1,1,-1
 154 536 l 1,2,-1
 165 463 l 1,3,-1
 169 463 l 1,4,5
 185 489 185 489 207 507.5 c 128,-1,6
 229 526 229 526 259 536 c 128,-1,7
 289 546 289 546 329 546 c 0,8,9
 378 546 378 546 418 528.5 c 128,-1,10
 458 511 458 511 486.5 476 c 128,-1,11
 515 441 515 441 530 389 c 128,-1,12
 545 337 545 337 545 269 c 0,13,14
 545 178 545 178 518.5 115.5 c 128,-1,15
 492 53 492 53 443.5 21.5 c 128,-1,16
 395 -10 395 -10 329 -10 c 0,17,18
 290 -10 290 -10 259.5 1 c 128,-1,19
 229 12 229 12 207 30 c 128,-1,20
 185 48 185 48 169 69 c 1,21,-1
 163 69 l 1,22,23
 166 50 166 50 167.5 29.5 c 128,-1,24
 169 9 169 9 169 -11 c 2,25,-1
 169 -240 l 1,26,-1
 80 -240 l 1,0,-1
310 63 m 0,27,28
 385 63 385 63 419 114.5 c 128,-1,29
 453 166 453 166 453 271 c 0,30,31
 453 374 453 374 419.5 423.5 c 128,-1,32
 386 473 386 473 309 473 c 0,33,34
 236 473 236 473 202.5 425.5 c 128,-1,35
 169 378 169 378 169 289 c 2,36,-1
 169 269 l 2,37,38
 169 174 169 174 199.5 118.5 c 128,-1,39
 230 63 230 63 310 63 c 0,27,28
EndSplineSet
Substitution2: "'smcp' Lowercase to Small Capitals lookup 35 subtable" p.sc
Substitution2: "'subs' Subscript lookup 22 subtable" uni209A
AlternateSubs2: "'aalt' Access All Alternates lookup 1 subtable" p.sc uni209A
EndChar

StartChar: q
Encoding: 113 113 83
Width: 600
GlyphClass: 2
Flags: W
AnchorPoint: "Anchor-2" 300 536 basechar 0
AnchorPoint: "Anchor-1" 300 0 basechar 0
LayerCount: 2
Fore
SplineSet
299 606 m 4,0,1
 250 606 250 606 220 634 c 132,-1,2
 190 662 190 662 190 712 c 260,3,4
 190 762 190 762 220 789.5 c 132,-1,5
 250 817 250 817 299 817 c 4,6,7
 346 817 346 817 378 789.5 c 132,-1,8
 410 762 410 762 410 713 c 4,9,10
 410 662 410 662 378.5 634 c 132,-1,11
 347 606 347 606 299 606 c 4,0,1
299 658 m 4,12,13
 323 658 323 658 338 672.5 c 132,-1,14
 353 687 353 687 353 712 c 4,15,16
 353 738 353 738 337.5 752 c 132,-1,17
 322 766 322 766 299 766 c 4,18,19
 277 766 277 766 261.5 752 c 132,-1,20
 246 738 246 738 246 712 c 4,21,22
 246 687 246 687 261 672.5 c 132,-1,23
 276 658 276 658 299 658 c 4,12,13
105 0 m 1,24,-1
 105 536 l 1,25,-1
 195 536 l 1,26,-1
 195 394 l 2,27,28
 195 373 195 373 194 347 c 128,-1,29
 193 321 193 321 191.5 294 c 128,-1,30
 190 267 190 267 188 243 c 1,31,-1
 190 243 l 1,32,33
 209 268 209 268 226 288.5 c 128,-1,34
 243 309 243 309 263 331 c 2,35,-1
 448 536 l 1,36,-1
 556 536 l 1,37,-1
 343 305 l 1,38,-1
 570 0 l 1,39,-1
 466 0 l 1,40,-1
 283 252 l 1,41,-1
 195 167 l 1,42,-1
 195 0 l 1,43,-1
 105 0 l 1,24,-1
EndSplineSet
Substitution2: "'smcp' Lowercase to Small Capitals lookup 35 subtable" q.sc
Substitution2: "'aalt' Access All Alternates lookup 0 subtable" q.sc
EndChar

StartChar: r
Encoding: 114 114 84
Width: 600
GlyphClass: 2
Flags: W
AnchorPoint: "Anchor-3" 580 536 basechar 0
AnchorPoint: "Anchor-2" 340 536 basechar 0
AnchorPoint: "Anchor-1" 271 0 basechar 0
LayerCount: 2
Fore
SplineSet
62 0 m 1,0,-1
 62 60 l 1,1,-1
 225 75 l 1,2,-1
 225 461 l 1,3,-1
 78 474 l 1,4,-1
 78 536 l 1,5,-1
 297 536 l 1,6,-1
 309 438 l 1,7,-1
 313 438 l 1,8,9
 341 491 341 491 374.5 518.5 c 128,-1,10
 408 546 408 546 463 546 c 0,11,12
 497 546 497 546 523.5 540 c 128,-1,13
 550 534 550 534 572 524 c 1,14,-1
 548 445 l 1,15,16
 532 454 532 454 510 460.5 c 128,-1,17
 488 467 488 467 463 467 c 0,18,19
 420 467 420 467 387 440 c 128,-1,20
 354 413 354 413 335 368 c 128,-1,21
 316 323 316 323 316 269 c 2,22,-1
 316 75 l 1,23,-1
 472 60 l 1,24,-1
 472 0 l 1,25,-1
 62 0 l 1,0,-1
EndSplineSet
Substitution2: "'smcp' Lowercase to Small Capitals lookup 35 subtable" r.sc
Substitution2: "'aalt' Access All Alternates lookup 0 subtable" r.sc
EndChar

StartChar: s
Encoding: 115 115 85
Width: 600
GlyphClass: 2
Flags: W
AnchorPoint: "Anchor-3" 580 536 basechar 0
AnchorPoint: "Anchor-2" 305 536 basechar 0
AnchorPoint: "Anchor-1" 305 0 basechar 0
LayerCount: 2
Fore
SplineSet
279 -10 m 0,0,1
 229 -10 229 -10 183.5 -1 c 128,-1,2
 138 8 138 8 105 24 c 1,3,-1
 105 107 l 1,4,5
 140 91 140 91 182.5 77.5 c 128,-1,6
 225 64 225 64 284 64 c 0,7,8
 350 64 350 64 377.5 84.5 c 128,-1,9
 405 105 405 105 405 144 c 0,10,11
 405 165 405 165 395.5 178.5 c 128,-1,12
 386 192 386 192 359 206 c 128,-1,13
 332 220 332 220 280 242 c 0,14,15
 228 265 228 265 191 285 c 128,-1,16
 154 305 154 305 134 332.5 c 128,-1,17
 114 360 114 360 114 403 c 0,18,19
 114 451 114 451 138.5 482.5 c 128,-1,20
 163 514 163 514 209.5 530 c 128,-1,21
 256 546 256 546 320 546 c 0,22,23
 364 546 364 546 404 538 c 128,-1,24
 444 530 444 530 487 512 c 1,25,-1
 460 442 l 1,26,27
 420 459 420 459 386.5 465 c 128,-1,28
 353 471 353 471 320 471 c 0,29,30
 258 471 258 471 229.5 455 c 128,-1,31
 201 439 201 439 201 405 c 0,32,33
 201 383 201 383 213.5 368 c 128,-1,34
 226 353 226 353 254.5 339 c 128,-1,35
 283 325 283 325 330 305 c 0,36,37
 383 283 383 283 420 264 c 128,-1,38
 457 245 457 245 476 218.5 c 128,-1,39
 495 192 495 192 495 146 c 0,40,41
 495 95 495 95 470.5 60.5 c 128,-1,42
 446 26 446 26 398 8 c 128,-1,43
 350 -10 350 -10 279 -10 c 0,0,1
EndSplineSet
Substitution2: "'smcp' Lowercase to Small Capitals lookup 35 subtable" s.sc
Substitution2: "'subs' Subscript lookup 22 subtable" uni209B
AlternateSubs2: "'aalt' Access All Alternates lookup 1 subtable" s.sc uni209B
EndChar

StartChar: t
Encoding: 116 116 86
Width: 600
GlyphClass: 2
Flags: W
AnchorPoint: "Anchor-4" 252 268 basechar 0
AnchorPoint: "Anchor-3" 490 860 basechar 0
AnchorPoint: "Anchor-2" 255 679 basechar 0
AnchorPoint: "Anchor-1" 374 0 basechar 0
LayerCount: 2
Fore
SplineSet
402 -10 m 0,0,1
 345 -10 345 -10 300 5 c 128,-1,2
 255 20 255 20 228.5 58 c 128,-1,3
 202 96 202 96 202 163 c 2,4,-1
 202 461 l 1,5,-1
 56 461 l 1,6,-1
 56 523 l 1,7,-1
 202 539 l 1,8,-1
 220 679 l 1,9,-1
 292 679 l 1,10,-1
 292 536 l 1,11,-1
 501 536 l 1,12,-1
 501 461 l 1,13,-1
 292 461 l 1,14,-1
 292 180 l 2,15,16
 292 140 292 140 303.5 114 c 128,-1,17
 315 88 315 88 341 75.5 c 128,-1,18
 367 63 367 63 408 63 c 0,19,20
 434 63 434 63 464 68 c 128,-1,21
 494 73 494 73 516 78 c 1,22,-1
 516 6 l 1,23,24
 492 0 492 0 463 -5 c 128,-1,25
 434 -10 434 -10 402 -10 c 0,0,1
EndSplineSet
Substitution2: "'smcp' Lowercase to Small Capitals lookup 35 subtable" t.sc
Substitution2: "'subs' Subscript lookup 22 subtable" uni209C
AlternateSubs2: "'aalt' Access All Alternates lookup 1 subtable" t.sc uni209C
EndChar

StartChar: u
Encoding: 117 117 87
Width: 600
GlyphClass: 2
Flags: W
AnchorPoint: "Anchor-3" 580 536 basechar 0
AnchorPoint: "Anchor-2" 300 536 basechar 0
AnchorPoint: "Anchor-1" 300 0 basechar 0
AnchorPoint: "Anchor-0" 540 10 basechar 0
LayerCount: 2
Fore
SplineSet
261 -10 m 0,0,1
 166 -10 166 -10 120.5 37.5 c 128,-1,2
 75 85 75 85 75 179 c 2,3,-1
 75 536 l 1,4,-1
 165 536 l 1,5,-1
 165 193 l 2,6,7
 165 129 165 129 191.5 96 c 128,-1,8
 218 63 218 63 283 63 c 0,9,10
 339 63 339 63 371 86.5 c 128,-1,11
 403 110 403 110 416.5 154 c 128,-1,12
 430 198 430 198 430 260 c 2,13,-1
 430 536 l 1,14,-1
 520 536 l 1,15,-1
 520 0 l 1,16,-1
 448 0 l 1,17,-1
 435 72 l 1,18,-1
 430 72 l 1,19,20
 411 42 411 42 386 24 c 128,-1,21
 361 6 361 6 330 -2 c 128,-1,22
 299 -10 299 -10 261 -10 c 0,0,1
EndSplineSet
Substitution2: "'smcp' Lowercase to Small Capitals lookup 35 subtable" u.sc
Substitution2: "'aalt' Access All Alternates lookup 0 subtable" u.sc
EndChar

StartChar: v
Encoding: 118 118 88
Width: 600
GlyphClass: 2
Flags: W
AnchorPoint: "Anchor-3" 580 536 basechar 0
AnchorPoint: "Anchor-2" 300 536 basechar 0
AnchorPoint: "Anchor-1" 300 0 basechar 0
LayerCount: 2
Fore
SplineSet
243 0 m 1,0,-1
 45 536 l 1,1,-1
 137 536 l 1,2,-1
 249 218 l 2,3,4
 260 186 260 186 272.5 151 c 128,-1,5
 285 116 285 116 298 76 c 1,6,-1
 301 76 l 1,7,8
 314 116 314 116 327.5 151.5 c 128,-1,9
 341 187 341 187 351 218 c 2,10,-1
 460 536 l 1,11,-1
 554 536 l 1,12,-1
 354 0 l 1,13,-1
 243 0 l 1,0,-1
EndSplineSet
Substitution2: "'smcp' Lowercase to Small Capitals lookup 35 subtable" v.sc
Substitution2: "'aalt' Access All Alternates lookup 0 subtable" v.sc
EndChar

StartChar: w
Encoding: 119 119 89
Width: 600
GlyphClass: 2
Flags: W
AnchorPoint: "Anchor-3" 580 536 basechar 0
AnchorPoint: "Anchor-2" 301 536 basechar 0
AnchorPoint: "Anchor-1" 301 0 basechar 0
LayerCount: 2
Fore
SplineSet
102 0 m 1,0,-1
 16 536 l 1,1,-1
 100 536 l 1,2,-1
 139 271 l 2,3,4
 145 234 145 234 147.5 205 c 128,-1,5
 150 176 150 176 152.5 146 c 128,-1,6
 155 116 155 116 157 75 c 1,7,-1
 160 75 l 1,8,9
 163 92 163 92 168.5 122.5 c 128,-1,10
 174 153 174 153 181.5 188.5 c 128,-1,11
 189 224 189 224 198 254 c 2,12,-1
 250 435 l 1,13,-1
 349 435 l 1,14,-1
 399 254 l 2,15,16
 408 224 408 224 416 189.5 c 128,-1,17
 424 155 424 155 430.5 124.5 c 128,-1,18
 437 94 437 94 439 75 c 1,19,-1
 442 75 l 1,20,21
 445 115 445 115 447 144.5 c 128,-1,22
 449 174 449 174 452 203 c 128,-1,23
 455 232 455 232 461 271 c 2,24,-1
 503 536 l 1,25,-1
 585 536 l 1,26,-1
 497 0 l 1,27,-1
 389 0 l 1,28,-1
 341 188 l 2,29,30
 331 229 331 229 320 270 c 128,-1,31
 309 311 309 311 301 351 c 1,32,-1
 298 351 l 1,33,34
 290 311 290 311 278.5 270 c 128,-1,35
 267 229 267 229 256 188 c 2,36,-1
 207 0 l 1,37,-1
 102 0 l 1,0,-1
EndSplineSet
Substitution2: "'smcp' Lowercase to Small Capitals lookup 35 subtable" w.sc
Substitution2: "'aalt' Access All Alternates lookup 0 subtable" w.sc
EndChar

StartChar: x
Encoding: 120 120 90
Width: 600
GlyphClass: 2
Flags: W
LayerCount: 2
Fore
SplineSet
136 138 m 1,0,-1
 86 187 l 1,1,-1
 250 353 l 1,2,-1
 85 518 l 1,3,-1
 135 568 l 1,4,-1
 300 402 l 1,5,-1
 467 568 l 1,6,-1
 516 519 l 1,7,-1
 350 353 l 1,8,-1
 515 187 l 1,9,-1
 466 138 l 1,10,-1
 299 302 l 1,11,-1
 136 138 l 1,0,-1
EndSplineSet
Substitution2: "'smcp' Lowercase to Small Capitals lookup 35 subtable" x.sc
Substitution2: "'aalt' Access All Alternates lookup 0 subtable" x.sc
EndChar

StartChar: y
Encoding: 121 121 91
Width: 600
GlyphClass: 2
Flags: W
AnchorPoint: "Anchor-3" 580 536 basechar 0
AnchorPoint: "Anchor-2" 300 536 basechar 0
AnchorPoint: "Anchor-1" 300 -245 basechar 0
LayerCount: 2
Fore
SplineSet
136 -245 m 0,0,1
 116 -245 116 -245 97 -242.5 c 128,-1,2
 78 -240 78 -240 64 -237 c 1,3,-1
 64 -168 l 1,4,5
 76 -170 76 -170 92.5 -172 c 128,-1,6
 109 -174 109 -174 125 -174 c 0,7,8
 156 -174 156 -174 176.5 -164 c 128,-1,9
 197 -154 197 -154 212.5 -133 c 128,-1,10
 228 -112 228 -112 241 -78 c 2,11,-1
 270 -5 l 1,12,-1
 45 536 l 1,13,-1
 133 536 l 1,14,-1
 261 221 l 2,15,16
 274 190 274 190 286.5 152 c 128,-1,17
 299 114 299 114 309 79 c 1,18,-1
 312 79 l 1,19,20
 319 104 319 104 327 128.5 c 128,-1,21
 335 153 335 153 342.5 177 c 128,-1,22
 350 201 350 201 357 222 c 2,23,-1
 462 536 l 1,24,-1
 554 536 l 1,25,-1
 329 -70 l 2,26,27
 310 -122 310 -122 287.5 -161.5 c 128,-1,28
 265 -201 265 -201 229.5 -223 c 128,-1,29
 194 -245 194 -245 136 -245 c 0,0,1
EndSplineSet
Substitution2: "'smcp' Lowercase to Small Capitals lookup 35 subtable" y.sc
Substitution2: "'aalt' Access All Alternates lookup 0 subtable" y.sc
EndChar

StartChar: z
Encoding: 122 122 92
Width: 600
GlyphClass: 2
Flags: W
AnchorPoint: "Anchor-3" 580 536 basechar 0
AnchorPoint: "Anchor-2" 310 536 basechar 0
AnchorPoint: "Anchor-1" 310 0 basechar 0
LayerCount: 2
Fore
SplineSet
90 0 m 1,0,-1
 90 61 l 1,1,-1
 405 467 l 1,2,-1
 106 467 l 1,3,-1
 106 536 l 1,4,-1
 502 536 l 1,5,-1
 502 465 l 1,6,-1
 197 76 l 1,7,-1
 510 76 l 1,8,-1
 510 0 l 1,9,-1
 90 0 l 1,0,-1
EndSplineSet
Substitution2: "'smcp' Lowercase to Small Capitals lookup 35 subtable" z.sc
Substitution2: "'aalt' Access All Alternates lookup 0 subtable" z.sc
EndChar

StartChar: braceleft
Encoding: 123 123 93
Width: 600
Flags: W
LayerCount: 2
Fore
SplineSet
460 -158 m 1,0,1
 399 -157 399 -157 354.5 -140 c 128,-1,2
 310 -123 310 -123 286 -87.5 c 128,-1,3
 262 -52 262 -52 262 1 c 2,4,-1
 262 148 l 2,5,6
 262 199 262 199 230.5 220.5 c 128,-1,7
 199 242 199 242 140 242 c 1,8,-1
 140 315 l 1,9,10
 199 316 199 316 230.5 337 c 128,-1,11
 262 358 262 358 262 408 c 2,12,-1
 262 556 l 2,13,14
 262 609 262 609 287 644 c 128,-1,15
 312 679 312 679 357 696.5 c 128,-1,16
 402 714 402 714 460 714 c 1,17,-1
 460 642 l 1,18,19
 426 641 426 641 401 631 c 128,-1,20
 376 621 376 621 362.5 601 c 128,-1,21
 349 581 349 581 349 548 c 2,22,-1
 349 404 l 2,23,24
 349 353 349 353 322 322.5 c 128,-1,25
 295 292 295 292 240 282 c 1,26,-1
 240 276 l 1,27,28
 296 266 296 266 322.5 235.5 c 128,-1,29
 349 205 349 205 349 154 c 2,30,-1
 349 7 l 2,31,32
 349 -42 349 -42 378 -63.5 c 128,-1,33
 407 -85 407 -85 460 -86 c 1,34,-1
 460 -158 l 1,0,1
EndSplineSet
Substitution2: "'smcp' Lowercase to Small Capitals lookup 35 subtable" braceleft.sc
Substitution2: "'c2sc' Capitals to Small Capitals lookup 34 subtable" braceleft.sc
Substitution2: "'aalt' Access All Alternates lookup 0 subtable" braceleft.sc
EndChar

StartChar: bar
Encoding: 124 124 94
Width: 600
Flags: W
LayerCount: 2
Fore
SplineSet
264 -240 m 1,0,-1
 264 760 l 1,1,-1
 337 760 l 1,2,-1
 337 -240 l 1,3,-1
 264 -240 l 1,0,-1
EndSplineSet
EndChar

StartChar: braceright
Encoding: 125 125 95
Width: 600
Flags: W
LayerCount: 2
Fore
SplineSet
140 714 m 1,0,1
 202 714 202 714 246 696.5 c 128,-1,2
 290 679 290 679 314 644 c 128,-1,3
 338 609 338 609 338 555 c 2,4,-1
 338 408 l 2,5,6
 338 357 338 357 369.5 335.5 c 128,-1,7
 401 314 401 314 460 314 c 1,8,-1
 460 241 l 1,9,10
 401 240 401 240 369.5 219 c 128,-1,11
 338 198 338 198 338 148 c 2,12,-1
 338 0 l 2,13,14
 338 -53 338 -53 313 -88 c 128,-1,15
 288 -123 288 -123 243.5 -140.5 c 128,-1,16
 199 -158 199 -158 140 -158 c 1,17,-1
 140 -86 l 1,18,19
 175 -85 175 -85 199.5 -75 c 128,-1,20
 224 -65 224 -65 237.5 -44.5 c 128,-1,21
 251 -24 251 -24 251 8 c 2,22,-1
 251 152 l 2,23,24
 251 203 251 203 278 233.5 c 128,-1,25
 305 264 305 264 360 274 c 1,26,-1
 360 280 l 1,27,28
 305 290 305 290 278 320.5 c 128,-1,29
 251 351 251 351 251 402 c 2,30,-1
 251 549 l 2,31,32
 251 598 251 598 222 619.5 c 128,-1,33
 193 641 193 641 140 642 c 1,34,-1
 140 714 l 1,0,1
EndSplineSet
Substitution2: "'smcp' Lowercase to Small Capitals lookup 35 subtable" braceright.sc
Substitution2: "'c2sc' Capitals to Small Capitals lookup 34 subtable" braceright.sc
Substitution2: "'aalt' Access All Alternates lookup 0 subtable" braceright.sc
EndChar

StartChar: asciitilde
Encoding: 126 126 96
Width: 600
Flags: W
LayerCount: 2
Fore
SplineSet
74 287 m 1,0,1
 77 316 77 316 83 346.5 c 128,-1,2
 89 377 89 377 102 403.5 c 128,-1,3
 115 430 115 430 137.5 446 c 128,-1,4
 160 462 160 462 196 462 c 0,5,6
 219 462 219 462 238.5 454.5 c 128,-1,7
 258 447 258 447 278 432.5 c 128,-1,8
 298 418 298 418 321 396 c 0,9,10
 342 377 342 377 362 361.5 c 128,-1,11
 382 346 382 346 403 346 c 0,12,13
 431 346 431 346 444 376.5 c 128,-1,14
 457 407 457 407 464 462 c 1,15,-1
 524 462 l 1,16,17
 521 436 521 436 514.5 406 c 128,-1,18
 508 376 508 376 495 349 c 128,-1,19
 482 322 482 322 459.5 304.5 c 128,-1,20
 437 287 437 287 402 287 c 0,21,22
 379 287 379 287 358.5 295 c 128,-1,23
 338 303 338 303 319.5 317.5 c 128,-1,24
 301 332 301 332 282 350 c 0,25,26
 259 373 259 373 239 388 c 128,-1,27
 219 403 219 403 196 403 c 0,28,29
 167 403 167 403 152.5 374.5 c 128,-1,30
 138 346 138 346 133 287 c 1,31,-1
 74 287 l 1,0,1
EndSplineSet
EndChar

StartChar: cent
Encoding: 162 162 98
Width: 600
Flags: W
LayerCount: 2
Fore
SplineSet
295 90 m 1,0,1
 233 99 233 99 187 129 c 128,-1,2
 141 159 141 159 115.5 216 c 128,-1,3
 90 273 90 273 90 362 c 0,4,5
 90 449 90 449 115.5 507.5 c 128,-1,6
 141 566 141 566 187.5 598.5 c 128,-1,7
 234 631 234 631 295 640 c 1,8,-1
 295 724 l 1,9,-1
 363 724 l 1,10,-1
 363 644 l 1,11,12
 404 643 404 643 444.5 634.5 c 128,-1,13
 485 626 485 626 510 615 c 1,14,-1
 484 542 l 1,15,16
 458 552 458 552 423 560 c 128,-1,17
 388 568 388 568 350 568 c 0,18,19
 292 568 292 568 254.5 545.5 c 128,-1,20
 217 523 217 523 198.5 477.5 c 128,-1,21
 180 432 180 432 180 363 c 256,22,23
 180 294 180 294 199 250 c 128,-1,24
 218 206 218 206 255 185 c 128,-1,25
 292 164 292 164 346 164 c 0,26,27
 393 164 393 164 431.5 172.5 c 128,-1,28
 470 181 470 181 501 194 c 1,29,-1
 501 117 l 1,30,31
 474 104 474 104 439.5 96.5 c 128,-1,32
 405 89 405 89 362 87 c 1,33,-1
 362 -10 l 1,34,-1
 295 -10 l 1,35,-1
 295 90 l 1,0,1
EndSplineSet
EndChar

StartChar: sterling
Encoding: 163 163 99
Width: 600
Flags: W
AnchorPoint: "Anchor-3" 580 536 basechar 0
AnchorPoint: "Anchor-2" 300 536 basechar 0
AnchorPoint: "Anchor-1" 300 0 basechar 0
LayerCount: 2
Fore
SplineSet
162 242 m 1,0,-1
 162 311 l 1,1,-1
 424 311 l 1,2,-1
 424 242 l 1,3,-1
 162 242 l 1,0,-1
338 -10 m 0,4,5
 260 -10 260 -10 203 18.5 c 128,-1,6
 146 47 146 47 115.5 107.5 c 128,-1,7
 85 168 85 168 85 264 c 0,8,9
 85 367 85 367 118.5 429 c 128,-1,10
 152 491 152 491 211.5 518.5 c 128,-1,11
 271 546 271 546 347 546 c 0,12,13
 394 546 394 546 432.5 536.5 c 128,-1,14
 471 527 471 527 505 509 c 1,15,-1
 478 436 l 1,16,17
 446 453 446 453 416 460.5 c 128,-1,18
 386 468 386 468 351 468 c 0,19,20
 290 468 290 468 251.5 445.5 c 128,-1,21
 213 423 213 423 195 378.5 c 128,-1,22
 177 334 177 334 177 266 c 0,23,24
 177 195 177 195 196 151 c 128,-1,25
 215 107 215 107 253.5 87 c 128,-1,26
 292 67 292 67 348 67 c 0,27,28
 392 67 392 67 431 76.5 c 128,-1,29
 470 86 470 86 499 99 c 1,30,-1
 499 20 l 1,31,32
 469 6 469 6 425 -2 c 128,-1,33
 381 -10 381 -10 338 -10 c 0,4,5
EndSplineSet
EndChar

StartChar: brokenbar
Encoding: 166 166 100
Width: 600
Flags: W
AnchorPoint: "Anchor-2" 300 536 basechar 0
AnchorPoint: "Anchor-1" 300 0 basechar 0
LayerCount: 2
Fore
SplineSet
105 0 m 1,0,-1
 105 536 l 1,1,-1
 195 536 l 1,2,-1
 195 394 l 2,3,4
 195 373 195 373 194 347 c 128,-1,5
 193 321 193 321 191.5 294 c 128,-1,6
 190 267 190 267 188 243 c 1,7,-1
 190 243 l 1,8,9
 209 268 209 268 226 288.5 c 128,-1,10
 243 309 243 309 263 331 c 2,11,-1
 448 536 l 1,12,-1
 556 536 l 1,13,-1
 343 305 l 1,14,-1
 570 0 l 1,15,-1
 466 0 l 1,16,-1
 283 252 l 1,17,-1
 195 167 l 1,18,-1
 195 0 l 1,19,-1
 105 0 l 1,0,-1
EndSplineSet
EndChar

StartChar: section
Encoding: 167 167 101
Width: 600
Flags: W
AnchorPoint: "Anchor-3" 580 536 basechar 0
AnchorPoint: "Anchor-2" 300 817 basechar 0
AnchorPoint: "Anchor-1" 300 0 basechar 0
AnchorPoint: "Anchor-0" 540 10 basechar 0
LayerCount: 2
Fore
SplineSet
299 606 m 4
 250 606 250 606 220 634 c 4
 190 662 190 662 190 712 c 260
 190 762 190 762 220 789.5 c 4
 250 817 250 817 299 817 c 4
 346 817 346 817 378 789.5 c 4
 410 762 410 762 410 713 c 4
 410 662 410 662 378.5 634 c 4
 347 606 347 606 299 606 c 4
299 658 m 4
 323 658 323 658 338 672.5 c 4
 353 687 353 687 353 712 c 4
 353 738 353 738 337.5 752 c 4
 322 766 322 766 299 766 c 4
 277 766 277 766 261.5 752 c 4
 246 738 246 738 246 712 c 4
 246 687 246 687 261 672.5 c 4
 276 658 276 658 299 658 c 4
EndSplineSet
Refer: 87 117 N 1 0 0 1 0 0 3
EndChar

StartChar: guillemotleft
Encoding: 171 171 102
Width: 600
Flags: W
AnchorPoint: "Anchor-2" 234 714 basechar 0
AnchorPoint: "Anchor-1" 330 0 basechar 0
LayerCount: 2
Fore
SplineSet
367 -10 m 0,0,1
 315 -10 315 -10 275 7 c 128,-1,2
 235 24 235 24 212.5 64.5 c 128,-1,3
 190 105 190 105 190 177 c 2,4,-1
 190 714 l 1,5,-1
 279 714 l 1,6,-1
 279 185 l 2,7,8
 279 146 279 146 289.5 120 c 128,-1,9
 300 94 300 94 322.5 81.5 c 128,-1,10
 345 69 345 69 381 69 c 0,11,12
 396 69 396 69 415 70.5 c 128,-1,13
 434 72 434 72 452 75 c 128,-1,14
 470 78 470 78 478 80 c 1,15,-1
 478 6 l 1,16,17
 464 -1 464 -1 431.5 -5.5 c 128,-1,18
 399 -10 399 -10 367 -10 c 0,0,1
EndSplineSet
EndChar

StartChar: registered
Encoding: 174 174 104
Width: 600
Flags: W
AnchorPoint: "Anchor-2" 300 760 basechar 0
AnchorPoint: "Anchor-1" 300 0 basechar 0
LayerCount: 2
Fore
SplineSet
107 452 m 1,0,-1
 107 524 l 1,1,-1
 493 524 l 1,2,-1
 493 452 l 1,3,-1
 107 452 l 1,0,-1
107 256 m 1,4,-1
 107 328 l 1,5,-1
 493 328 l 1,6,-1
 493 256 l 1,7,-1
 107 256 l 1,4,-1
261 0 m 1,8,-1
 261 760 l 1,9,-1
 339 760 l 1,10,-1
 339 0 l 1,11,-1
 261 0 l 1,8,-1
EndSplineSet
EndChar

StartChar: overscore
Encoding: 175 175 105
Width: 600
Flags: W
LayerCount: 2
Fore
SplineSet
90 74 m 1,0,1
 117 81 117 81 138 97.5 c 128,-1,2
 159 114 159 114 171 142.5 c 128,-1,3
 183 171 183 171 183 215 c 2,4,-1
 183 320 l 1,5,-1
 93 320 l 1,6,-1
 93 386 l 1,7,-1
 183 386 l 1,8,-1
 183 534 l 2,9,10
 183 623 183 623 233.5 673 c 128,-1,11
 284 723 284 723 367 723 c 0,12,13
 413 723 413 723 448 712.5 c 128,-1,14
 483 702 483 702 516 682 c 1,15,-1
 485 614 l 1,16,17
 457 632 457 632 430 640 c 128,-1,18
 403 648 403 648 375 648 c 0,19,20
 323 648 323 648 297 619.5 c 128,-1,21
 271 591 271 591 271 525 c 2,22,-1
 271 386 l 1,23,-1
 448 386 l 1,24,-1
 448 320 l 1,25,-1
 271 320 l 1,26,-1
 271 216 l 2,27,28
 271 189 271 189 262 161.5 c 128,-1,29
 253 134 253 134 239 112.5 c 128,-1,30
 225 91 225 91 209 80 c 1,31,-1
 525 80 l 1,32,-1
 525 0 l 1,33,-1
 90 0 l 1,34,-1
 90 74 l 1,0,1
EndSplineSet
EndChar

StartChar: degree
Encoding: 176 176 106
Width: 600
Flags: W
LayerCount: 2
Fore
SplineSet
276 -10 m 0,0,1
 221 -10 221 -10 180 -1.5 c 128,-1,2
 139 7 139 7 109 23 c 1,3,-1
 109 97 l 1,4,5
 130 87 130 87 157.5 77 c 128,-1,6
 185 67 185 67 216.5 60.5 c 128,-1,7
 248 54 248 54 279 54 c 0,8,9
 350 54 350 54 378.5 76.5 c 128,-1,10
 407 99 407 99 407 127 c 0,11,12
 407 147 407 147 398 163 c 128,-1,13
 389 179 389 179 361.5 195.5 c 128,-1,14
 334 212 334 212 280 233 c 0,15,16
 229 253 229 253 192.5 273.5 c 128,-1,17
 156 294 156 294 136.5 323 c 128,-1,18
 117 352 117 352 117 395 c 0,19,20
 117 444 117 444 142 474.5 c 128,-1,21
 167 505 167 505 198 520 c 1,22,23
 161 539 161 539 140.5 568.5 c 128,-1,24
 120 598 120 598 120 638 c 0,25,26
 120 697 120 697 169.5 731 c 128,-1,27
 219 765 219 765 313 765 c 0,28,29
 369 765 369 765 407.5 755.5 c 128,-1,30
 446 746 446 746 481 732 c 1,31,-1
 455 669 l 1,32,33
 423 684 423 684 390.5 692 c 128,-1,34
 358 700 358 700 310 700 c 0,35,36
 251 700 251 700 226.5 683.5 c 128,-1,37
 202 667 202 667 202 640 c 0,38,39
 202 622 202 622 213 606.5 c 128,-1,40
 224 591 224 591 251.5 575.5 c 128,-1,41
 279 560 279 560 329 541 c 0,42,43
 380 522 380 522 416 500.5 c 128,-1,44
 452 479 452 479 471 451 c 128,-1,45
 490 423 490 423 490 383 c 0,46,47
 490 333 490 333 466.5 300.5 c 128,-1,48
 443 268 443 268 413 251 c 1,49,50
 449 232 449 232 469 203 c 128,-1,51
 489 174 489 174 489 133 c 0,52,53
 489 65 489 65 433 27.5 c 128,-1,54
 377 -10 377 -10 276 -10 c 0,0,1
351 280 m 1,55,56
 375 294 375 294 396 315.5 c 128,-1,57
 417 337 417 337 417 370 c 0,58,59
 417 395 417 395 403.5 415 c 128,-1,60
 390 435 390 435 356.5 453 c 128,-1,61
 323 471 323 471 262 490 c 1,62,63
 234 483 234 483 211 460 c 128,-1,64
 188 437 188 437 188 405 c 0,65,66
 188 381 188 381 201.5 362 c 128,-1,67
 215 343 215 343 246 325.5 c 128,-1,68
 277 308 277 308 330 288 c 2,69,-1
 351 280 l 1,55,56
EndSplineSet
EndChar

StartChar: plusminus
Encoding: 177 177 107
Width: 600
Flags: W
LayerCount: 2
Fore
SplineSet
262 124 m 1,0,-1
 262 320 l 1,1,-1
 76 320 l 1,2,-1
 76 391 l 1,3,-1
 262 391 l 1,4,-1
 262 588 l 1,5,-1
 334 588 l 1,6,-1
 334 391 l 1,7,-1
 520 391 l 1,8,-1
 520 320 l 1,9,-1
 334 320 l 1,10,-1
 334 124 l 1,11,-1
 262 124 l 1,0,-1
80 0 m 1,12,-1
 80 71 l 1,13,-1
 520 71 l 1,14,-1
 520 0 l 1,15,-1
 80 0 l 1,12,-1
EndSplineSet
EndChar

StartChar: uni00B2
Encoding: 178 178 108
Width: 600
Flags: W
LayerCount: 2
Fore
SplineSet
148 477 m 1,0,-1
 318 272 l 1,1,-1
 318 259 l 1,2,-1
 148 53 l 1,3,-1
 90 95 l 1,4,-1
 226 265 l 1,5,-1
 90 436 l 1,6,-1
 148 477 l 1,0,-1
344 476 m 1,7,-1
 512 272 l 1,8,-1
 512 259 l 1,9,-1
 344 53 l 1,10,-1
 285 97 l 1,11,-1
 421 265 l 1,12,-1
 286 436 l 1,13,-1
 344 476 l 1,7,-1
EndSplineSet
EndChar

StartChar: uni00B3
Encoding: 179 179 109
Width: 600
Flags: W
AnchorPoint: "Anchor-3" 580 714 basechar 0
AnchorPoint: "Anchor-2" 359 714 basechar 0
AnchorPoint: "Anchor-1" 326 -240 basechar 0
LayerCount: 2
Fore
SplineSet
298 -240 m 0
 282 -240 282 -240 268.5 -238.5 c 0
 255 -237 255 -237 247 -235 c 1
 247 -180 l 1
 256 -182 256 -182 271 -183.5 c 0
 286 -185 286 -185 300 -185 c 0
 335 -185 335 -185 354.5 -175.5 c 0
 374 -166 374 -166 374 -142 c 0
 374 -116 374 -116 350.5 -104 c 0
 327 -92 327 -92 283 -86 c 1
 326 5 l 1
 384 5 l 1
 358 -53 l 1
 394 -61 394 -61 419.5 -80.5 c 0
 445 -100 445 -100 445 -141 c 0
 445 -187 445 -187 408 -213.5 c 0
 371 -240 371 -240 298 -240 c 0
EndSplineSet
Refer: 37 67 N 1 0 0 1 0 0 3
EndChar

StartChar: acute
Encoding: 180 180 110
Width: 600
Flags: W
LayerCount: 2
Fore
SplineSet
136 138 m 1,0,-1
 86 187 l 1,1,-1
 250 353 l 1,2,-1
 85 518 l 1,3,-1
 135 568 l 1,4,-1
 300 402 l 1,5,-1
 467 568 l 1,6,-1
 516 519 l 1,7,-1
 350 353 l 1,8,-1
 515 187 l 1,9,-1
 466 138 l 1,10,-1
 299 302 l 1,11,-1
 136 138 l 1,0,-1
EndSplineSet
EndChar

StartChar: uni00B5
Encoding: 181 181 111
Width: 600
GlyphClass: 2
Flags: W
AnchorPoint: "Anchor-3" 580 536 basechar 0
AnchorPoint: "Anchor-2" 300 817 basechar 0
AnchorPoint: "Anchor-1" 300 0 basechar 0
AnchorPoint: "Anchor-0" 540 10 basechar 0
LayerCount: 2
Fore
SplineSet
304 606 m 4
 255 606 255 606 225 634 c 4
 195 662 195 662 195 712 c 260
 195 762 195 762 225 789.5 c 4
 255 817 255 817 304 817 c 4
 351 817 351 817 383 789.5 c 4
 415 762 415 762 415 713 c 4
 415 662 415 662 383.5 634 c 4
 352 606 352 606 304 606 c 4
304 658 m 4
 328 658 328 658 343 672.5 c 4
 358 687 358 687 358 712 c 4
 358 738 358 738 342.5 752 c 4
 327 766 327 766 304 766 c 4
 282 766 282 766 266.5 752 c 4
 251 738 251 738 251 712 c 4
 251 687 251 687 266 672.5 c 4
 281 658 281 658 304 658 c 4
EndSplineSet
Refer: 67 97 N 1 0 0 1 0 0 3
EndChar

StartChar: periodcentered
Encoding: 183 183 112
Width: 600
Flags: W
AnchorPoint: "Anchor-3" 580 536 basechar 0
AnchorPoint: "Anchor-2" 300 735 basechar 0
AnchorPoint: "Anchor-1" 300 0 basechar 0
LayerCount: 2
Fore
SplineSet
132 606 m 5
 135 636 135 636 143.5 659.5 c 4
 152 683 152 683 166 699.5 c 4
 180 716 180 716 199 725 c 4
 218 734 218 734 242 734 c 4
 263 734 263 734 282.5 725.5 c 4
 302 717 302 717 320 705.5 c 4
 338 694 338 694 354.5 685.5 c 4
 371 677 371 677 387 677 c 4
 410 677 410 677 422.5 691.5 c 4
 435 706 435 706 442 735 c 5
 492 735 l 5
 486 677 486 677 458 642 c 4
 430 607 430 607 383 607 c 4
 362 607 362 607 343 615.5 c 4
 324 624 324 624 306.5 635.5 c 4
 289 647 289 647 272 655.5 c 4
 255 664 255 664 238 664 c 4
 214 664 214 664 202 649.5 c 4
 190 635 190 635 183 606 c 5
 132 606 l 5
EndSplineSet
Refer: 80 110 N 1 0 0 1 0 0 3
EndChar

StartChar: uni00B9
Encoding: 185 185 114
Width: 600
Flags: W
LayerCount: 2
Fore
SplineSet
80 317 m 1,0,-1
 80 388 l 1,1,-1
 520 388 l 1,2,-1
 520 317 l 1,3,-1
 80 317 l 1,0,-1
299 121 m 256,4,5
 276 121 276 121 259.5 135.5 c 128,-1,6
 243 150 243 150 243 182 c 0,7,8
 243 216 243 216 259.5 229 c 128,-1,9
 276 242 276 242 299 242 c 256,10,11
 322 242 322 242 338 229 c 128,-1,12
 354 216 354 216 354 182 c 0,13,14
 354 150 354 150 338 135.5 c 128,-1,15
 322 121 322 121 299 121 c 256,4,5
299 462 m 256,16,17
 276 462 276 462 259.5 476.5 c 128,-1,18
 243 491 243 491 243 523 c 0,19,20
 243 557 243 557 259.5 570 c 128,-1,21
 276 583 276 583 299 583 c 256,22,23
 322 583 322 583 338 570 c 128,-1,24
 354 557 354 557 354 523 c 0,25,26
 354 491 354 491 338 476.5 c 128,-1,27
 322 462 322 462 299 462 c 256,16,17
EndSplineSet
EndChar

StartChar: onehalf
Encoding: 189 189 115
Width: 600
Flags: W
LayerCount: 2
Fore
SplineSet
64 463 m 1,0,1
 89 489 89 489 117.5 502.5 c 128,-1,2
 146 516 146 516 188 516 c 0,3,4
 217 516 217 516 245 509 c 128,-1,5
 273 502 273 502 316 484 c 0,6,7
 341 474 341 474 366 465.5 c 128,-1,8
 391 457 391 457 416 457 c 0,9,10
 453 457 453 457 483 475.5 c 128,-1,11
 513 494 513 494 535 516 c 1,12,-1
 535 439 l 1,13,14
 510 413 510 413 481.5 399 c 128,-1,15
 453 385 453 385 410 385 c 0,16,17
 376 385 376 385 348 393.5 c 128,-1,18
 320 402 320 402 283 417 c 0,19,20
 255 429 255 429 231 436.5 c 128,-1,21
 207 444 207 444 184 444 c 0,22,23
 147 444 147 444 117 426 c 128,-1,24
 87 408 87 408 64 385 c 1,25,-1
 64 463 l 1,0,1
64 268 m 1,26,27
 89 294 89 294 117.5 307.5 c 128,-1,28
 146 321 146 321 188 321 c 0,29,30
 217 321 217 321 245 314 c 128,-1,31
 273 307 273 307 316 289 c 0,32,33
 341 279 341 279 366 270.5 c 128,-1,34
 391 262 391 262 416 262 c 0,35,36
 453 262 453 262 483 280.5 c 128,-1,37
 513 299 513 299 535 321 c 1,38,-1
 535 244 l 1,39,40
 510 218 510 218 481.5 204 c 128,-1,41
 453 190 453 190 410 190 c 0,42,43
 376 190 376 190 348 198.5 c 128,-1,44
 320 207 320 207 283 222 c 0,45,46
 255 234 255 234 231 241.5 c 128,-1,47
 207 249 207 249 184 249 c 0,48,49
 147 249 147 249 117 231 c 128,-1,50
 87 213 87 213 64 190 c 1,51,-1
 64 268 l 1,26,27
EndSplineSet
EndChar

StartChar: Acircumflex
Encoding: 194 194 116
Width: 600
GlyphClass: 2
Flags: W
LayerCount: 2
Fore
SplineSet
105 -58 m 1,0,-1
 408 714 l 1,1,-1
 484 714 l 1,2,-1
 181 -58 l 1,3,-1
 105 -58 l 1,0,-1
70 295 m 1,4,-1
 70 375 l 1,5,-1
 530 375 l 1,6,-1
 530 295 l 1,7,-1
 70 295 l 1,4,-1
70 105 m 1,8,-1
 70 185 l 1,9,-1
 530 185 l 1,10,-1
 530 105 l 1,11,-1
 70 105 l 1,8,-1
70 486 m 1,12,-1
 70 566 l 1,13,-1
 530 566 l 1,14,-1
 530 486 l 1,15,-1
 70 486 l 1,12,-1
EndSplineSet
Substitution2: "'c2sc' Capitals to Small Capitals lookup 34 subtable" acircumflex.sc
Substitution2: "'aalt' Access All Alternates lookup 0 subtable" acircumflex.sc
EndChar

StartChar: Aring
Encoding: 197 197 117
Width: 600
GlyphClass: 2
Flags: W
AnchorPoint: "Anchor-4" 300 357 basechar 0
AnchorPoint: "Anchor-3" 446 714 basechar 0
AnchorPoint: "Anchor-2" 163 714 basechar 0
AnchorPoint: "Anchor-1" 300 0 basechar 0
LayerCount: 2
Fore
SplineSet
0 332 m 1,0,-1
 0 403 l 1,1,-1
 357 403 l 1,2,-1
 357 332 l 1,3,-1
 0 332 l 1,0,-1
115 0 m 1,4,-1
 115 714 l 1,5,-1
 205 714 l 1,6,-1
 205 83 l 1,7,-1
 515 83 l 1,8,-1
 515 0 l 1,9,-1
 115 0 l 1,4,-1
EndSplineSet
Substitution2: "'c2sc' Capitals to Small Capitals lookup 34 subtable" aring.sc
Substitution2: "'aalt' Access All Alternates lookup 0 subtable" aring.sc
EndChar

StartChar: Ccedilla
Encoding: 199 199 119
Width: 600
GlyphClass: 2
Flags: W
AnchorPoint: "Anchor-2" 306 536 basechar 0
AnchorPoint: "Anchor-1" 306 0 basechar 0
LayerCount: 2
Fore
SplineSet
139 0 m 1,0,-1
 139 536 l 1,1,-1
 460 536 l 1,2,-1
 460 464 l 1,3,-1
 228 464 l 1,4,-1
 228 315 l 1,5,-1
 446 315 l 1,6,-1
 446 244 l 1,7,-1
 228 244 l 1,8,-1
 228 72 l 1,9,-1
 460 72 l 1,10,-1
 460 0 l 1,11,-1
 139 0 l 1,0,-1
EndSplineSet
Substitution2: "'c2sc' Capitals to Small Capitals lookup 34 subtable" ccedilla.sc
Substitution2: "'aalt' Access All Alternates lookup 0 subtable" ccedilla.sc
EndChar

StartChar: Edieresis
Encoding: 203 203 120
Width: 600
GlyphClass: 2
Flags: W
AnchorPoint: "Anchor-3" 555 536 basechar 0
AnchorPoint: "Anchor-2" 300 536 basechar 0
AnchorPoint: "Anchor-1" 300 0 basechar 0
LayerCount: 2
Fore
SplineSet
357 536 m 1,0,-1
 555 0 l 1,1,-1
 463 0 l 1,2,-1
 351 318 l 2,3,4
 340 350 340 350 327.5 385 c 128,-1,5
 315 420 315 420 302 460 c 1,6,-1
 299 460 l 1,7,8
 286 420 286 420 273 385 c 128,-1,9
 260 350 260 350 249 318 c 2,10,-1
 140 0 l 1,11,-1
 46 0 l 1,12,-1
 246 536 l 1,13,-1
 357 536 l 1,0,-1
EndSplineSet
Substitution2: "'c2sc' Capitals to Small Capitals lookup 34 subtable" edieresis.sc
Substitution2: "'aalt' Access All Alternates lookup 0 subtable" edieresis.sc
EndChar

StartChar: Igrave
Encoding: 204 204 121
Width: 600
GlyphClass: 2
Flags: W
AnchorPoint: "Anchor-3" 584 536 basechar 0
AnchorPoint: "Anchor-2" 300 536 basechar 0
AnchorPoint: "Anchor-1" 300 0 basechar 0
LayerCount: 2
Fore
SplineSet
498 536 m 1,0,-1
 584 0 l 1,1,-1
 500 0 l 1,2,-1
 461 265 l 2,3,4
 456 303 456 303 453 331.5 c 128,-1,5
 450 360 450 360 448 390 c 128,-1,6
 446 420 446 420 443 461 c 1,7,-1
 440 461 l 1,8,9
 438 445 438 445 432 414 c 128,-1,10
 426 383 426 383 418.5 348 c 128,-1,11
 411 313 411 313 402 282 c 2,12,-1
 350 101 l 1,13,-1
 251 101 l 1,14,-1
 201 282 l 2,15,16
 193 313 193 313 184.5 347 c 128,-1,17
 176 381 176 381 170 411.5 c 128,-1,18
 164 442 164 442 161 461 c 1,19,-1
 158 461 l 1,20,21
 156 421 156 421 153.5 391.5 c 128,-1,22
 151 362 151 362 148 333 c 128,-1,23
 145 304 145 304 139 265 c 2,24,-1
 97 0 l 1,25,-1
 15 0 l 1,26,-1
 103 536 l 1,27,-1
 211 536 l 1,28,-1
 259 348 l 2,29,30
 270 307 270 307 280.5 266.5 c 128,-1,31
 291 226 291 226 299 185 c 1,32,-1
 302 185 l 1,33,34
 310 226 310 226 322 266.5 c 128,-1,35
 334 307 334 307 344 348 c 2,36,-1
 393 536 l 1,37,-1
 498 536 l 1,0,-1
EndSplineSet
Substitution2: "'c2sc' Capitals to Small Capitals lookup 34 subtable" igrave.sc
Substitution2: "'aalt' Access All Alternates lookup 0 subtable" igrave.sc
EndChar

StartChar: Icircumflex
Encoding: 206 206 122
Width: 600
GlyphClass: 2
Flags: W
AnchorPoint: "Anchor-2" 300 536 basechar 0
AnchorPoint: "Anchor-1" 300 0 basechar 0
LayerCount: 2
Fore
SplineSet
130 0 m 1,0,-1
 130 537 l 1,1,-1
 340 537 l 2,2,3
 394 537 394 537 434.5 523 c 128,-1,4
 475 509 475 509 497 479.5 c 128,-1,5
 519 450 519 450 519 403 c 0,6,7
 519 370 519 370 508 346 c 128,-1,8
 497 322 497 322 476 307.5 c 128,-1,9
 455 293 455 293 426 286 c 1,10,-1
 426 282 l 1,11,12
 457 277 457 277 481.5 261.5 c 128,-1,13
 506 246 506 246 520 220.5 c 128,-1,14
 534 195 534 195 534 158 c 0,15,16
 534 86 534 86 488 43 c 128,-1,17
 442 0 442 0 344 0 c 2,18,-1
 130 0 l 1,0,-1
337 68 m 2,19,20
 392 68 392 68 420 90 c 128,-1,21
 448 112 448 112 448 161 c 0,22,23
 448 207 448 207 419.5 227 c 128,-1,24
 391 247 391 247 337 247 c 2,25,-1
 215 247 l 1,26,-1
 215 68 l 1,27,-1
 337 68 l 2,19,20
331 315 m 2,28,29
 383 315 383 315 408 334.5 c 128,-1,30
 433 354 433 354 433 394 c 0,31,32
 433 431 433 431 409.5 449.5 c 128,-1,33
 386 468 386 468 335 468 c 2,34,-1
 215 468 l 1,35,-1
 215 315 l 1,36,-1
 331 315 l 2,28,29
EndSplineSet
Substitution2: "'c2sc' Capitals to Small Capitals lookup 34 subtable" icircumflex.sc
Substitution2: "'aalt' Access All Alternates lookup 0 subtable" icircumflex.sc
EndChar

StartChar: Idieresis
Encoding: 207 207 123
Width: 600
GlyphClass: 2
Flags: W
AnchorPoint: "Anchor-2" 300 536 basechar 0
AnchorPoint: "Anchor-1" 300 0 basechar 0
LayerCount: 2
Fore
SplineSet
80 0 m 1,0,-1
 80 536 l 1,1,-1
 165 536 l 1,2,-1
 165 314 l 1,3,-1
 436 314 l 1,4,-1
 436 536 l 1,5,-1
 520 536 l 1,6,-1
 520 0 l 1,7,-1
 436 0 l 1,8,-1
 436 242 l 1,9,-1
 165 242 l 1,10,-1
 165 0 l 1,11,-1
 80 0 l 1,0,-1
EndSplineSet
Substitution2: "'c2sc' Capitals to Small Capitals lookup 34 subtable" idieresis.sc
Substitution2: "'aalt' Access All Alternates lookup 0 subtable" idieresis.sc
EndChar

StartChar: Eth
Encoding: 208 208 124
Width: 600
GlyphClass: 2
Flags: W
LayerCount: 2
Fore
SplineSet
301 414 m 1,0,-1
 550 703 l 1,1,-1
 600 645 l 1,2,-1
 349 356 l 1,3,-1
 602 68 l 1,4,-1
 551 10 l 1,5,-1
 300 299 l 1,6,-1
 51 10 l 1,7,-1
 0 67 l 1,8,-1
 251 356 l 1,9,-1
 1 646 l 1,10,-1
 52 704 l 1,11,-1
 301 414 l 1,0,-1
EndSplineSet
Substitution2: "'c2sc' Capitals to Small Capitals lookup 34 subtable" eth.sc
Substitution2: "'aalt' Access All Alternates lookup 0 subtable" eth.sc
EndChar

StartChar: Oslash
Encoding: 216 216 125
Width: 600
GlyphClass: 2
Flags: W
AnchorPoint: "Anchor-3" 580 714 basechar 0
AnchorPoint: "Anchor-2" 300 714 basechar 0
AnchorPoint: "Anchor-1" 300 0 basechar 0
AnchorPoint: "Anchor-0" 540 10 basechar 0
LayerCount: 2
Fore
SplineSet
20 0 m 1,0,-1
 252 717 l 1,1,-1
 347 717 l 1,2,-1
 580 0 l 1,3,-1
 488 0 l 1,4,-1
 329 512 l 2,5,6
 326 524 326 524 320.5 541.5 c 128,-1,7
 315 559 315 559 309.5 580.5 c 128,-1,8
 304 602 304 602 299 622 c 1,9,10
 295 602 295 602 289.5 580.5 c 128,-1,11
 284 559 284 559 279 541 c 128,-1,12
 274 523 274 523 270 512 c 2,13,-1
 111 0 l 1,14,-1
 20 0 l 1,0,-1
154 219 m 1,15,-1
 184 299 l 1,16,-1
 411 299 l 1,17,-1
 437 219 l 1,18,-1
 154 219 l 1,15,-1
EndSplineSet
Substitution2: "'c2sc' Capitals to Small Capitals lookup 34 subtable" oslash.sc
Substitution2: "'aalt' Access All Alternates lookup 0 subtable" oslash.sc
EndChar

StartChar: Ugrave
Encoding: 217 217 126
Width: 600
GlyphClass: 2
Flags: W
AnchorPoint: "Anchor-3" 580 714 basechar 0
AnchorPoint: "Anchor-2" 300 714 basechar 0
AnchorPoint: "Anchor-1" 300 0 basechar 0
LayerCount: 2
Fore
SplineSet
95 0 m 1,0,-1
 95 714 l 1,1,-1
 287 714 l 2,2,3
 397 714 397 714 461 674.5 c 128,-1,4
 525 635 525 635 525 539 c 0,5,6
 525 469 525 469 491 429 c 128,-1,7
 457 389 457 389 397 379 c 1,8,-1
 397 374 l 1,9,10
 438 367 438 367 471.5 349 c 128,-1,11
 505 331 505 331 525 297 c 128,-1,12
 545 263 545 263 545 207 c 0,13,14
 545 142 545 142 517.5 95.5 c 128,-1,15
 490 49 490 49 439 24.5 c 128,-1,16
 388 0 388 0 317 0 c 2,17,-1
 95 0 l 1,0,-1
301 78 m 2,18,19
 387 78 387 78 420 114 c 128,-1,20
 453 150 453 150 453 207 c 0,21,22
 453 246 453 246 438.5 274.5 c 128,-1,23
 424 303 424 303 389.5 318.5 c 128,-1,24
 355 334 355 334 295 334 c 2,25,-1
 180 334 l 1,26,-1
 180 78 l 1,27,-1
 301 78 l 2,18,19
295 412 m 2,28,29
 370 412 370 412 402 440.5 c 128,-1,30
 434 469 434 469 434 527 c 0,31,32
 434 586 434 586 399.5 611 c 128,-1,33
 365 636 365 636 280 636 c 2,34,-1
 180 636 l 1,35,-1
 180 412 l 1,36,-1
 295 412 l 2,28,29
EndSplineSet
Substitution2: "'c2sc' Capitals to Small Capitals lookup 34 subtable" ugrave.sc
Substitution2: "'aalt' Access All Alternates lookup 0 subtable" ugrave.sc
EndChar

StartChar: Uacute
Encoding: 218 218 127
Width: 600
GlyphClass: 2
Flags: W
AnchorPoint: "Anchor-3" 580 714 basechar 0
AnchorPoint: "Anchor-2" 359 714 basechar 0
AnchorPoint: "Anchor-1" 351 0 basechar 0
LayerCount: 2
Fore
SplineSet
365 -10 m 0,0,1
 260 -10 260 -10 194 37 c 128,-1,2
 128 84 128 84 97 166.5 c 128,-1,3
 66 249 66 249 66 357 c 0,4,5
 66 442 66 442 86 509.5 c 128,-1,6
 106 577 106 577 145 625 c 128,-1,7
 184 673 184 673 240 698.5 c 128,-1,8
 296 724 296 724 369 724 c 0,9,10
 421 724 421 724 466.5 713 c 128,-1,11
 512 702 512 702 550 682 c 1,12,-1
 516 609 l 1,13,14
 485 626 485 626 445.5 635 c 128,-1,15
 406 644 406 644 369 644 c 0,16,17
 318 644 318 644 278.5 625 c 128,-1,18
 239 606 239 606 212.5 569.5 c 128,-1,19
 186 533 186 533 172 479.5 c 128,-1,20
 158 426 158 426 158 357 c 0,21,22
 158 269 158 269 179.5 205 c 128,-1,23
 201 141 201 141 247 107 c 128,-1,24
 293 73 293 73 367 73 c 0,25,26
 401 73 401 73 440.5 80.5 c 128,-1,27
 480 88 480 88 519 104 c 1,28,-1
 519 19 l 1,29,30
 479 4 479 4 442.5 -3 c 128,-1,31
 406 -10 406 -10 365 -10 c 0,0,1
EndSplineSet
Substitution2: "'c2sc' Capitals to Small Capitals lookup 34 subtable" uacute.sc
Substitution2: "'aalt' Access All Alternates lookup 0 subtable" uacute.sc
EndChar

StartChar: Ucircumflex
Encoding: 219 219 128
Width: 600
GlyphClass: 2
Flags: W
AnchorPoint: "Anchor-4" 299 357 basechar 0
AnchorPoint: "Anchor-3" 600 714 basechar 0
AnchorPoint: "Anchor-2" 277 714 basechar 0
AnchorPoint: "Anchor-1" 264 0 basechar 0
LayerCount: 2
Fore
SplineSet
70 0 m 1,0,-1
 70 714 l 1,1,-1
 243 714 l 2,2,3
 338 714 338 714 408 674 c 128,-1,4
 478 634 478 634 516.5 556.5 c 128,-1,5
 555 479 555 479 555 364 c 0,6,7
 555 244 555 244 515.5 163 c 128,-1,8
 476 82 476 82 402 41 c 128,-1,9
 328 0 328 0 223 0 c 2,10,-1
 70 0 l 1,0,-1
214 78 m 2,11,12
 342 78 342 78 402.5 150 c 128,-1,13
 463 222 463 222 463 361 c 0,14,15
 463 456 463 456 435.5 516.5 c 128,-1,16
 408 577 408 577 356.5 606.5 c 128,-1,17
 305 636 305 636 233 636 c 2,18,-1
 160 636 l 1,19,-1
 160 78 l 1,20,-1
 214 78 l 2,11,12
EndSplineSet
Substitution2: "'c2sc' Capitals to Small Capitals lookup 34 subtable" ucircumflex.sc
Substitution2: "'aalt' Access All Alternates lookup 0 subtable" ucircumflex.sc
EndChar

StartChar: Udieresis
Encoding: 220 220 129
Width: 600
GlyphClass: 2
Flags: W
AnchorPoint: "Anchor-3" 580 714 basechar 0
AnchorPoint: "Anchor-2" 306 714 basechar 0
AnchorPoint: "Anchor-1" 304 0 basechar 0
AnchorPoint: "Anchor-0" 457 10 basechar 0
LayerCount: 2
Fore
SplineSet
95 0 m 1,0,-1
 95 714 l 1,1,-1
 515 714 l 1,2,-1
 515 634 l 1,3,-1
 185 634 l 1,4,-1
 185 413 l 1,5,-1
 496 413 l 1,6,-1
 496 333 l 1,7,-1
 185 333 l 1,8,-1
 185 80 l 1,9,-1
 515 80 l 1,10,-1
 515 0 l 1,11,-1
 95 0 l 1,0,-1
EndSplineSet
Substitution2: "'c2sc' Capitals to Small Capitals lookup 34 subtable" udieresis.sc
Substitution2: "'aalt' Access All Alternates lookup 0 subtable" udieresis.sc
EndChar

StartChar: Yacute
Encoding: 221 221 130
Width: 600
GlyphClass: 2
Flags: W
AnchorPoint: "Anchor-3" 580 714 basechar 0
AnchorPoint: "Anchor-2" 317 714 basechar 0
AnchorPoint: "Anchor-1" 317 0 basechar 0
LayerCount: 2
Fore
SplineSet
95 0 m 1,0,-1
 95 714 l 1,1,-1
 515 714 l 1,2,-1
 515 634 l 1,3,-1
 185 634 l 1,4,-1
 185 382 l 1,5,-1
 496 382 l 1,6,-1
 496 302 l 1,7,-1
 185 302 l 1,8,-1
 185 0 l 1,9,-1
 95 0 l 1,0,-1
EndSplineSet
Substitution2: "'c2sc' Capitals to Small Capitals lookup 34 subtable" yacute.sc
Substitution2: "'aalt' Access All Alternates lookup 0 subtable" yacute.sc
EndChar

StartChar: Thorn
Encoding: 222 222 131
Width: 600
GlyphClass: 2
Flags: W
AnchorPoint: "Anchor-3" 580 714 basechar 0
AnchorPoint: "Anchor-2" 322 714 basechar 0
AnchorPoint: "Anchor-1" 337 0 basechar 0
LayerCount: 2
Fore
SplineSet
340 -10 m 0,0,1
 243 -10 243 -10 177 30.5 c 128,-1,2
 111 71 111 71 78 150.5 c 128,-1,3
 45 230 45 230 45 346 c 0,4,5
 45 466 45 466 80 550.5 c 128,-1,6
 115 635 115 635 183.5 679.5 c 128,-1,7
 252 724 252 724 352 724 c 0,8,9
 403 724 403 724 444 713 c 128,-1,10
 485 702 485 702 522 682 c 1,11,-1
 490 607 l 1,12,13
 465 623 465 623 431 633 c 128,-1,14
 397 643 397 643 354 643 c 0,15,16
 282 643 282 643 233.5 608.5 c 128,-1,17
 185 574 185 574 161 509 c 128,-1,18
 137 444 137 444 137 350 c 0,19,20
 137 270 137 270 156.5 206.5 c 128,-1,21
 176 143 176 143 221.5 106.5 c 128,-1,22
 267 70 267 70 344 70 c 0,23,24
 376 70 376 70 400 75 c 128,-1,25
 424 80 424 80 443 85 c 1,26,-1
 443 297 l 1,27,-1
 313 297 l 1,28,-1
 313 377 l 1,29,-1
 530 377 l 1,30,-1
 530 27 l 1,31,32
 493 12 493 12 444.5 1 c 128,-1,33
 396 -10 396 -10 340 -10 c 0,0,1
EndSplineSet
Substitution2: "'c2sc' Capitals to Small Capitals lookup 34 subtable" thorn.sc
Substitution2: "'aalt' Access All Alternates lookup 0 subtable" thorn.sc
EndChar

StartChar: germandbls
Encoding: 223 223 132
Width: 600
GlyphClass: 2
Flags: W
AnchorPoint: "Anchor-4" 300 375 basechar 0
AnchorPoint: "Anchor-3" 600 714 basechar 0
AnchorPoint: "Anchor-2" 300 714 basechar 0
AnchorPoint: "Anchor-1" 300 0 basechar 0
LayerCount: 2
Fore
SplineSet
70 0 m 1,0,-1
 70 714 l 1,1,-1
 160 714 l 1,2,-1
 160 413 l 1,3,-1
 440 413 l 1,4,-1
 440 714 l 1,5,-1
 530 714 l 1,6,-1
 530 0 l 1,7,-1
 440 0 l 1,8,-1
 440 333 l 1,9,-1
 160 333 l 1,10,-1
 160 0 l 1,11,-1
 70 0 l 1,0,-1
EndSplineSet
Substitution2: "'smcp' Lowercase to Small Capitals lookup 35 subtable" germandbls.sc
Substitution2: "'aalt' Access All Alternates lookup 0 subtable" germandbls.sc
EndChar

StartChar: agrave
Encoding: 224 224 133
Width: 600
GlyphClass: 2
Flags: W
AnchorPoint: "Anchor-3" 580 714 basechar 0
AnchorPoint: "Anchor-2" 300 714 basechar 0
AnchorPoint: "Anchor-1" 300 0 basechar 0
AnchorPoint: "Anchor-0" 367 10 basechar 0
LayerCount: 2
Fore
SplineSet
110 0 m 1,0,-1
 110 62 l 1,1,-1
 254 75 l 1,2,-1
 254 639 l 1,3,-1
 110 652 l 1,4,-1
 110 714 l 1,5,-1
 490 714 l 1,6,-1
 490 652 l 1,7,-1
 344 639 l 1,8,-1
 344 75 l 1,9,-1
 490 62 l 1,10,-1
 490 0 l 1,11,-1
 110 0 l 1,0,-1
EndSplineSet
Substitution2: "'smcp' Lowercase to Small Capitals lookup 35 subtable" agrave.sc
Substitution2: "'aalt' Access All Alternates lookup 0 subtable" agrave.sc
EndChar

StartChar: aacute
Encoding: 225 225 134
Width: 600
GlyphClass: 2
Flags: W
AnchorPoint: "Anchor-3" 580 714 basechar 0
AnchorPoint: "Anchor-2" 420 714 basechar 0
AnchorPoint: "Anchor-1" 300 0 basechar 0
LayerCount: 2
Fore
SplineSet
252 -10 m 0,0,1
 214 -10 214 -10 171 -2 c 128,-1,2
 128 6 128 6 100 19 c 1,3,-1
 100 104 l 1,4,5
 123 94 123 94 164 83.5 c 128,-1,6
 205 73 205 73 245 73 c 256,7,8
 285 73 285 73 314 88.5 c 128,-1,9
 343 104 343 104 359 138 c 128,-1,10
 375 172 375 172 375 229 c 2,11,-1
 375 714 l 1,12,-1
 465 714 l 1,13,-1
 465 217 l 2,14,15
 465 145 465 145 441 94 c 128,-1,16
 417 43 417 43 369.5 16.5 c 128,-1,17
 322 -10 322 -10 252 -10 c 0,0,1
EndSplineSet
Substitution2: "'smcp' Lowercase to Small Capitals lookup 35 subtable" aacute.sc
Substitution2: "'aalt' Access All Alternates lookup 0 subtable" aacute.sc
EndChar

StartChar: acircumflex
Encoding: 226 226 135
Width: 600
GlyphClass: 2
Flags: W
AnchorPoint: "Anchor-3" 580 714 basechar 0
AnchorPoint: "Anchor-2" 300 714 basechar 0
AnchorPoint: "Anchor-1" 310 0 basechar 0
LayerCount: 2
Fore
SplineSet
70 0 m 1,0,-1
 70 714 l 1,1,-1
 160 714 l 1,2,-1
 160 330 l 1,3,4
 177 357 177 357 195 385 c 128,-1,5
 213 413 213 413 234 441 c 2,6,-1
 438 714 l 1,7,-1
 541 714 l 1,8,-1
 302 391 l 1,9,-1
 550 0 l 1,10,-1
 447 0 l 1,11,-1
 241 330 l 1,12,-1
 160 237 l 1,13,-1
 160 0 l 1,14,-1
 70 0 l 1,0,-1
EndSplineSet
Substitution2: "'smcp' Lowercase to Small Capitals lookup 35 subtable" acircumflex.sc
Substitution2: "'aalt' Access All Alternates lookup 0 subtable" acircumflex.sc
EndChar

StartChar: atilde
Encoding: 227 227 136
Width: 600
GlyphClass: 2
Flags: W
AnchorPoint: "Anchor-4" 300 357 basechar 0
AnchorPoint: "Anchor-3" 446 714 basechar 0
AnchorPoint: "Anchor-2" 161 714 basechar 0
AnchorPoint: "Anchor-1" 330 0 basechar 0
LayerCount: 2
Fore
SplineSet
115 0 m 1,0,-1
 115 714 l 1,1,-1
 205 714 l 1,2,-1
 205 83 l 1,3,-1
 515 83 l 1,4,-1
 515 0 l 1,5,-1
 115 0 l 1,0,-1
EndSplineSet
Substitution2: "'smcp' Lowercase to Small Capitals lookup 35 subtable" atilde.sc
Substitution2: "'aalt' Access All Alternates lookup 0 subtable" atilde.sc
EndChar

StartChar: adieresis
Encoding: 228 228 137
Width: 600
GlyphClass: 2
Flags: W
AnchorPoint: "Anchor-3" 600 714 basechar 0
AnchorPoint: "Anchor-2" 305 714 basechar 0
AnchorPoint: "Anchor-1" 300 0 basechar 0
LayerCount: 2
Fore
SplineSet
50 0 m 1,0,-1
 50 714 l 1,1,-1
 179 714 l 1,2,-1
 298 295 l 1,3,-1
 301 295 l 1,4,-1
 420 714 l 1,5,-1
 550 714 l 1,6,-1
 550 0 l 1,7,-1
 465 0 l 1,8,-1
 465 387 l 2,9,10
 465 407 465 407 465.5 427 c 128,-1,11
 466 447 466 447 466.5 467.5 c 128,-1,12
 467 488 467 488 468 508 c 128,-1,13
 469 528 469 528 470 548 c 128,-1,14
 471 568 471 568 473 587 c 128,-1,15
 475 606 475 606 477 624 c 1,16,-1
 473 624 l 1,17,-1
 341 178 l 1,18,-1
 258 178 l 1,19,-1
 125 625 l 1,20,-1
 121 625 l 1,21,22
 123 610 123 610 125 592 c 128,-1,23
 127 574 127 574 128.5 554 c 128,-1,24
 130 534 130 534 131.5 512.5 c 128,-1,25
 133 491 133 491 133.5 469.5 c 128,-1,26
 134 448 134 448 134.5 427 c 128,-1,27
 135 406 135 406 135 387 c 2,28,-1
 135 0 l 1,29,-1
 50 0 l 1,0,-1
EndSplineSet
Substitution2: "'smcp' Lowercase to Small Capitals lookup 35 subtable" adieresis.sc
Substitution2: "'aalt' Access All Alternates lookup 0 subtable" adieresis.sc
EndChar

StartChar: aring
Encoding: 229 229 138
Width: 600
GlyphClass: 2
Flags: W
AnchorPoint: "Anchor-3" 600 714 basechar 0
AnchorPoint: "Anchor-2" 305 714 basechar 0
AnchorPoint: "Anchor-1" 300 0 basechar 0
LayerCount: 2
Fore
SplineSet
70 0 m 1,0,-1
 70 714 l 1,1,-1
 189 714 l 1,2,-1
 449 119 l 1,3,-1
 452 119 l 1,4,5
 449 148 449 148 447.5 174.5 c 128,-1,6
 446 201 446 201 445 226.5 c 128,-1,7
 444 252 444 252 443.5 279 c 128,-1,8
 443 306 443 306 443 336 c 2,9,-1
 443 714 l 1,10,-1
 530 714 l 1,11,-1
 530 0 l 1,12,-1
 421 0 l 1,13,-1
 148 622 l 1,14,-1
 144 622 l 1,15,16
 146 594 146 594 148.5 566 c 128,-1,17
 151 538 151 538 153 510 c 128,-1,18
 155 482 155 482 156 454 c 128,-1,19
 157 426 157 426 157 398 c 2,20,-1
 157 0 l 1,21,-1
 70 0 l 1,0,-1
EndSplineSet
Substitution2: "'smcp' Lowercase to Small Capitals lookup 35 subtable" aring.sc
Substitution2: "'aalt' Access All Alternates lookup 0 subtable" aring.sc
EndChar

StartChar: ae
Encoding: 230 230 139
Width: 600
GlyphClass: 2
Flags: W
AnchorPoint: "Anchor-4" 300 357 basechar 0
AnchorPoint: "Anchor-3" 600 714 basechar 0
AnchorPoint: "Anchor-2" 300 714 basechar 0
AnchorPoint: "Anchor-1" 300 0 basechar 0
AnchorPoint: "Anchor-0" 299 10 basechar 0
LayerCount: 2
Fore
SplineSet
299 -10 m 256,0,1
 232 -10 232 -10 184 16.5 c 128,-1,2
 136 43 136 43 105 91.5 c 128,-1,3
 74 140 74 140 59.5 207.5 c 128,-1,4
 45 275 45 275 45 357 c 0,5,6
 45 467 45 467 71.5 550 c 128,-1,7
 98 633 98 633 154.5 679.5 c 128,-1,8
 211 726 211 726 300 726 c 0,9,10
 367 726 367 726 415 700 c 128,-1,11
 463 674 463 674 494 625 c 128,-1,12
 525 576 525 576 540 509 c 128,-1,13
 555 442 555 442 555 359 c 256,14,15
 555 276 555 276 540 208 c 128,-1,16
 525 140 525 140 494 91.5 c 128,-1,17
 463 43 463 43 414.5 16.5 c 128,-1,18
 366 -10 366 -10 299 -10 c 256,0,1
301 70 m 256,19,20
 361 70 361 70 396.5 104.5 c 128,-1,21
 432 139 432 139 447.5 203.5 c 128,-1,22
 463 268 463 268 463 358 c 0,23,24
 463 494 463 494 427 570 c 128,-1,25
 391 646 391 646 302 646 c 0,26,27
 242 646 242 646 205.5 611.5 c 128,-1,28
 169 577 169 577 153 512.5 c 128,-1,29
 137 448 137 448 137 358 c 256,30,31
 137 268 137 268 153 203.5 c 128,-1,32
 169 139 169 139 205 104.5 c 128,-1,33
 241 70 241 70 301 70 c 256,19,20
EndSplineSet
Substitution2: "'smcp' Lowercase to Small Capitals lookup 35 subtable" ae.sc
Substitution2: "'aalt' Access All Alternates lookup 0 subtable" ae.sc
EndChar

StartChar: ccedilla
Encoding: 231 231 140
Width: 600
GlyphClass: 2
Flags: W
AnchorPoint: "Anchor-3" 600 714 basechar 0
AnchorPoint: "Anchor-2" 300 714 basechar 0
AnchorPoint: "Anchor-1" 300 0 basechar 0
LayerCount: 2
Fore
SplineSet
95 0 m 1,0,-1
 95 714 l 1,1,-1
 299 714 l 2,2,3
 427 714 427 714 486 659.5 c 128,-1,4
 545 605 545 605 545 505 c 0,5,6
 545 446 545 446 520.5 393 c 128,-1,7
 496 340 496 340 439.5 307.5 c 128,-1,8
 383 275 383 275 286 275 c 2,9,-1
 185 275 l 1,10,-1
 185 0 l 1,11,-1
 95 0 l 1,0,-1
276 353 m 2,12,13
 335 353 335 353 374.5 368 c 128,-1,14
 414 383 414 383 433.5 415.5 c 128,-1,15
 453 448 453 448 453 500 c 0,16,17
 453 574 453 574 413.5 605 c 128,-1,18
 374 636 374 636 291 636 c 2,19,-1
 185 636 l 1,20,-1
 185 353 l 1,21,-1
 276 353 l 2,12,13
EndSplineSet
Substitution2: "'smcp' Lowercase to Small Capitals lookup 35 subtable" ccedilla.sc
Substitution2: "'aalt' Access All Alternates lookup 0 subtable" ccedilla.sc
EndChar

StartChar: egrave
Encoding: 232 232 141
Width: 600
GlyphClass: 2
Flags: W
AnchorPoint: "Anchor-4" 300 357 basechar 0
AnchorPoint: "Anchor-3" 600 714 basechar 0
AnchorPoint: "Anchor-2" 300 714 basechar 0
AnchorPoint: "Anchor-1" 300 -220 basechar 0
AnchorPoint: "Anchor-0" 299 10 basechar 0
LayerCount: 2
Fore
SplineSet
441 -180 m 1,0,-1
 337 27 l 1,1,-1
 397 93 l 1,2,-1
 541 -180 l 1,3,-1
 441 -180 l 1,0,-1
299 -10 m 256,4,5
 232 -10 232 -10 184 16.5 c 128,-1,6
 136 43 136 43 105 91.5 c 128,-1,7
 74 140 74 140 59.5 207.5 c 128,-1,8
 45 275 45 275 45 357 c 0,9,10
 45 467 45 467 71.5 550 c 128,-1,11
 98 633 98 633 154.5 679.5 c 128,-1,12
 211 726 211 726 300 726 c 0,13,14
 367 726 367 726 415 700 c 128,-1,15
 463 674 463 674 494 625 c 128,-1,16
 525 576 525 576 540 509 c 128,-1,17
 555 442 555 442 555 359 c 256,18,19
 555 276 555 276 540 208 c 128,-1,20
 525 140 525 140 494 91.5 c 128,-1,21
 463 43 463 43 414.5 16.5 c 128,-1,22
 366 -10 366 -10 299 -10 c 256,4,5
301 70 m 256,23,24
 361 70 361 70 396.5 104.5 c 128,-1,25
 432 139 432 139 447.5 203.5 c 128,-1,26
 463 268 463 268 463 358 c 0,27,28
 463 494 463 494 427 570 c 128,-1,29
 391 646 391 646 302 646 c 0,30,31
 242 646 242 646 205.5 611.5 c 128,-1,32
 169 577 169 577 153 512.5 c 128,-1,33
 137 448 137 448 137 358 c 256,34,35
 137 268 137 268 153 203.5 c 128,-1,36
 169 139 169 139 205 104.5 c 128,-1,37
 241 70 241 70 301 70 c 256,23,24
EndSplineSet
Substitution2: "'smcp' Lowercase to Small Capitals lookup 35 subtable" egrave.sc
Substitution2: "'aalt' Access All Alternates lookup 0 subtable" egrave.sc
EndChar

StartChar: eacute
Encoding: 233 233 142
Width: 600
GlyphClass: 2
Flags: W
AnchorPoint: "Anchor-3" 580 714 basechar 0
AnchorPoint: "Anchor-2" 300 714 basechar 0
AnchorPoint: "Anchor-1" 330 0 basechar 0
LayerCount: 2
Fore
SplineSet
95 0 m 1,0,-1
 95 714 l 1,1,-1
 262 714 l 2,2,3
 346 714 346 714 401.5 691.5 c 128,-1,4
 457 669 457 669 485 625 c 128,-1,5
 513 581 513 581 513 514 c 0,6,7
 513 458 513 458 495 419.5 c 128,-1,8
 477 381 477 381 446.5 356.5 c 128,-1,9
 416 332 416 332 378 318 c 1,10,-1
 569 0 l 1,11,-1
 469 0 l 1,12,-1
 297 292 l 1,13,-1
 185 292 l 1,14,-1
 185 0 l 1,15,-1
 95 0 l 1,0,-1
259 370 m 2,16,17
 318 370 318 370 353 385.5 c 128,-1,18
 388 401 388 401 404 431.5 c 128,-1,19
 420 462 420 462 420 506 c 0,20,21
 420 577 420 577 381.5 606.5 c 128,-1,22
 343 636 343 636 257 636 c 2,23,-1
 185 636 l 1,24,-1
 185 370 l 1,25,-1
 259 370 l 2,16,17
EndSplineSet
Substitution2: "'smcp' Lowercase to Small Capitals lookup 35 subtable" eacute.sc
Substitution2: "'aalt' Access All Alternates lookup 0 subtable" eacute.sc
EndChar

StartChar: ecircumflex
Encoding: 234 234 143
Width: 600
GlyphClass: 2
Flags: W
AnchorPoint: "Anchor-3" 580 714 basechar 0
AnchorPoint: "Anchor-2" 319 714 basechar 0
AnchorPoint: "Anchor-1" 300 0 basechar 0
LayerCount: 2
Fore
SplineSet
281 -10 m 0,0,1
 224 -10 224 -10 170.5 0.5 c 128,-1,2
 117 11 117 11 85 27 c 1,3,-1
 85 110 l 1,4,5
 122 94 122 94 175 80.5 c 128,-1,6
 228 67 228 67 283 67 c 0,7,8
 334 67 334 67 368.5 81 c 128,-1,9
 403 95 403 95 420 123 c 128,-1,10
 437 151 437 151 437 192 c 0,11,12
 437 226 437 226 423 246 c 128,-1,13
 409 266 409 266 373.5 284.5 c 128,-1,14
 338 303 338 303 274 331 c 0,15,16
 232 350 232 350 192 373 c 128,-1,17
 152 396 152 396 126.5 434 c 128,-1,18
 101 472 101 472 101 534 c 256,19,20
 101 596 101 596 128.5 638 c 128,-1,21
 156 680 156 680 207 702 c 128,-1,22
 258 724 258 724 329 724 c 0,23,24
 383 724 383 724 431 712.5 c 128,-1,25
 479 701 479 701 515 684 c 1,26,-1
 486 609 l 1,27,28
 452 625 452 625 410 634.5 c 128,-1,29
 368 644 368 644 327 644 c 0,30,31
 288 644 288 644 257.5 633 c 128,-1,32
 227 622 227 622 210 597.5 c 128,-1,33
 193 573 193 573 193 532 c 0,34,35
 193 497 193 497 207.5 475 c 128,-1,36
 222 453 222 453 254 436.5 c 128,-1,37
 286 420 286 420 336 398 c 0,38,39
 393 374 393 374 436.5 349.5 c 128,-1,40
 480 325 480 325 504.5 289 c 128,-1,41
 529 253 529 253 529 191 c 0,42,43
 529 143 529 143 513.5 106 c 128,-1,44
 498 69 498 69 466.5 43 c 128,-1,45
 435 17 435 17 389 3.5 c 128,-1,46
 343 -10 343 -10 281 -10 c 0,0,1
EndSplineSet
Substitution2: "'smcp' Lowercase to Small Capitals lookup 35 subtable" ecircumflex.sc
Substitution2: "'aalt' Access All Alternates lookup 0 subtable" ecircumflex.sc
EndChar

StartChar: edieresis
Encoding: 235 235 144
Width: 600
GlyphClass: 2
Flags: W
AnchorPoint: "Anchor-4" 300 357 basechar 0
AnchorPoint: "Anchor-3" 580 714 basechar 0
AnchorPoint: "Anchor-2" 300 714 basechar 0
AnchorPoint: "Anchor-1" 300 0 basechar 0
LayerCount: 2
Fore
SplineSet
255 0 m 1,0,-1
 255 634 l 1,1,-1
 45 634 l 1,2,-1
 45 714 l 1,3,-1
 555 714 l 1,4,-1
 555 634 l 1,5,-1
 345 634 l 1,6,-1
 345 0 l 1,7,-1
 255 0 l 1,0,-1
EndSplineSet
Substitution2: "'smcp' Lowercase to Small Capitals lookup 35 subtable" edieresis.sc
Substitution2: "'aalt' Access All Alternates lookup 0 subtable" edieresis.sc
EndChar

StartChar: igrave
Encoding: 236 236 145
Width: 600
GlyphClass: 2
Flags: W
AnchorPoint: "Anchor-3" 580 714 basechar 0
AnchorPoint: "Anchor-2" 300 714 basechar 0
AnchorPoint: "Anchor-1" 300 0 basechar 0
AnchorPoint: "Anchor-0" 540 10 basechar 0
LayerCount: 2
Fore
SplineSet
298 -10 m 0,0,1
 216 -10 216 -10 165.5 22.5 c 128,-1,2
 115 55 115 55 92.5 114.5 c 128,-1,3
 70 174 70 174 70 254 c 2,4,-1
 70 714 l 1,5,-1
 160 714 l 1,6,-1
 160 259 l 2,7,8
 160 203 160 203 172.5 160 c 128,-1,9
 185 117 185 117 215.5 93.5 c 128,-1,10
 246 70 246 70 300 70 c 0,11,12
 357 70 357 70 387.5 95 c 128,-1,13
 418 120 418 120 429 163.5 c 128,-1,14
 440 207 440 207 440 260 c 2,15,-1
 440 714 l 1,16,-1
 530 714 l 1,17,-1
 530 252 l 2,18,19
 530 178 530 178 508 118.5 c 128,-1,20
 486 59 486 59 435 24.5 c 128,-1,21
 384 -10 384 -10 298 -10 c 0,0,1
EndSplineSet
Substitution2: "'smcp' Lowercase to Small Capitals lookup 35 subtable" igrave.sc
Substitution2: "'aalt' Access All Alternates lookup 0 subtable" igrave.sc
EndChar

StartChar: iacute
Encoding: 237 237 146
Width: 600
GlyphClass: 2
Flags: W
AnchorPoint: "Anchor-3" 580 714 basechar 0
AnchorPoint: "Anchor-2" 300 714 basechar 0
AnchorPoint: "Anchor-1" 300 0 basechar 0
LayerCount: 2
Fore
SplineSet
255 0 m 1,0,-1
 25 714 l 1,1,-1
 119 714 l 1,2,-1
 258 250 l 2,3,4
 267 221 267 221 274.5 192.5 c 128,-1,5
 282 164 282 164 289 137.5 c 128,-1,6
 296 111 296 111 301 87 c 1,7,-1
 304 87 l 1,8,9
 309 111 309 111 315.5 137.5 c 128,-1,10
 322 164 322 164 329.5 193.5 c 128,-1,11
 337 223 337 223 346 253 c 2,12,-1
 480 714 l 1,13,-1
 575 714 l 1,14,-1
 349 0 l 1,15,-1
 255 0 l 1,0,-1
EndSplineSet
Substitution2: "'smcp' Lowercase to Small Capitals lookup 35 subtable" iacute.sc
Substitution2: "'aalt' Access All Alternates lookup 0 subtable" iacute.sc
EndChar

StartChar: icircumflex
Encoding: 238 238 147
Width: 600
GlyphClass: 2
Flags: W
AnchorPoint: "Anchor-3" 580 714 basechar 0
AnchorPoint: "Anchor-2" 300 714 basechar 0
AnchorPoint: "Anchor-1" 300 0 basechar 0
LayerCount: 2
Fore
SplineSet
105 0 m 1,0,-1
 25 714 l 1,1,-1
 108 714 l 1,2,3
 112 675 112 675 115.5 635.5 c 128,-1,4
 119 596 119 596 123 556.5 c 128,-1,5
 127 517 127 517 130.5 477.5 c 128,-1,6
 134 438 134 438 138 399 c 0,7,8
 141 368 141 368 144 333 c 128,-1,9
 147 298 147 298 149.5 262.5 c 128,-1,10
 152 227 152 227 154 195 c 128,-1,11
 156 163 156 163 157.5 137.5 c 128,-1,12
 159 112 159 112 159 98 c 1,13,-1
 161 98 l 1,14,15
 164 115 164 115 169 140.5 c 128,-1,16
 174 166 174 166 180 195 c 128,-1,17
 186 224 186 224 192.5 252.5 c 128,-1,18
 199 281 199 281 204 304 c 2,19,-1
 258 536 l 1,20,-1
 344 536 l 1,21,-1
 400 302 l 2,22,23
 406 276 406 276 413 247.5 c 128,-1,24
 420 219 420 219 426 191.5 c 128,-1,25
 432 164 432 164 436.5 139.5 c 128,-1,26
 441 115 441 115 444 98 c 1,27,-1
 446 98 l 1,28,29
 447 112 447 112 448 135.5 c 128,-1,30
 449 159 449 159 450.5 188.5 c 128,-1,31
 452 218 452 218 454 253 c 128,-1,32
 456 288 456 288 459 325.5 c 128,-1,33
 462 363 462 363 465 402 c 0,34,35
 468 433 468 433 470.5 464.5 c 128,-1,36
 473 496 473 496 476 527 c 128,-1,37
 479 558 479 558 481.5 589 c 128,-1,38
 484 620 484 620 486.5 651.5 c 128,-1,39
 489 683 489 683 492 714 c 1,40,-1
 575 714 l 1,41,-1
 503 0 l 1,42,-1
 406 0 l 1,43,-1
 327 328 l 2,44,45
 320 358 320 358 315 382.5 c 128,-1,46
 310 407 310 407 307 424.5 c 128,-1,47
 304 442 304 442 302 450 c 1,48,-1
 300 450 l 1,49,50
 299 442 299 442 296.5 425 c 128,-1,51
 294 408 294 408 289 383.5 c 128,-1,52
 284 359 284 359 277 328 c 2,53,-1
 201 0 l 1,54,-1
 105 0 l 1,0,-1
EndSplineSet
Substitution2: "'smcp' Lowercase to Small Capitals lookup 35 subtable" icircumflex.sc
Substitution2: "'aalt' Access All Alternates lookup 0 subtable" icircumflex.sc
EndChar

StartChar: idieresis
Encoding: 239 239 148
Width: 600
GlyphClass: 2
Flags: W
AnchorPoint: "Anchor-3" 580 714 basechar 0
AnchorPoint: "Anchor-2" 300 714 basechar 0
AnchorPoint: "Anchor-1" 300 0 basechar 0
LayerCount: 2
Fore
SplineSet
35 0 m 1,0,-1
 258 369 l 1,1,-1
 50 714 l 1,2,-1
 147 714 l 1,3,-1
 300 441 l 1,4,-1
 455 714 l 1,5,-1
 550 714 l 1,6,-1
 343 368 l 1,7,-1
 565 0 l 1,8,-1
 472 0 l 1,9,-1
 301 296 l 1,10,-1
 131 0 l 1,11,-1
 35 0 l 1,0,-1
EndSplineSet
Substitution2: "'smcp' Lowercase to Small Capitals lookup 35 subtable" idieresis.sc
Substitution2: "'aalt' Access All Alternates lookup 0 subtable" idieresis.sc
EndChar

StartChar: eth
Encoding: 240 240 149
Width: 600
GlyphClass: 2
Flags: W
AnchorPoint: "Anchor-3" 580 714 basechar 0
AnchorPoint: "Anchor-2" 300 714 basechar 0
AnchorPoint: "Anchor-1" 300 0 basechar 0
LayerCount: 2
Fore
SplineSet
257 0 m 1,0,-1
 257 278 l 1,1,-1
 35 714 l 1,2,-1
 134 714 l 1,3,-1
 301 353 l 1,4,-1
 469 714 l 1,5,-1
 565 714 l 1,6,-1
 343 278 l 1,7,-1
 343 0 l 1,8,-1
 257 0 l 1,0,-1
EndSplineSet
Substitution2: "'smcp' Lowercase to Small Capitals lookup 35 subtable" eth.sc
Substitution2: "'aalt' Access All Alternates lookup 0 subtable" eth.sc
EndChar

StartChar: ntilde
Encoding: 241 241 150
Width: 600
GlyphClass: 2
Flags: W
AnchorPoint: "Anchor-3" 580 714 basechar 0
AnchorPoint: "Anchor-2" 312 714 basechar 0
AnchorPoint: "Anchor-1" 312 0 basechar 0
LayerCount: 2
Fore
SplineSet
95 0 m 1,0,-1
 95 71 l 1,1,-1
 412 636 l 1,2,-1
 115 636 l 1,3,-1
 115 714 l 1,4,-1
 505 714 l 1,5,-1
 505 643 l 1,6,-1
 192 80 l 1,7,-1
 505 80 l 1,8,-1
 505 0 l 1,9,-1
 95 0 l 1,0,-1
EndSplineSet
Substitution2: "'smcp' Lowercase to Small Capitals lookup 35 subtable" ntilde.sc
Substitution2: "'aalt' Access All Alternates lookup 0 subtable" ntilde.sc
EndChar

StartChar: oacute
Encoding: 243 243 151
Width: 600
GlyphClass: 2
Flags: W
AnchorPoint: "Anchor-3" 580 536 basechar 0
AnchorPoint: "Anchor-2" 305 536 basechar 0
AnchorPoint: "Anchor-1" 300 0 basechar 0
AnchorPoint: "Anchor-0" 540 10 basechar 0
LayerCount: 2
Fore
SplineSet
246 -10 m 0,0,1
 167 -10 167 -10 118.5 29 c 128,-1,2
 70 68 70 68 70 147 c 0,3,4
 70 205 70 205 98 243.5 c 128,-1,5
 126 282 126 282 180.5 301.5 c 128,-1,6
 235 321 235 321 313 323 c 2,7,-1
 428 326 l 1,8,-1
 428 348 l 2,9,10
 428 420 428 420 392 446.5 c 128,-1,11
 356 473 356 473 295 473 c 0,12,13
 252 473 252 473 213 462 c 128,-1,14
 174 451 174 451 139 431 c 1,15,-1
 108 499 l 1,16,17
 146 518 146 518 192.5 532 c 128,-1,18
 239 546 239 546 300 546 c 0,19,20
 401 546 401 546 455.5 500.5 c 128,-1,21
 510 455 510 455 510 359 c 2,22,-1
 510 0 l 1,23,-1
 438 0 l 1,24,-1
 428 74 l 1,25,-1
 424 74 l 1,26,27
 402 46 402 46 375.5 27.5 c 128,-1,28
 349 9 349 9 317 -0.5 c 128,-1,29
 285 -10 285 -10 246 -10 c 0,0,1
261 63 m 0,30,31
 306 63 306 63 344 79.5 c 128,-1,32
 382 96 382 96 405 129.5 c 128,-1,33
 428 163 428 163 428 214 c 2,34,-1
 428 262 l 1,35,-1
 332 259 l 2,36,37
 268 257 268 257 229 243.5 c 128,-1,38
 190 230 190 230 172.5 206.5 c 128,-1,39
 155 183 155 183 155 150 c 0,40,41
 155 104 155 104 184 83.5 c 128,-1,42
 213 63 213 63 261 63 c 0,30,31
EndSplineSet
Substitution2: "'smcp' Lowercase to Small Capitals lookup 35 subtable" oacute.sc
Substitution2: "'aalt' Access All Alternates lookup 0 subtable" oacute.sc
EndChar

StartChar: ocircumflex
Encoding: 244 244 152
Width: 600
GlyphClass: 2
Flags: W
AnchorPoint: "Anchor-3" 580 760 basechar 0
AnchorPoint: "Anchor-2" 300 760 basechar 0
AnchorPoint: "Anchor-1" 300 0 basechar 0
LayerCount: 2
Fore
SplineSet
329 -10 m 0,0,1
 270 -10 270 -10 229.5 13.5 c 128,-1,2
 189 37 189 37 166 68 c 1,3,-1
 160 68 l 1,4,-1
 152 0 l 1,5,-1
 80 0 l 1,6,-1
 80 760 l 1,7,-1
 167 760 l 1,8,-1
 167 576 l 2,9,10
 167 548 167 548 166.5 521 c 128,-1,11
 166 494 166 494 163 466 c 1,12,-1
 167 466 l 1,13,14
 188 498 188 498 228 522 c 128,-1,15
 268 546 268 546 329 546 c 0,16,17
 377 546 377 546 417 528.5 c 128,-1,18
 457 511 457 511 485.5 476 c 128,-1,19
 514 441 514 441 529.5 389 c 128,-1,20
 545 337 545 337 545 269 c 0,21,22
 545 200 545 200 529.5 148 c 128,-1,23
 514 96 514 96 485 60.5 c 128,-1,24
 456 25 456 25 416.5 7.5 c 128,-1,25
 377 -10 377 -10 329 -10 c 0,0,1
312 63 m 0,26,27
 385 63 385 63 419 116 c 128,-1,28
 453 169 453 169 453 269 c 0,29,30
 453 367 453 367 419 420 c 128,-1,31
 385 473 385 473 311 473 c 0,32,33
 242 473 242 473 204.5 420.5 c 128,-1,34
 167 368 167 368 167 271 c 0,35,36
 167 170 167 170 202.5 116.5 c 128,-1,37
 238 63 238 63 312 63 c 0,26,27
EndSplineSet
Substitution2: "'smcp' Lowercase to Small Capitals lookup 35 subtable" ocircumflex.sc
Substitution2: "'aalt' Access All Alternates lookup 0 subtable" ocircumflex.sc
EndChar

StartChar: otilde
Encoding: 245 245 153
Width: 600
GlyphClass: 2
Flags: W
LayerCount: 2
Fore
SplineSet
295 90 m 1,0,1
 233 99 233 99 187 129 c 128,-1,2
 141 159 141 159 115.5 216 c 128,-1,3
 90 273 90 273 90 362 c 0,4,5
 90 449 90 449 115.5 507.5 c 128,-1,6
 141 566 141 566 187.5 598.5 c 128,-1,7
 234 631 234 631 295 640 c 1,8,-1
 295 724 l 1,9,-1
 363 724 l 1,10,-1
 363 644 l 1,11,12
 404 643 404 643 444.5 634.5 c 128,-1,13
 485 626 485 626 510 615 c 1,14,-1
 484 542 l 1,15,16
 458 552 458 552 423 560 c 128,-1,17
 388 568 388 568 350 568 c 0,18,19
 292 568 292 568 254.5 545.5 c 128,-1,20
 217 523 217 523 198.5 477.5 c 128,-1,21
 180 432 180 432 180 363 c 256,22,23
 180 294 180 294 199 250 c 128,-1,24
 218 206 218 206 255 185 c 128,-1,25
 292 164 292 164 346 164 c 0,26,27
 393 164 393 164 431.5 172.5 c 128,-1,28
 470 181 470 181 501 194 c 1,29,-1
 501 117 l 1,30,31
 474 104 474 104 439.5 96.5 c 128,-1,32
 405 89 405 89 362 87 c 1,33,-1
 362 -10 l 1,34,-1
 295 -10 l 1,35,-1
 295 90 l 1,0,1
EndSplineSet
Substitution2: "'smcp' Lowercase to Small Capitals lookup 35 subtable" otilde.sc
Substitution2: "'aalt' Access All Alternates lookup 0 subtable" otilde.sc
EndChar

StartChar: odieresis
Encoding: 246 246 154
Width: 600
GlyphClass: 2
Flags: W
AnchorPoint: "Anchor-4" 300 268 basechar 0
AnchorPoint: "Anchor-3" 580 760 basechar 0
AnchorPoint: "Anchor-2" 300 760 basechar 0
AnchorPoint: "Anchor-1" 300 0 basechar 0
LayerCount: 2
Fore
SplineSet
274 -10 m 0,0,1
 225 -10 225 -10 184.5 7 c 128,-1,2
 144 24 144 24 115 59 c 128,-1,3
 86 94 86 94 70.5 147 c 128,-1,4
 55 200 55 200 55 271 c 0,5,6
 55 360 55 360 80.5 421.5 c 128,-1,7
 106 483 106 483 157 514.5 c 128,-1,8
 208 546 208 546 284 546 c 0,9,10
 321 546 321 546 349.5 536 c 128,-1,11
 378 526 378 526 398.5 508.5 c 128,-1,12
 419 491 419 491 431 468 c 1,13,-1
 437 468 l 1,14,15
 436 478 436 478 434.5 491.5 c 128,-1,16
 433 505 433 505 432 519.5 c 128,-1,17
 431 534 431 534 431 547 c 2,18,-1
 431 760 l 1,19,-1
 520 760 l 1,20,-1
 520 0 l 1,21,-1
 446 0 l 1,22,-1
 436 72 l 1,23,-1
 432 72 l 1,24,25
 417 48 417 48 395.5 29.5 c 128,-1,26
 374 11 374 11 344.5 0.5 c 128,-1,27
 315 -10 315 -10 274 -10 c 0,0,1
291 63 m 0,28,29
 362 63 362 63 396.5 112.5 c 128,-1,30
 431 162 431 162 431 247 c 2,31,-1
 431 267 l 2,32,33
 431 326 431 326 418 372.5 c 128,-1,34
 405 419 405 419 375 446 c 128,-1,35
 345 473 345 473 294 473 c 0,36,37
 224 473 224 473 185.5 421 c 128,-1,38
 147 369 147 369 147 262 c 0,39,40
 147 163 147 163 182.5 113 c 128,-1,41
 218 63 218 63 291 63 c 0,28,29
EndSplineSet
Substitution2: "'smcp' Lowercase to Small Capitals lookup 35 subtable" odieresis.sc
Substitution2: "'aalt' Access All Alternates lookup 0 subtable" odieresis.sc
EndChar

StartChar: divide
Encoding: 247 247 155
Width: 600
Flags: W
AnchorPoint: "Anchor-3" 580 536 basechar 0
AnchorPoint: "Anchor-2" 304 536 basechar 0
AnchorPoint: "Anchor-1" 310 0 basechar 0
AnchorPoint: "Anchor-0" 306 10 basechar 0
LayerCount: 2
Fore
SplineSet
337 -10 m 0,0,1
 251 -10 251 -10 189 22 c 128,-1,2
 127 54 127 54 93.5 115.5 c 128,-1,3
 60 177 60 177 60 266 c 0,4,5
 60 354 60 354 92 416.5 c 128,-1,6
 124 479 124 479 181 512.5 c 128,-1,7
 238 546 238 546 314 546 c 0,8,9
 384 546 384 546 434.5 515 c 128,-1,10
 485 484 485 484 512.5 427.5 c 128,-1,11
 540 371 540 371 540 292 c 2,12,-1
 540 251 l 1,13,-1
 151 251 l 1,14,15
 153 181 153 181 177.5 140 c 128,-1,16
 202 99 202 99 244.5 81.5 c 128,-1,17
 287 64 287 64 343 64 c 0,18,19
 387 64 387 64 430 76 c 128,-1,20
 473 88 473 88 516 108 c 1,21,-1
 516 28 l 1,22,23
 470 8 470 8 424 -1 c 128,-1,24
 378 -10 378 -10 337 -10 c 0,0,1
450 323 m 1,25,26
 448 370 448 370 432 403.5 c 128,-1,27
 416 437 416 437 386.5 455 c 128,-1,28
 357 473 357 473 314 473 c 0,29,30
 247 473 247 473 205.5 432.5 c 128,-1,31
 164 392 164 392 153 323 c 1,32,-1
 450 323 l 1,25,26
EndSplineSet
EndChar

StartChar: oslash
Encoding: 248 248 156
Width: 600
GlyphClass: 2
Flags: W
AnchorPoint: "Anchor-3" 620 765 basechar 0
AnchorPoint: "Anchor-2" 406 765 basechar 0
AnchorPoint: "Anchor-1" 300 0 basechar 0
LayerCount: 2
Fore
SplineSet
241 0 m 1,0,-1
 241 461 l 1,1,-1
 66 461 l 1,2,-1
 66 523 l 1,3,-1
 241 536 l 1,4,-1
 241 597 l 2,5,6
 241 661 241 661 265.5 697.5 c 128,-1,7
 290 734 290 734 334 749.5 c 128,-1,8
 378 765 378 765 436 765 c 0,9,10
 480 765 480 765 513 759 c 128,-1,11
 546 753 546 753 570 745 c 1,12,-1
 550 676 l 1,13,14
 530 682 530 682 500 686.5 c 128,-1,15
 470 691 470 691 441 691 c 0,16,17
 389 691 389 691 360 669 c 128,-1,18
 331 647 331 647 331 585 c 2,19,-1
 331 536 l 1,20,-1
 533 536 l 1,21,-1
 533 461 l 1,22,-1
 331 461 l 1,23,-1
 331 0 l 1,24,-1
 241 0 l 1,0,-1
EndSplineSet
Substitution2: "'smcp' Lowercase to Small Capitals lookup 35 subtable" oslash.sc
Substitution2: "'aalt' Access All Alternates lookup 0 subtable" oslash.sc
EndChar

StartChar: ugrave
Encoding: 249 249 157
Width: 600
GlyphClass: 2
Flags: W
AnchorPoint: "Anchor-3" 580 536 basechar 0
AnchorPoint: "Anchor-2" 300 536 basechar 0
AnchorPoint: "Anchor-1" 300 -245 basechar 0
LayerCount: 2
Fore
SplineSet
276 -245 m 0,0,1
 221 -245 221 -245 172.5 -234.5 c 128,-1,2
 124 -224 124 -224 83 -207 c 1,3,-1
 83 -127 l 1,4,5
 123 -150 123 -150 175.5 -161.5 c 128,-1,6
 228 -173 228 -173 273 -173 c 0,7,8
 364 -173 364 -173 400 -130.5 c 128,-1,9
 436 -88 436 -88 436 -14 c 2,10,-1
 436 5 l 2,11,12
 436 17 436 17 436.5 28 c 128,-1,13
 437 39 437 39 439 62 c 1,14,-1
 435 62 l 1,15,16
 407 21 407 21 369.5 5.5 c 128,-1,17
 332 -10 332 -10 279 -10 c 0,18,19
 173 -10 173 -10 114 62.5 c 128,-1,20
 55 135 55 135 55 265 c 0,21,22
 55 396 55 396 113.5 471 c 128,-1,23
 172 546 172 546 274 546 c 0,24,25
 328 546 328 546 365 528.5 c 128,-1,26
 402 511 402 511 431 470 c 1,27,-1
 436 470 l 1,28,-1
 448 536 l 1,29,-1
 520 536 l 1,30,-1
 520 -14 l 2,31,32
 520 -90 520 -90 494 -141.5 c 128,-1,33
 468 -193 468 -193 414 -219 c 128,-1,34
 360 -245 360 -245 276 -245 c 0,0,1
296 63 m 0,35,36
 329 63 329 63 355.5 73.5 c 128,-1,37
 382 84 382 84 400.5 106.5 c 128,-1,38
 419 129 419 129 429 163.5 c 128,-1,39
 439 198 439 198 439 246 c 2,40,-1
 439 267 l 2,41,42
 439 340 439 340 421.5 385.5 c 128,-1,43
 404 431 404 431 371 452 c 128,-1,44
 338 473 338 473 293 473 c 0,45,46
 217 473 217 473 182 419.5 c 128,-1,47
 147 366 147 366 147 268 c 0,48,49
 147 168 147 168 183.5 115.5 c 128,-1,50
 220 63 220 63 296 63 c 0,35,36
EndSplineSet
Substitution2: "'smcp' Lowercase to Small Capitals lookup 35 subtable" ugrave.sc
Substitution2: "'aalt' Access All Alternates lookup 0 subtable" ugrave.sc
EndChar

StartChar: uacute
Encoding: 250 250 158
Width: 600
GlyphClass: 2
Flags: W
AnchorPoint: "Anchor-4" 300 268 basechar 0
AnchorPoint: "Anchor-3" 580 760 basechar 0
AnchorPoint: "Anchor-2" 126 760 basechar 0
AnchorPoint: "Anchor-1" 300 0 basechar 0
LayerCount: 2
Fore
SplineSet
80 0 m 1,0,-1
 80 760 l 1,1,-1
 170 760 l 1,2,-1
 170 544 l 2,3,4
 170 525 170 525 168.5 496 c 128,-1,5
 167 467 167 467 166 450 c 1,6,-1
 171 450 l 1,7,8
 188 483 188 483 213.5 504 c 128,-1,9
 239 525 239 525 271 535.5 c 128,-1,10
 303 546 303 546 339 546 c 0,11,12
 422 546 422 546 473.5 499.5 c 128,-1,13
 525 453 525 453 525 350 c 2,14,-1
 525 0 l 1,15,-1
 435 0 l 1,16,-1
 435 332 l 2,17,18
 435 405 435 405 404 439 c 128,-1,19
 373 473 373 473 316 473 c 0,20,21
 272 473 272 473 239 450 c 128,-1,22
 206 427 206 427 188 383.5 c 128,-1,23
 170 340 170 340 170 278 c 2,24,-1
 170 0 l 1,25,-1
 80 0 l 1,0,-1
EndSplineSet
Substitution2: "'smcp' Lowercase to Small Capitals lookup 35 subtable" uacute.sc
Substitution2: "'aalt' Access All Alternates lookup 0 subtable" uacute.sc
EndChar

StartChar: ucircumflex
Encoding: 251 251 159
Width: 600
GlyphClass: 2
Flags: W
AnchorPoint: "Anchor-4" 320 283 basechar 0
AnchorPoint: "Anchor-3" 498 760 basechar 0
AnchorPoint: "Anchor-2" 307 760 basechar 0
AnchorPoint: "Anchor-1" 321 0 basechar 0
LayerCount: 2
Fore
SplineSet
80 0 m 1,0,-1
 80 60 l 1,1,-1
 271 75 l 1,2,-1
 271 461 l 1,3,-1
 96 474 l 1,4,-1
 96 536 l 1,5,-1
 361 536 l 1,6,-1
 361 75 l 1,7,-1
 540 60 l 1,8,-1
 540 0 l 1,9,-1
 80 0 l 1,0,-1
307 633 m 256,10,11
 281 633 281 633 262.5 649 c 128,-1,12
 244 665 244 665 244 696 c 0,13,14
 244 729 244 729 262.5 744.5 c 128,-1,15
 281 760 281 760 307 760 c 256,16,17
 333 760 333 760 351.5 744.5 c 128,-1,18
 370 729 370 729 370 696 c 0,19,20
 370 665 370 665 351.5 649 c 128,-1,21
 333 633 333 633 307 633 c 256,10,11
EndSplineSet
Substitution2: "'smcp' Lowercase to Small Capitals lookup 35 subtable" ucircumflex.sc
Substitution2: "'aalt' Access All Alternates lookup 0 subtable" ucircumflex.sc
EndChar

StartChar: udieresis
Encoding: 252 252 160
Width: 600
GlyphClass: 2
Flags: W
AnchorPoint: "Anchor-3" 520 760 basechar 0
AnchorPoint: "Anchor-2" 340 760 basechar 0
AnchorPoint: "Anchor-1" 227 -245 basechar 0
LayerCount: 2
Fore
SplineSet
192 -245 m 0,0,1
 161 -245 161 -245 123.5 -240 c 128,-1,2
 86 -235 86 -235 60 -228 c 1,3,-1
 60 -149 l 1,4,5
 78 -155 78 -155 98.5 -159.5 c 128,-1,6
 119 -164 119 -164 140.5 -167 c 128,-1,7
 162 -170 162 -170 182 -170 c 0,8,9
 227 -170 227 -170 254.5 -155.5 c 128,-1,10
 282 -141 282 -141 294.5 -111.5 c 128,-1,11
 307 -82 307 -82 307 -37 c 2,12,-1
 307 461 l 1,13,-1
 132 474 l 1,14,-1
 132 536 l 1,15,-1
 397 536 l 1,16,-1
 397 -52 l 2,17,18
 397 -145 397 -145 343.5 -195 c 128,-1,19
 290 -245 290 -245 192 -245 c 0,0,1
342 633 m 0,20,21
 316 633 316 633 298 649 c 128,-1,22
 280 665 280 665 280 697 c 256,23,24
 280 729 280 729 297.5 744.5 c 128,-1,25
 315 760 315 760 342 760 c 0,26,27
 368 760 368 760 386.5 744.5 c 128,-1,28
 405 729 405 729 405 697 c 0,29,30
 405 664 405 664 386 648.5 c 128,-1,31
 367 633 367 633 342 633 c 0,20,21
EndSplineSet
Substitution2: "'smcp' Lowercase to Small Capitals lookup 35 subtable" udieresis.sc
Substitution2: "'aalt' Access All Alternates lookup 0 subtable" udieresis.sc
EndChar

StartChar: yacute
Encoding: 253 253 161
Width: 600
GlyphClass: 2
Flags: W
AnchorPoint: "Anchor-3" 500 860 basechar 0
AnchorPoint: "Anchor-2" 340 760 basechar 0
AnchorPoint: "Anchor-1" 339 0 basechar 0
LayerCount: 2
Fore
SplineSet
105 0 m 1,0,-1
 105 760 l 1,1,-1
 195 760 l 1,2,-1
 195 394 l 2,3,4
 195 373 195 373 194 347 c 128,-1,5
 193 321 193 321 191.5 294 c 128,-1,6
 190 267 190 267 188 243 c 1,7,-1
 190 243 l 1,8,9
 209 268 209 268 226.5 288.5 c 128,-1,10
 244 309 244 309 263 331 c 2,11,-1
 448 536 l 1,12,-1
 556 536 l 1,13,-1
 343 305 l 1,14,-1
 570 0 l 1,15,-1
 466 0 l 1,16,-1
 283 252 l 1,17,-1
 195 167 l 1,18,-1
 195 0 l 1,19,-1
 105 0 l 1,0,-1
EndSplineSet
Substitution2: "'smcp' Lowercase to Small Capitals lookup 35 subtable" yacute.sc
Substitution2: "'aalt' Access All Alternates lookup 0 subtable" yacute.sc
EndChar

StartChar: thorn
Encoding: 254 254 162
Width: 600
GlyphClass: 2
Flags: W
AnchorPoint: "Anchor-4" 322 387 basechar 0
AnchorPoint: "Anchor-3" 493 760 basechar 0
AnchorPoint: "Anchor-2" 300 760 basechar 0
AnchorPoint: "Anchor-1" 322 0 basechar 0
LayerCount: 2
Fore
SplineSet
80 0 m 1,0,-1
 80 60 l 1,1,-1
 276 75 l 1,2,-1
 276 685 l 1,3,-1
 86 698 l 1,4,-1
 86 760 l 1,5,-1
 366 760 l 1,6,-1
 366 75 l 1,7,-1
 540 60 l 1,8,-1
 540 0 l 1,9,-1
 80 0 l 1,0,-1
EndSplineSet
Substitution2: "'smcp' Lowercase to Small Capitals lookup 35 subtable" thorn.sc
Substitution2: "'aalt' Access All Alternates lookup 0 subtable" thorn.sc
EndChar

StartChar: ydieresis
Encoding: 255 255 163
Width: 600
GlyphClass: 2
Flags: W
AnchorPoint: "Anchor-3" 580 536 basechar 0
AnchorPoint: "Anchor-2" 326 536 basechar 0
AnchorPoint: "Anchor-1" 305 0 basechar 0
LayerCount: 2
Fore
SplineSet
50 0 m 1,0,-1
 50 536 l 1,1,-1
 112 536 l 1,2,-1
 125 477 l 1,3,-1
 130 477 l 1,4,5
 143 504 143 504 158 519 c 128,-1,6
 173 534 173 534 190.5 540 c 128,-1,7
 208 546 208 546 229 546 c 0,8,9
 270 546 270 546 292.5 526.5 c 128,-1,10
 315 507 315 507 327 469 c 1,11,-1
 330 469 l 1,12,13
 347 506 347 506 372.5 526 c 128,-1,14
 398 546 398 546 440 546 c 0,15,16
 481 546 481 546 505.5 525 c 128,-1,17
 530 504 530 504 540.5 461 c 128,-1,18
 551 418 551 418 551 350 c 2,19,-1
 551 0 l 1,20,-1
 471 0 l 1,21,-1
 471 335 l 2,22,23
 471 377 471 377 467.5 406.5 c 128,-1,24
 464 436 464 436 453 452 c 128,-1,25
 442 468 442 468 417 468 c 0,26,27
 393 468 393 468 376 445.5 c 128,-1,28
 359 423 359 423 350 379 c 128,-1,29
 341 335 341 335 341 268 c 2,30,-1
 341 0 l 1,31,-1
 261 0 l 1,32,-1
 261 335 l 2,33,34
 261 378 261 378 256 407.5 c 128,-1,35
 251 437 251 437 238.5 452.5 c 128,-1,36
 226 468 226 468 201 468 c 0,37,38
 175 468 175 468 159 443.5 c 128,-1,39
 143 419 143 419 136.5 374.5 c 128,-1,40
 130 330 130 330 130 268 c 2,41,-1
 130 0 l 1,42,-1
 50 0 l 1,0,-1
EndSplineSet
Substitution2: "'smcp' Lowercase to Small Capitals lookup 35 subtable" ydieresis.sc
Substitution2: "'aalt' Access All Alternates lookup 0 subtable" ydieresis.sc
EndChar

StartChar: Amacron
Encoding: 256 256 164
Width: 600
GlyphClass: 2
Flags: W
AnchorPoint: "Anchor-3" 580 536 basechar 0
AnchorPoint: "Anchor-2" 312 536 basechar 0
AnchorPoint: "Anchor-1" 306 0 basechar 0
LayerCount: 2
Fore
SplineSet
80 0 m 1,0,-1
 80 536 l 1,1,-1
 152 536 l 1,2,-1
 165 457 l 1,3,-1
 170 457 l 1,4,5
 186 488 186 488 211.5 507.5 c 128,-1,6
 237 527 237 527 271 536.5 c 128,-1,7
 305 546 305 546 345 546 c 0,8,9
 426 546 426 546 475.5 500.5 c 128,-1,10
 525 455 525 455 525 358 c 2,11,-1
 525 0 l 1,12,-1
 435 0 l 1,13,-1
 435 342 l 2,14,15
 435 410 435 410 407.5 441.5 c 128,-1,16
 380 473 380 473 319 473 c 0,17,18
 237 473 237 473 203.5 421 c 128,-1,19
 170 369 170 369 170 275 c 2,20,-1
 170 0 l 1,21,-1
 80 0 l 1,0,-1
EndSplineSet
Substitution2: "'c2sc' Capitals to Small Capitals lookup 34 subtable" amacron.sc
Substitution2: "'aalt' Access All Alternates lookup 0 subtable" amacron.sc
EndChar

StartChar: amacron
Encoding: 257 257 165
Width: 600
GlyphClass: 2
Flags: W
AnchorPoint: "Anchor-4" 300 268 basechar 0
AnchorPoint: "Anchor-3" 580 536 basechar 0
AnchorPoint: "Anchor-2" 300 536 basechar 0
AnchorPoint: "Anchor-1" 300 0 basechar 0
AnchorPoint: "Anchor-0" 301 10 basechar 0
LayerCount: 2
Fore
SplineSet
301 -10 m 0,0,1
 249 -10 249 -10 204 7 c 128,-1,2
 159 24 159 24 125.5 59 c 128,-1,3
 92 94 92 94 73.5 146.5 c 128,-1,4
 55 199 55 199 55 270 c 0,5,6
 55 363 55 363 86.5 424 c 128,-1,7
 118 485 118 485 173 515.5 c 128,-1,8
 228 546 228 546 298 546 c 256,9,10
 368 546 368 546 424 515.5 c 128,-1,11
 480 485 480 485 512.5 423.5 c 128,-1,12
 545 362 545 362 545 267 c 0,13,14
 545 197 545 197 526.5 145 c 128,-1,15
 508 93 508 93 475.5 58.5 c 128,-1,16
 443 24 443 24 398.5 7 c 128,-1,17
 354 -10 354 -10 301 -10 c 0,0,1
300 63 m 256,18,19
 352 63 352 63 386 88 c 128,-1,20
 420 113 420 113 437 159.5 c 128,-1,21
 454 206 454 206 454 269 c 0,22,23
 454 333 454 333 437 378.5 c 128,-1,24
 420 424 420 424 385.5 448.5 c 128,-1,25
 351 473 351 473 299 473 c 0,26,27
 221 473 221 473 182.5 418.5 c 128,-1,28
 144 364 144 364 144 269 c 0,29,30
 144 206 144 206 161.5 159.5 c 128,-1,31
 179 113 179 113 213.5 88 c 128,-1,32
 248 63 248 63 300 63 c 256,18,19
EndSplineSet
Substitution2: "'smcp' Lowercase to Small Capitals lookup 35 subtable" amacron.sc
Substitution2: "'aalt' Access All Alternates lookup 0 subtable" amacron.sc
EndChar

StartChar: Abreve
Encoding: 258 258 166
Width: 600
GlyphClass: 2
Flags: W
AnchorPoint: "Anchor-3" 580 536 basechar 0
AnchorPoint: "Anchor-2" 310 536 basechar 0
AnchorPoint: "Anchor-1" 310 -240 basechar 0
LayerCount: 2
Fore
SplineSet
80 -240 m 1,0,-1
 80 536 l 1,1,-1
 154 536 l 1,2,-1
 165 463 l 1,3,-1
 169 463 l 1,4,5
 185 489 185 489 207 507.5 c 128,-1,6
 229 526 229 526 259 536 c 128,-1,7
 289 546 289 546 329 546 c 0,8,9
 378 546 378 546 418 528.5 c 128,-1,10
 458 511 458 511 486.5 476 c 128,-1,11
 515 441 515 441 530 389 c 128,-1,12
 545 337 545 337 545 269 c 0,13,14
 545 178 545 178 518.5 115.5 c 128,-1,15
 492 53 492 53 443.5 21.5 c 128,-1,16
 395 -10 395 -10 329 -10 c 0,17,18
 290 -10 290 -10 259.5 1 c 128,-1,19
 229 12 229 12 207 30 c 128,-1,20
 185 48 185 48 169 69 c 1,21,-1
 163 69 l 1,22,23
 166 50 166 50 167.5 29.5 c 128,-1,24
 169 9 169 9 169 -11 c 2,25,-1
 169 -240 l 1,26,-1
 80 -240 l 1,0,-1
310 63 m 0,27,28
 385 63 385 63 419 114.5 c 128,-1,29
 453 166 453 166 453 271 c 0,30,31
 453 374 453 374 419.5 423.5 c 128,-1,32
 386 473 386 473 309 473 c 0,33,34
 236 473 236 473 202.5 425.5 c 128,-1,35
 169 378 169 378 169 289 c 2,36,-1
 169 269 l 2,37,38
 169 174 169 174 199.5 118.5 c 128,-1,39
 230 63 230 63 310 63 c 0,27,28
EndSplineSet
Substitution2: "'c2sc' Capitals to Small Capitals lookup 34 subtable" abreve.sc
Substitution2: "'aalt' Access All Alternates lookup 0 subtable" abreve.sc
EndChar

StartChar: abreve
Encoding: 259 259 167
Width: 600
GlyphClass: 2
Flags: W
AnchorPoint: "Anchor-3" 580 536 basechar 0
AnchorPoint: "Anchor-2" 280 536 basechar 0
AnchorPoint: "Anchor-1" 280 -240 basechar 0
LayerCount: 2
Fore
SplineSet
431 -11 m 2,0,1
 431 2 431 2 431.5 16 c 128,-1,2
 432 30 432 30 433 44 c 128,-1,3
 434 58 434 58 434 72 c 1,4,-1
 431 72 l 1,5,6
 409 38 409 38 371.5 14 c 128,-1,7
 334 -10 334 -10 274 -10 c 0,8,9
 226 -10 226 -10 185.5 7.5 c 128,-1,10
 145 25 145 25 116 60 c 128,-1,11
 87 95 87 95 71 147 c 128,-1,12
 55 199 55 199 55 267 c 0,13,14
 55 336 55 336 71 388 c 128,-1,15
 87 440 87 440 117 475 c 128,-1,16
 147 510 147 510 187 528 c 128,-1,17
 227 546 227 546 275 546 c 0,18,19
 334 546 334 546 371.5 522 c 128,-1,20
 409 498 409 498 431 464 c 1,21,-1
 435 464 l 1,22,-1
 448 536 l 1,23,-1
 520 536 l 1,24,-1
 520 -240 l 1,25,-1
 431 -240 l 1,26,-1
 431 -11 l 2,0,1
290 63 m 0,27,28
 360 63 360 63 395.5 109 c 128,-1,29
 431 155 431 155 431 247 c 2,30,-1
 431 267 l 2,31,32
 431 364 431 364 399.5 418.5 c 128,-1,33
 368 473 368 473 288 473 c 0,34,35
 215 473 215 473 181 420 c 128,-1,36
 147 367 147 367 147 266 c 0,37,38
 147 174 147 174 181.5 118.5 c 128,-1,39
 216 63 216 63 290 63 c 0,27,28
EndSplineSet
Substitution2: "'smcp' Lowercase to Small Capitals lookup 35 subtable" abreve.sc
Substitution2: "'aalt' Access All Alternates lookup 0 subtable" abreve.sc
EndChar

StartChar: Aogonek
Encoding: 260 260 168
Width: 600
GlyphClass: 2
Flags: W
AnchorPoint: "Anchor-3" 580 536 basechar 0
AnchorPoint: "Anchor-2" 340 536 basechar 0
AnchorPoint: "Anchor-1" 271 0 basechar 0
LayerCount: 2
Fore
SplineSet
62 0 m 1,0,-1
 62 60 l 1,1,-1
 225 75 l 1,2,-1
 225 461 l 1,3,-1
 78 474 l 1,4,-1
 78 536 l 1,5,-1
 297 536 l 1,6,-1
 309 438 l 1,7,-1
 313 438 l 1,8,9
 341 491 341 491 374.5 518.5 c 128,-1,10
 408 546 408 546 463 546 c 0,11,12
 497 546 497 546 523.5 540 c 128,-1,13
 550 534 550 534 572 524 c 1,14,-1
 548 445 l 1,15,16
 532 454 532 454 510 460.5 c 128,-1,17
 488 467 488 467 463 467 c 0,18,19
 420 467 420 467 387 440 c 128,-1,20
 354 413 354 413 335 368 c 128,-1,21
 316 323 316 323 316 269 c 2,22,-1
 316 75 l 1,23,-1
 472 60 l 1,24,-1
 472 0 l 1,25,-1
 62 0 l 1,0,-1
EndSplineSet
Substitution2: "'c2sc' Capitals to Small Capitals lookup 34 subtable" aogonek.sc
Substitution2: "'locl' Localized Forms in Latin lookup 10 subtable" Aogonek.loclNAV
Ligature2: "'ccmp' Glyph Composition/Decomposition lookup 6 subtable" A uni0328
AlternateSubs2: "'aalt' Access All Alternates lookup 1 subtable" Aogonek.loclNAV aogonek.sc
EndChar

StartChar: aogonek
Encoding: 261 261 169
Width: 600
GlyphClass: 2
Flags: W
AnchorPoint: "Anchor-3" 580 536 basechar 0
AnchorPoint: "Anchor-2" 305 536 basechar 0
AnchorPoint: "Anchor-1" 305 0 basechar 0
LayerCount: 2
Fore
SplineSet
279 -10 m 0,0,1
 229 -10 229 -10 183.5 -1 c 128,-1,2
 138 8 138 8 105 24 c 1,3,-1
 105 107 l 1,4,5
 140 91 140 91 182.5 77.5 c 128,-1,6
 225 64 225 64 284 64 c 0,7,8
 350 64 350 64 377.5 84.5 c 128,-1,9
 405 105 405 105 405 144 c 0,10,11
 405 165 405 165 395.5 178.5 c 128,-1,12
 386 192 386 192 359 206 c 128,-1,13
 332 220 332 220 280 242 c 0,14,15
 228 265 228 265 191 285 c 128,-1,16
 154 305 154 305 134 332.5 c 128,-1,17
 114 360 114 360 114 403 c 0,18,19
 114 451 114 451 138.5 482.5 c 128,-1,20
 163 514 163 514 209.5 530 c 128,-1,21
 256 546 256 546 320 546 c 0,22,23
 364 546 364 546 404 538 c 128,-1,24
 444 530 444 530 487 512 c 1,25,-1
 460 442 l 1,26,27
 420 459 420 459 386.5 465 c 128,-1,28
 353 471 353 471 320 471 c 0,29,30
 258 471 258 471 229.5 455 c 128,-1,31
 201 439 201 439 201 405 c 0,32,33
 201 383 201 383 213.5 368 c 128,-1,34
 226 353 226 353 254.5 339 c 128,-1,35
 283 325 283 325 330 305 c 0,36,37
 383 283 383 283 420 264 c 128,-1,38
 457 245 457 245 476 218.5 c 128,-1,39
 495 192 495 192 495 146 c 0,40,41
 495 95 495 95 470.5 60.5 c 128,-1,42
 446 26 446 26 398 8 c 128,-1,43
 350 -10 350 -10 279 -10 c 0,0,1
EndSplineSet
Substitution2: "'smcp' Lowercase to Small Capitals lookup 35 subtable" aogonek.sc
Substitution2: "'locl' Localized Forms in Latin lookup 10 subtable" aogonek.loclNAV
Ligature2: "'ccmp' Glyph Composition/Decomposition lookup 6 subtable" a uni0328
AlternateSubs2: "'aalt' Access All Alternates lookup 1 subtable" aogonek.loclNAV aogonek.sc
EndChar

StartChar: Cacute
Encoding: 262 262 170
Width: 600
GlyphClass: 2
Flags: W
AnchorPoint: "Anchor-4" 252 268 basechar 0
AnchorPoint: "Anchor-3" 490 860 basechar 0
AnchorPoint: "Anchor-2" 255 679 basechar 0
AnchorPoint: "Anchor-1" 374 0 basechar 0
LayerCount: 2
Fore
SplineSet
402 -10 m 0,0,1
 345 -10 345 -10 300 5 c 128,-1,2
 255 20 255 20 228.5 58 c 128,-1,3
 202 96 202 96 202 163 c 2,4,-1
 202 461 l 1,5,-1
 56 461 l 1,6,-1
 56 523 l 1,7,-1
 202 539 l 1,8,-1
 220 679 l 1,9,-1
 292 679 l 1,10,-1
 292 536 l 1,11,-1
 501 536 l 1,12,-1
 501 461 l 1,13,-1
 292 461 l 1,14,-1
 292 180 l 2,15,16
 292 140 292 140 303.5 114 c 128,-1,17
 315 88 315 88 341 75.5 c 128,-1,18
 367 63 367 63 408 63 c 0,19,20
 434 63 434 63 464 68 c 128,-1,21
 494 73 494 73 516 78 c 1,22,-1
 516 6 l 1,23,24
 492 0 492 0 463 -5 c 128,-1,25
 434 -10 434 -10 402 -10 c 0,0,1
EndSplineSet
Substitution2: "'c2sc' Capitals to Small Capitals lookup 34 subtable" cacute.sc
Substitution2: "'aalt' Access All Alternates lookup 0 subtable" cacute.sc
EndChar

StartChar: cacute
Encoding: 263 263 171
Width: 600
GlyphClass: 2
Flags: W
AnchorPoint: "Anchor-3" 580 536 basechar 0
AnchorPoint: "Anchor-2" 300 536 basechar 0
AnchorPoint: "Anchor-1" 300 0 basechar 0
AnchorPoint: "Anchor-0" 540 10 basechar 0
LayerCount: 2
Fore
SplineSet
261 -10 m 0,0,1
 166 -10 166 -10 120.5 37.5 c 128,-1,2
 75 85 75 85 75 179 c 2,3,-1
 75 536 l 1,4,-1
 165 536 l 1,5,-1
 165 193 l 2,6,7
 165 129 165 129 191.5 96 c 128,-1,8
 218 63 218 63 283 63 c 0,9,10
 339 63 339 63 371 86.5 c 128,-1,11
 403 110 403 110 416.5 154 c 128,-1,12
 430 198 430 198 430 260 c 2,13,-1
 430 536 l 1,14,-1
 520 536 l 1,15,-1
 520 0 l 1,16,-1
 448 0 l 1,17,-1
 435 72 l 1,18,-1
 430 72 l 1,19,20
 411 42 411 42 386 24 c 128,-1,21
 361 6 361 6 330 -2 c 128,-1,22
 299 -10 299 -10 261 -10 c 0,0,1
EndSplineSet
Substitution2: "'smcp' Lowercase to Small Capitals lookup 35 subtable" cacute.sc
Substitution2: "'aalt' Access All Alternates lookup 0 subtable" cacute.sc
EndChar

StartChar: Ccircumflex
Encoding: 264 264 172
Width: 600
GlyphClass: 2
Flags: W
AnchorPoint: "Anchor-3" 580 536 basechar 0
AnchorPoint: "Anchor-2" 300 536 basechar 0
AnchorPoint: "Anchor-1" 300 0 basechar 0
LayerCount: 2
Fore
SplineSet
243 0 m 1,0,-1
 45 536 l 1,1,-1
 137 536 l 1,2,-1
 249 218 l 2,3,4
 260 186 260 186 272.5 151 c 128,-1,5
 285 116 285 116 298 76 c 1,6,-1
 301 76 l 1,7,8
 314 116 314 116 327.5 151.5 c 128,-1,9
 341 187 341 187 351 218 c 2,10,-1
 460 536 l 1,11,-1
 554 536 l 1,12,-1
 354 0 l 1,13,-1
 243 0 l 1,0,-1
EndSplineSet
Substitution2: "'c2sc' Capitals to Small Capitals lookup 34 subtable" ccircumflex.sc
Substitution2: "'aalt' Access All Alternates lookup 0 subtable" ccircumflex.sc
EndChar

StartChar: ccircumflex
Encoding: 265 265 173
Width: 600
GlyphClass: 2
Flags: W
AnchorPoint: "Anchor-3" 580 536 basechar 0
AnchorPoint: "Anchor-2" 301 536 basechar 0
AnchorPoint: "Anchor-1" 301 0 basechar 0
LayerCount: 2
Fore
SplineSet
102 0 m 1,0,-1
 16 536 l 1,1,-1
 100 536 l 1,2,-1
 139 271 l 2,3,4
 145 234 145 234 147.5 205 c 128,-1,5
 150 176 150 176 152.5 146 c 128,-1,6
 155 116 155 116 157 75 c 1,7,-1
 160 75 l 1,8,9
 163 92 163 92 168.5 122.5 c 128,-1,10
 174 153 174 153 181.5 188.5 c 128,-1,11
 189 224 189 224 198 254 c 2,12,-1
 250 435 l 1,13,-1
 349 435 l 1,14,-1
 399 254 l 2,15,16
 408 224 408 224 416 189.5 c 128,-1,17
 424 155 424 155 430.5 124.5 c 128,-1,18
 437 94 437 94 439 75 c 1,19,-1
 442 75 l 1,20,21
 445 115 445 115 447 144.5 c 128,-1,22
 449 174 449 174 452 203 c 128,-1,23
 455 232 455 232 461 271 c 2,24,-1
 503 536 l 1,25,-1
 585 536 l 1,26,-1
 497 0 l 1,27,-1
 389 0 l 1,28,-1
 341 188 l 2,29,30
 331 229 331 229 320 270 c 128,-1,31
 309 311 309 311 301 351 c 1,32,-1
 298 351 l 1,33,34
 290 311 290 311 278.5 270 c 128,-1,35
 267 229 267 229 256 188 c 2,36,-1
 207 0 l 1,37,-1
 102 0 l 1,0,-1
EndSplineSet
Substitution2: "'smcp' Lowercase to Small Capitals lookup 35 subtable" ccircumflex.sc
Substitution2: "'aalt' Access All Alternates lookup 0 subtable" ccircumflex.sc
EndChar

StartChar: Cdotaccent
Encoding: 266 266 174
Width: 600
GlyphClass: 2
Flags: W
AnchorPoint: "Anchor-3" 580 536 basechar 0
AnchorPoint: "Anchor-2" 300 536 basechar 0
AnchorPoint: "Anchor-1" 300 0 basechar 0
LayerCount: 2
Fore
SplineSet
45 0 m 1,0,-1
 248 274 l 1,1,-1
 55 536 l 1,2,-1
 156 536 l 1,3,-1
 300 335 l 1,4,-1
 444 536 l 1,5,-1
 545 536 l 1,6,-1
 351 274 l 1,7,-1
 554 0 l 1,8,-1
 453 0 l 1,9,-1
 300 213 l 1,10,-1
 146 0 l 1,11,-1
 45 0 l 1,0,-1
EndSplineSet
Substitution2: "'c2sc' Capitals to Small Capitals lookup 34 subtable" cdotaccent.sc
Substitution2: "'aalt' Access All Alternates lookup 0 subtable" cdotaccent.sc
EndChar

StartChar: cdotaccent
Encoding: 267 267 175
Width: 600
GlyphClass: 2
Flags: W
AnchorPoint: "Anchor-3" 580 536 basechar 0
AnchorPoint: "Anchor-2" 300 536 basechar 0
AnchorPoint: "Anchor-1" 300 -245 basechar 0
LayerCount: 2
Fore
SplineSet
136 -245 m 0,0,1
 116 -245 116 -245 97 -242.5 c 128,-1,2
 78 -240 78 -240 64 -237 c 1,3,-1
 64 -168 l 1,4,5
 76 -170 76 -170 92.5 -172 c 128,-1,6
 109 -174 109 -174 125 -174 c 0,7,8
 156 -174 156 -174 176.5 -164 c 128,-1,9
 197 -154 197 -154 212.5 -133 c 128,-1,10
 228 -112 228 -112 241 -78 c 2,11,-1
 270 -5 l 1,12,-1
 45 536 l 1,13,-1
 133 536 l 1,14,-1
 261 221 l 2,15,16
 274 190 274 190 286.5 152 c 128,-1,17
 299 114 299 114 309 79 c 1,18,-1
 312 79 l 1,19,20
 319 104 319 104 327 128.5 c 128,-1,21
 335 153 335 153 342.5 177 c 128,-1,22
 350 201 350 201 357 222 c 2,23,-1
 462 536 l 1,24,-1
 554 536 l 1,25,-1
 329 -70 l 2,26,27
 310 -122 310 -122 287.5 -161.5 c 128,-1,28
 265 -201 265 -201 229.5 -223 c 128,-1,29
 194 -245 194 -245 136 -245 c 0,0,1
EndSplineSet
EndChar

StartChar: Ccaron
Encoding: 268 268 176
Width: 600
GlyphClass: 2
Flags: W
AnchorPoint: "Anchor-3" 580 536 basechar 0
AnchorPoint: "Anchor-2" 310 536 basechar 0
AnchorPoint: "Anchor-1" 310 0 basechar 0
LayerCount: 2
Fore
SplineSet
90 0 m 1,0,-1
 90 61 l 1,1,-1
 405 467 l 1,2,-1
 106 467 l 1,3,-1
 106 536 l 1,4,-1
 502 536 l 1,5,-1
 502 465 l 1,6,-1
 197 76 l 1,7,-1
 510 76 l 1,8,-1
 510 0 l 1,9,-1
 90 0 l 1,0,-1
EndSplineSet
Substitution2: "'c2sc' Capitals to Small Capitals lookup 34 subtable" ccaron.sc
Substitution2: "'aalt' Access All Alternates lookup 0 subtable" ccaron.sc
EndChar

StartChar: aringacute
Encoding: 507 507 177
Width: 600
GlyphClass: 2
Flags: W
AnchorPoint: "Anchor-3" 580 536 basechar 0
AnchorPoint: "Anchor-2" 300 1047 basechar 0
AnchorPoint: "Anchor-1" 300 0 basechar 0
AnchorPoint: "Anchor-0" 540 10 basechar 0
LayerCount: 2
Fore
SplineSet
304 606 m 0
 255 606 255 606 225 634 c 0
 195 662 195 662 195 712 c 256
 195 762 195 762 225 789.5 c 0
 255 817 255 817 304 817 c 0
 351 817 351 817 383 789.5 c 0
 415 762 415 762 415 713 c 0
 415 662 415 662 383.5 634 c 0
 352 606 352 606 304 606 c 0
304 658 m 0
 328 658 328 658 343 672.5 c 0
 358 687 358 687 358 712 c 0
 358 738 358 738 342.5 752 c 0
 327 766 327 766 304 766 c 0
 282 766 282 766 266.5 752 c 0
 251 738 251 738 251 712 c 0
 251 687 251 687 266 672.5 c 0
 281 658 281 658 304 658 c 0
264 899 m 1
 279 918 279 918 296.5 944 c 0
 314 970 314 970 331 997.5 c 0
 348 1025 348 1025 359 1047 c 1
 465 1047 l 1
 465 1037 l 1
 453 1019 453 1019 428 990.5 c 0
 403 962 403 962 374.5 933.5 c 0
 346 905 346 905 322 887 c 1
 264 887 l 1
 264 899 l 1
EndSplineSet
Refer: 67 97 N 1 0 0 1 0 0 3
Substitution2: "'smcp' Lowercase to Small Capitals lookup 35 subtable" aringacute.sc
Substitution2: "'aalt' Access All Alternates lookup 0 subtable" aringacute.sc
EndChar

StartChar: Gamma
Encoding: 915 915 180
Width: 600
GlyphClass: 2
Flags: W
AnchorPoint: "Anchor-2" 340 714 basechar 0
AnchorPoint: "Anchor-1" 340 0 basechar 0
LayerCount: 2
Fore
SplineSet
115 0 m 1,0,-1
 115 714 l 1,1,-1
 515 714 l 1,2,-1
 515 634 l 1,3,-1
 205 634 l 1,4,-1
 205 0 l 1,5,-1
 115 0 l 1,0,-1
EndSplineSet
EndChar

StartChar: uni0394
Encoding: 916 916 181
Width: 600
GlyphClass: 2
Flags: W
AnchorPoint: "Anchor-2" 300 714 basechar 0
AnchorPoint: "Anchor-1" 300 0 basechar 0
LayerCount: 2
Fore
SplineSet
20 0 m 1,0,-1
 20 55 l 1,1,-1
 254 714 l 1,2,-1
 344 714 l 1,3,-1
 580 54 l 1,4,-1
 580 0 l 1,5,-1
 20 0 l 1,0,-1
116 79 m 1,6,-1
 481 79 l 1,7,-1
 353 451 l 2,8,9
 343 481 343 481 332.5 510 c 128,-1,10
 322 539 322 539 313.5 565.5 c 128,-1,11
 305 592 305 592 298 616 c 1,12,13
 292 592 292 592 284 565.5 c 128,-1,14
 276 539 276 539 267 511 c 128,-1,15
 258 483 258 483 248 455 c 2,16,-1
 116 79 l 1,6,-1
EndSplineSet
EndChar

StartChar: Theta
Encoding: 920 920 185
Width: 600
GlyphClass: 2
Flags: W
AnchorPoint: "Anchor-4" 300 357 basechar 0
AnchorPoint: "Anchor-3" 600 714 basechar 0
AnchorPoint: "Anchor-2" 300 714 basechar 0
AnchorPoint: "Anchor-1" 300 0 basechar 0
AnchorPoint: "Anchor-0" 299 10 basechar 0
LayerCount: 2
Fore
SplineSet
199 324 m 1,0,-1
 199 402 l 1,1,-1
 401 402 l 1,2,-1
 401 324 l 1,3,-1
 199 324 l 1,0,-1
299 -10 m 256,4,5
 232 -10 232 -10 184 16.5 c 128,-1,6
 136 43 136 43 105 91.5 c 128,-1,7
 74 140 74 140 59.5 207.5 c 128,-1,8
 45 275 45 275 45 357 c 0,9,10
 45 467 45 467 71.5 550 c 128,-1,11
 98 633 98 633 154.5 679.5 c 128,-1,12
 211 726 211 726 300 726 c 0,13,14
 367 726 367 726 415 700 c 128,-1,15
 463 674 463 674 494 625 c 128,-1,16
 525 576 525 576 540 509 c 128,-1,17
 555 442 555 442 555 359 c 256,18,19
 555 276 555 276 540 208 c 128,-1,20
 525 140 525 140 494 91.5 c 128,-1,21
 463 43 463 43 414.5 16.5 c 128,-1,22
 366 -10 366 -10 299 -10 c 256,4,5
301 70 m 256,23,24
 361 70 361 70 396.5 104.5 c 128,-1,25
 432 139 432 139 447.5 203.5 c 128,-1,26
 463 268 463 268 463 358 c 0,27,28
 463 494 463 494 427 570 c 128,-1,29
 391 646 391 646 302 646 c 0,30,31
 242 646 242 646 205.5 611.5 c 128,-1,32
 169 577 169 577 153 512.5 c 128,-1,33
 137 448 137 448 137 358 c 256,34,35
 137 268 137 268 153 203.5 c 128,-1,36
 169 139 169 139 205 104.5 c 128,-1,37
 241 70 241 70 301 70 c 256,23,24
EndSplineSet
EndChar

StartChar: Lambda
Encoding: 923 923 188
Width: 600
GlyphClass: 2
Flags: W
AnchorPoint: "Anchor-2" 300 714 basechar 0
AnchorPoint: "Anchor-1" 300 0 basechar 0
LayerCount: 2
Fore
SplineSet
20 0 m 1,0,-1
 252 714 l 1,1,-1
 346 714 l 1,2,-1
 580 0 l 1,3,-1
 485 0 l 1,4,-1
 347 450 l 2,5,6
 338 482 338 482 329 510.5 c 128,-1,7
 320 539 320 539 312 565.5 c 128,-1,8
 304 592 304 592 298 616 c 1,9,10
 293 592 293 592 286 565.5 c 128,-1,11
 279 539 279 539 271 510.5 c 128,-1,12
 263 482 263 482 253 451 c 2,13,-1
 115 0 l 1,14,-1
 20 0 l 1,0,-1
EndSplineSet
EndChar

StartChar: Xi
Encoding: 926 926 191
Width: 600
GlyphClass: 2
Flags: W
AnchorPoint: "Anchor-2" 300 714 basechar 0
AnchorPoint: "Anchor-1" 300 0 basechar 0
LayerCount: 2
Fore
SplineSet
70 0 m 1,0,-1
 70 79 l 1,1,-1
 530 79 l 1,2,-1
 530 0 l 1,3,-1
 70 0 l 1,0,-1
120 334 m 1,4,-1
 120 412 l 1,5,-1
 480 412 l 1,6,-1
 480 334 l 1,7,-1
 120 334 l 1,4,-1
90 635 m 1,8,-1
 90 714 l 1,9,-1
 510 714 l 1,10,-1
 510 635 l 1,11,-1
 90 635 l 1,8,-1
EndSplineSet
EndChar

StartChar: Pi
Encoding: 928 928 193
Width: 600
GlyphClass: 2
Flags: W
AnchorPoint: "Anchor-2" 300 714 basechar 0
AnchorPoint: "Anchor-1" 300 0 basechar 0
LayerCount: 2
Fore
SplineSet
70 0 m 1,0,-1
 70 714 l 1,1,-1
 530 714 l 1,2,-1
 530 0 l 1,3,-1
 441 0 l 1,4,-1
 441 635 l 1,5,-1
 160 635 l 1,6,-1
 160 0 l 1,7,-1
 70 0 l 1,0,-1
EndSplineSet
EndChar

StartChar: Sigma
Encoding: 931 931 195
Width: 600
GlyphClass: 2
Flags: W
AnchorPoint: "Anchor-2" 300 714 basechar 0
AnchorPoint: "Anchor-1" 300 0 basechar 0
LayerCount: 2
Fore
SplineSet
95 0 m 1,0,-1
 95 74 l 1,1,-1
 299 373 l 1,2,-1
 101 639 l 1,3,-1
 101 714 l 1,4,-1
 476 714 l 1,5,-1
 476 634 l 1,6,-1
 271 634 l 2,7,8
 258 634 258 634 235.5 634 c 128,-1,9
 213 634 213 634 204 635 c 1,10,-1
 399 374 l 1,11,-1
 194 78 l 1,12,13
 220 78 220 78 245 78.5 c 128,-1,14
 270 79 270 79 297 79 c 2,15,-1
 505 79 l 1,16,-1
 505 0 l 1,17,-1
 95 0 l 1,0,-1
EndSplineSet
EndChar

StartChar: Phi
Encoding: 934 934 198
Width: 600
GlyphClass: 2
Flags: W
AnchorPoint: "Anchor-2" 300 714 basechar 0
AnchorPoint: "Anchor-1" 300 0 basechar 0
LayerCount: 2
Fore
SplineSet
259 100 m 1,0,1
 208 100 208 100 167.5 119.5 c 128,-1,2
 127 139 127 139 98.5 174.5 c 128,-1,3
 70 210 70 210 55 259.5 c 128,-1,4
 40 309 40 309 40 369 c 0,5,6
 40 445 40 445 64.5 505 c 128,-1,7
 89 565 89 565 138 600.5 c 128,-1,8
 187 636 187 636 259 636 c 1,9,-1
 259 724 l 1,10,-1
 341 724 l 1,11,-1
 341 636 l 1,12,13
 395 636 395 636 436 616.5 c 128,-1,14
 477 597 477 597 504.5 561.5 c 128,-1,15
 532 526 532 526 546 477.5 c 128,-1,16
 560 429 560 429 560 370 c 256,17,18
 560 311 560 311 546 261.5 c 128,-1,19
 532 212 532 212 504.5 176 c 128,-1,20
 477 140 477 140 436 120 c 128,-1,21
 395 100 395 100 341 100 c 1,22,-1
 341 -10 l 1,23,-1
 259 -10 l 1,24,-1
 259 100 l 1,0,1
259 563 m 1,25,26
 215 563 215 563 185 541 c 128,-1,27
 155 519 155 519 140 476 c 128,-1,28
 125 433 125 433 125 370 c 0,29,30
 125 306 125 306 140 262 c 128,-1,31
 155 218 155 218 185 195.5 c 128,-1,32
 215 173 215 173 259 173 c 1,33,-1
 259 563 l 1,25,26
341 173 m 1,34,35
 385 173 385 173 415 196 c 128,-1,36
 445 219 445 219 460.5 263.5 c 128,-1,37
 476 308 476 308 476 373 c 0,38,39
 476 436 476 436 461 478.5 c 128,-1,40
 446 521 446 521 416 542 c 128,-1,41
 386 563 386 563 341 563 c 1,42,-1
 341 173 l 1,34,35
EndSplineSet
EndChar

StartChar: Psi
Encoding: 936 936 200
Width: 600
GlyphClass: 2
Flags: W
AnchorPoint: "Anchor-2" 300 714 basechar 0
AnchorPoint: "Anchor-1" 300 0 basechar 0
LayerCount: 2
Fore
SplineSet
259 213 m 1,0,1
 176 213 176 213 128 243.5 c 128,-1,2
 80 274 80 274 60 332.5 c 128,-1,3
 40 391 40 391 40 473 c 2,4,-1
 40 714 l 1,5,-1
 124 714 l 1,6,-1
 124 479 l 2,7,8
 124 423 124 423 133 380 c 128,-1,9
 142 337 142 337 171 312.5 c 128,-1,10
 200 288 200 288 259 288 c 1,11,-1
 259 714 l 1,12,-1
 341 714 l 1,13,-1
 341 288 l 1,14,15
 391 289 391 289 420.5 307.5 c 128,-1,16
 450 326 450 326 463 368 c 128,-1,17
 476 410 476 410 476 479 c 2,18,-1
 476 714 l 1,19,-1
 560 714 l 1,20,-1
 560 461 l 2,21,22
 560 386 560 386 539 330 c 128,-1,23
 518 274 518 274 470 243.5 c 128,-1,24
 422 213 422 213 341 213 c 1,25,-1
 341 0 l 1,26,-1
 259 0 l 1,27,-1
 259 213 l 1,0,1
EndSplineSet
EndChar

StartChar: uni03A9
Encoding: 937 937 201
Width: 600
GlyphClass: 2
Flags: W
AnchorPoint: "Anchor-2" 299 714 basechar 0
AnchorPoint: "Anchor-1" 300 0 basechar 0
LayerCount: 2
Fore
SplineSet
20 0 m 1,0,-1
 20 76 l 1,1,-1
 154 76 l 1,2,3
 125 106 125 106 101 154.5 c 128,-1,4
 77 203 77 203 63 267 c 128,-1,5
 49 331 49 331 49 404 c 0,6,7
 49 507 49 507 78.5 578 c 128,-1,8
 108 649 108 649 164.5 686.5 c 128,-1,9
 221 724 221 724 301 724 c 0,10,11
 382 724 382 724 437.5 686.5 c 128,-1,12
 493 649 493 649 521.5 577.5 c 128,-1,13
 550 506 550 506 550 404 c 0,14,15
 550 330 550 330 536 266 c 128,-1,16
 522 202 522 202 498 153.5 c 128,-1,17
 474 105 474 105 445 76 c 1,18,-1
 580 76 l 1,19,-1
 580 0 l 1,20,-1
 351 0 l 1,21,-1
 351 67 l 1,22,23
 411 123 411 123 435 203 c 128,-1,24
 459 283 459 283 459 380 c 0,25,26
 459 468 459 468 442.5 527.5 c 128,-1,27
 426 587 426 587 391.5 617.5 c 128,-1,28
 357 648 357 648 302 648 c 0,29,30
 249 648 249 648 213 619.5 c 128,-1,31
 177 591 177 591 159 532 c 128,-1,32
 141 473 141 473 141 383 c 0,33,34
 141 315 141 315 152.5 257 c 128,-1,35
 164 199 164 199 188 151.5 c 128,-1,36
 212 104 212 104 249 67 c 1,37,-1
 249 0 l 1,38,-1
 20 0 l 1,0,-1
EndSplineSet
EndChar

StartChar: Iotadieresis
Encoding: 938 938 202
Width: 600
GlyphClass: 2
Flags: W
AnchorPoint: "Anchor-3" 580 714 basechar 0
AnchorPoint: "Anchor-2" 300 916 basechar 0
AnchorPoint: "Anchor-1" 300 0 basechar 0
AnchorPoint: "Anchor-0" 367 10 basechar 0
LayerCount: 2
Fore
SplineSet
414 800 m 256
 392 800 392 800 376 814.5 c 0
 360 829 360 829 360 859 c 0
 360 890 360 890 376 903 c 0
 392 916 392 916 414 916 c 256
 436 916 436 916 452.5 903 c 0
 469 890 469 890 469 859 c 0
 469 829 469 829 452.5 814.5 c 0
 436 800 436 800 414 800 c 256
185 800 m 256
 163 800 163 800 147 814.5 c 0
 131 829 131 829 131 859 c 0
 131 890 131 890 147 903 c 0
 163 916 163 916 185 916 c 256
 207 916 207 916 223.5 903 c 0
 240 890 240 890 240 859 c 0
 240 829 240 829 223.5 814.5 c 0
 207 800 207 800 185 800 c 256
EndSplineSet
Refer: 43 73 N 1 0 0 1 0 0 3
EndChar

StartChar: Upsilondieresis
Encoding: 939 939 203
Width: 600
GlyphClass: 2
Flags: W
AnchorPoint: "Anchor-3" 580 714 basechar 0
AnchorPoint: "Anchor-2" 300 916 basechar 0
AnchorPoint: "Anchor-1" 300 0 basechar 0
LayerCount: 2
Fore
SplineSet
414 800 m 256
 392 800 392 800 376 814.5 c 0
 360 829 360 829 360 859 c 0
 360 890 360 890 376 903 c 0
 392 916 392 916 414 916 c 256
 436 916 436 916 452.5 903 c 0
 469 890 469 890 469 859 c 0
 469 829 469 829 452.5 814.5 c 0
 436 800 436 800 414 800 c 256
185 800 m 256
 163 800 163 800 147 814.5 c 0
 131 829 131 829 131 859 c 0
 131 890 131 890 147 903 c 0
 163 916 163 916 185 916 c 256
 207 916 207 916 223.5 903 c 0
 240 890 240 890 240 859 c 0
 240 829 240 829 223.5 814.5 c 0
 207 800 207 800 185 800 c 256
EndSplineSet
Refer: 59 89 N 1 0 0 1 0 0 3
EndChar

StartChar: alphatonos
Encoding: 940 940 204
Width: 600
GlyphClass: 2
Flags: W
AnchorPoint: "Anchor-2" 348 805 basechar 0
AnchorPoint: "Anchor-1" 290 0 basechar 0
LayerCount: 2
Fore
SplineSet
258 -10 m 0,0,1
 165 -10 165 -10 110 59.5 c 0,2,3
 55 129 55 129 55 267 c 0,4,5
 55 402 55 402 110 474 c 0,6,7
 165 546 165 546 265 546 c 0,8,9
 318 546 318 546 354.5 525.5 c 0,10,11
 391 505 391 505 417 464 c 1,12,-1
 423 464 l 1,13,14
 428 481 428 481 436 501 c 0,15,16
 444 521 444 521 455 536 c 1,17,-1
 524 536 l 1,18,19
 517 514 517 514 511 478 c 0,20,21
 505 442 505 442 502 402 c 0,22,23
 499 362 499 362 499 326 c 2,24,-1
 499 118 l 2,25,26
 499 87 499 87 511 74.5 c 0,27,28
 523 62 523 62 540 62 c 0,29,30
 548 62 548 62 557 64 c 0,31,32
 566 66 566 66 570 67 c 1,33,-1
 570 3 l 1,34,35
 563 -1 563 -1 547 -5.5 c 0,36,37
 531 -10 531 -10 511 -10 c 0,38,39
 480 -10 480 -10 455 7 c 0,40,41
 430 24 430 24 419 72 c 1,42,-1
 412 72 l 1,43,44
 399 52 399 52 379 33 c 0,45,46
 359 14 359 14 329.5 2 c 0,47,48
 300 -10 300 -10 258 -10 c 0,0,1
278 63 m 0,49,50
 324 63 324 63 353.5 85 c 0,51,52
 383 107 383 107 397.5 151.5 c 0,53,54
 412 196 412 196 412 261 c 2,55,-1
 412 267 l 2,56,57
 412 362 412 362 381.5 417 c 0,58,59
 351 472 351 472 277 472 c 0,60,61
 208 472 208 472 177 421 c 0,62,63
 146 370 146 370 146 269 c 0,64,65
 146 159 146 159 180 111 c 0,66,67
 214 63 214 63 278 63 c 0,49,50
270 620 m 1,68,69
 275 638 275 638 280.5 661.5 c 0,70,71
 286 685 286 685 290.5 710.5 c 0,72,73
 295 736 295 736 299 760.5 c 0,74,75
 303 785 303 785 305 805 c 1,76,-1
 399 805 l 1,77,-1
 399 794 l 1,78,79
 394 772 394 772 382 738.5 c 0,80,81
 370 705 370 705 354.5 669.5 c 0,82,83
 339 634 339 634 323 606 c 1,84,-1
 270 606 l 1,85,-1
 270 620 l 1,68,69
EndSplineSet
EndChar

StartChar: epsilontonos
Encoding: 941 941 205
Width: 600
GlyphClass: 2
Flags: W
AnchorPoint: "Anchor-2" 350 805 basechar 0
AnchorPoint: "Anchor-1" 326 0 basechar 0
LayerCount: 2
Fore
SplineSet
270 620 m 1
 275 638 275 638 280.5 661.5 c 0
 286 685 286 685 290.5 710.5 c 0
 295 736 295 736 299 760.5 c 0
 303 785 303 785 305 805 c 1
 399 805 l 1
 399 794 l 1
 394 772 394 772 382 738.5 c 0
 370 705 370 705 354.5 669.5 c 0
 339 634 339 634 323 606 c 1
 270 606 l 1
 270 620 l 1
EndSplineSet
Refer: 209 949 N 1 0 0 1 0 0 3
EndChar

StartChar: etatonos
Encoding: 942 942 206
Width: 600
GlyphClass: 2
Flags: W
AnchorPoint: "Anchor-3" 580 536 basechar 0
AnchorPoint: "Anchor-2" 346 805 basechar 0
AnchorPoint: "Anchor-1" 300 -244 basechar 0
LayerCount: 2
Fore
SplineSet
435 -244 m 1,0,-1
 435 153 l 1,1,-1
 525 153 l 1,2,-1
 525 -244 l 1,3,-1
 435 -244 l 1,0,-1
80 0 m 1,4,-1
 80 536 l 1,5,-1
 152 536 l 1,6,-1
 165 457 l 1,7,-1
 170 457 l 1,8,9
 186 488 186 488 211.5 507.5 c 0,10,11
 237 527 237 527 271 536.5 c 0,12,13
 305 546 305 546 345 546 c 0,14,15
 426 546 426 546 475.5 500.5 c 0,16,17
 525 455 525 455 525 358 c 2,18,-1
 525 0 l 1,19,-1
 435 0 l 1,20,-1
 435 342 l 2,21,22
 435 410 435 410 407.5 441.5 c 0,23,24
 380 473 380 473 319 473 c 0,25,26
 237 473 237 473 203.5 421 c 0,27,28
 170 369 170 369 170 275 c 2,29,-1
 170 0 l 1,30,-1
 80 0 l 1,4,-1
270 620 m 1,31,32
 275 638 275 638 280.5 661.5 c 0,33,34
 286 685 286 685 290.5 710.5 c 0,35,36
 295 736 295 736 299 760.5 c 0,37,38
 303 785 303 785 305 805 c 1,39,-1
 399 805 l 1,40,-1
 399 794 l 1,41,42
 394 772 394 772 382 738.5 c 0,43,44
 370 705 370 705 354.5 669.5 c 0,45,46
 339 634 339 634 323 606 c 1,47,-1
 270 606 l 1,48,-1
 270 620 l 1,31,32
EndSplineSet
EndChar

StartChar: iotatonos
Encoding: 943 943 207
Width: 600
GlyphClass: 2
Flags: W
AnchorPoint: "Anchor-2" 339 805 basechar 0
AnchorPoint: "Anchor-1" 349 0 basechar 0
LayerCount: 2
Fore
SplineSet
270 620 m 1
 275 638 275 638 280.5 661.5 c 0
 286 685 286 685 290.5 710.5 c 0
 295 736 295 736 299 760.5 c 0
 303 785 303 785 305 805 c 1
 399 805 l 1
 399 794 l 1
 394 772 394 772 382 738.5 c 0
 370 705 370 705 354.5 669.5 c 0
 339 634 339 634 323 606 c 1
 270 606 l 1
 270 620 l 1
EndSplineSet
Refer: 211 953 N 1 0 0 1 0 0 3
EndChar

StartChar: upsilondieresistonos
Encoding: 944 944 208
Width: 600
GlyphClass: 2
Flags: W
AnchorPoint: "Anchor-2" 300 838 basechar 0
AnchorPoint: "Anchor-1" 300 0 basechar 0
LayerCount: 2
Fore
SplineSet
308 -10 m 0,0,1
 219 -10 219 -10 169.5 23.5 c 0,2,3
 120 57 120 57 100 114.5 c 0,4,5
 80 172 80 172 80 243 c 2,6,-1
 80 536 l 1,7,-1
 168 536 l 1,8,-1
 168 246 l 2,9,10
 168 189 168 189 183.5 148 c 0,11,12
 199 107 199 107 231.5 84.5 c 0,13,14
 264 62 264 62 315 62 c 0,15,16
 389 62 389 62 425 119 c 0,17,18
 461 176 461 176 461 296 c 0,19,20
 461 366 461 366 453 421 c 0,21,22
 445 476 445 476 430 536 c 1,23,-1
 518 536 l 1,24,25
 529 497 529 497 536 459.5 c 0,26,27
 543 422 543 422 546.5 382 c 0,28,29
 550 342 550 342 550 292 c 0,30,31
 550 137 550 137 488.5 63.5 c 0,32,33
 427 -10 427 -10 308 -10 c 0,0,1
267 690 m 1,34,35
 275 710 275 710 283.5 735.5 c 0,36,37
 292 761 292 761 299.5 788 c 0,38,39
 307 815 307 815 312 838 c 1,40,-1
 408 838 l 1,41,-1
 408 828 l 1,42,43
 398 807 398 807 382 781 c 0,44,45
 366 755 366 755 347 728.5 c 0,46,47
 328 702 328 702 309 678 c 1,48,-1
 267 678 l 1,49,-1
 267 690 l 1,34,35
190 631 m 256,50,51
 171 631 171 631 157.5 643.5 c 0,52,53
 144 656 144 656 144 681 c 0,54,55
 144 707 144 707 157.5 718.5 c 0,56,57
 171 730 171 730 190 730 c 256,58,59
 209 730 209 730 222.5 718.5 c 0,60,61
 236 707 236 707 236 681 c 0,62,63
 236 656 236 656 222.5 643.5 c 0,64,65
 209 631 209 631 190 631 c 256,50,51
409 631 m 0,66,67
 389 631 389 631 376 643.5 c 0,68,69
 363 656 363 656 363 681 c 0,70,71
 363 707 363 707 376 718.5 c 0,72,73
 389 730 389 730 409 730 c 0,74,75
 427 730 427 730 441 718.5 c 0,76,77
 455 707 455 707 455 681 c 0,78,79
 455 656 455 656 441 643.5 c 0,80,81
 427 631 427 631 409 631 c 0,66,67
EndSplineSet
EndChar

StartChar: epsilon
Encoding: 949 949 209
Width: 600
GlyphClass: 2
Flags: W
AnchorPoint: "Anchor-2" 300 536 basechar 0
AnchorPoint: "Anchor-1" 326 0 basechar 0
LayerCount: 2
Fore
SplineSet
327 -10 m 0,0,1
 212 -10 212 -10 157 34.5 c 128,-1,2
 102 79 102 79 102 146 c 0,3,4
 102 186 102 186 118.5 211.5 c 128,-1,5
 135 237 135 237 162 252.5 c 128,-1,6
 189 268 189 268 221 277 c 1,7,-1
 221 282 l 1,8,9
 191 291 191 291 168.5 307 c 128,-1,10
 146 323 146 323 133.5 347.5 c 128,-1,11
 121 372 121 372 121 404 c 0,12,13
 121 449 121 449 147.5 481 c 128,-1,14
 174 513 174 513 220.5 529.5 c 128,-1,15
 267 546 267 546 327 546 c 0,16,17
 385 546 385 546 426.5 536 c 128,-1,18
 468 526 468 526 508 508 c 1,19,-1
 475 438 l 1,20,21
 442 453 442 453 407.5 463 c 128,-1,22
 373 473 373 473 326 473 c 0,23,24
 266 473 266 473 235.5 454 c 128,-1,25
 205 435 205 435 205 397 c 0,26,27
 205 353 205 353 246.5 334 c 128,-1,28
 288 315 288 315 358 315 c 2,29,-1
 414 315 l 1,30,-1
 414 243 l 1,31,-1
 341 243 l 2,32,33
 265 243 265 243 227.5 220 c 128,-1,34
 190 197 190 197 190 151 c 0,35,36
 190 118 190 118 209 98.5 c 128,-1,37
 228 79 228 79 260 70.5 c 128,-1,38
 292 62 292 62 332 62 c 0,39,40
 388 62 388 62 430.5 75 c 128,-1,41
 473 88 473 88 506 104 c 1,42,-1
 506 27 l 1,43,44
 475 11 475 11 432 0.5 c 128,-1,45
 389 -10 389 -10 327 -10 c 0,0,1
EndSplineSet
EndChar

StartChar: zeta
Encoding: 950 950 210
Width: 600
GlyphClass: 2
Flags: W
AnchorPoint: "Anchor-2" 339 760 basechar 0
AnchorPoint: "Anchor-1" 337 -195 basechar 0
LayerCount: 2
Fore
SplineSet
371 -195 m 1,0,1
 395 -163 395 -163 414 -126.5 c 128,-1,2
 433 -90 433 -90 433 -63 c 0,3,4
 433 -49 433 -49 425 -37 c 128,-1,5
 417 -25 417 -25 391.5 -14.5 c 128,-1,6
 366 -4 366 -4 312 5 c 0,7,8
 264 13 264 13 228 30 c 128,-1,9
 192 47 192 47 168 73.5 c 128,-1,10
 144 100 144 100 131.5 137.5 c 128,-1,11
 119 175 119 175 119 224 c 0,12,13
 119 299 119 299 143 361.5 c 128,-1,14
 167 424 167 424 208.5 479 c 128,-1,15
 250 534 250 534 304 586 c 128,-1,16
 358 638 358 638 417 691 c 1,17,18
 406 690 406 690 384 689 c 128,-1,19
 362 688 362 688 332.5 687.5 c 128,-1,20
 303 687 303 687 269 687 c 2,21,-1
 149 687 l 1,22,-1
 149 760 l 1,23,-1
 521 760 l 1,24,-1
 521 694 l 1,25,26
 418 607 418 607 355.5 538.5 c 128,-1,27
 293 470 293 470 262 415 c 128,-1,28
 231 360 231 360 220.5 315 c 128,-1,29
 210 270 210 270 210 230 c 0,30,31
 210 173 210 173 230 143.5 c 128,-1,32
 250 114 250 114 288 99.5 c 128,-1,33
 326 85 326 85 380 74 c 0,34,35
 418 66 418 66 445 55.5 c 128,-1,36
 472 45 472 45 489 30.5 c 128,-1,37
 506 16 506 16 513.5 -1.5 c 128,-1,38
 521 -19 521 -19 521 -40 c 0,39,40
 521 -84 521 -84 501.5 -123.5 c 128,-1,41
 482 -163 482 -163 458 -195 c 1,42,-1
 371 -195 l 1,0,1
EndSplineSet
EndChar

StartChar: iota
Encoding: 953 953 211
Width: 600
GlyphClass: 2
Flags: W
AnchorPoint: "Anchor-2" 300 536 basechar 0
AnchorPoint: "Anchor-1" 393 0 basechar 0
LayerCount: 2
Fore
SplineSet
407 -10 m 0,0,1
 363 -10 363 -10 328.5 4.5 c 128,-1,2
 294 19 294 19 274.5 55.5 c 128,-1,3
 255 92 255 92 255 157 c 2,4,-1
 255 536 l 1,5,-1
 342 536 l 1,6,-1
 342 158 l 2,7,8
 342 126 342 126 350 104.5 c 128,-1,9
 358 83 358 83 375 72.5 c 128,-1,10
 392 62 392 62 419 62 c 0,11,12
 441 62 441 62 464.5 65.5 c 128,-1,13
 488 69 488 69 501 73 c 1,14,-1
 501 6 l 1,15,16
 487 -1 487 -1 460 -5.5 c 128,-1,17
 433 -10 433 -10 407 -10 c 0,0,1
EndSplineSet
EndChar

StartChar: kappa
Encoding: 954 954 212
Width: 600
GlyphClass: 2
Flags: W
AnchorPoint: "Anchor-2" 300 536 basechar 0
AnchorPoint: "Anchor-1" 300 0 basechar 0
LayerCount: 2
Fore
SplineSet
105 0 m 1,0,-1
 105 536 l 1,1,-1
 195 536 l 1,2,-1
 195 394 l 2,3,4
 195 373 195 373 194 347 c 0,5,6
 193 321 193 321 191.5 294 c 0,7,8
 190 267 190 267 188 243 c 1,9,-1
 190 243 l 1,10,11
 209 268 209 268 226 288.5 c 0,12,13
 243 309 243 309 263 331 c 2,14,-1
 448 536 l 1,15,-1
 556 536 l 1,16,-1
 343 305 l 1,17,-1
 570 0 l 1,18,-1
 466 0 l 1,19,-1
 283 252 l 1,20,-1
 195 167 l 1,21,-1
 195 0 l 1,22,-1
 105 0 l 1,0,-1
EndSplineSet
EndChar

StartChar: xi
Encoding: 958 958 213
Width: 600
GlyphClass: 2
Flags: W
AnchorPoint: "Anchor-2" 339 760 basechar 0
AnchorPoint: "Anchor-1" 337 -195 basechar 0
LayerCount: 2
Fore
SplineSet
374 -195 m 1,0,1
 397 -163 397 -163 415 -126 c 128,-1,2
 433 -89 433 -89 433 -63 c 0,3,4
 433 -42 433 -42 419.5 -30.5 c 128,-1,5
 406 -19 406 -19 379 -11 c 128,-1,6
 352 -3 352 -3 311 5 c 0,7,8
 291 9 291 9 265 16.5 c 128,-1,9
 239 24 239 24 212.5 37 c 128,-1,10
 186 50 186 50 163.5 71 c 128,-1,11
 141 92 141 92 127.5 124 c 128,-1,12
 114 156 114 156 114 201 c 0,13,14
 114 281 114 281 155 328.5 c 128,-1,15
 196 376 196 376 254 395 c 1,16,-1
 254 401 l 1,17,18
 221 411 221 411 197.5 428 c 128,-1,19
 174 445 174 445 161 472 c 128,-1,20
 148 499 148 499 148 536 c 0,21,22
 148 584 148 584 167 614.5 c 128,-1,23
 186 645 186 645 218 663.5 c 128,-1,24
 250 682 250 682 288 693 c 1,25,26
 279 692 279 692 261.5 690.5 c 128,-1,27
 244 689 244 689 222 688 c 128,-1,28
 200 687 200 687 175 687 c 2,29,-1
 145 687 l 1,30,-1
 145 760 l 1,31,-1
 491 760 l 1,32,-1
 491 692 l 1,33,-1
 465 692 l 2,34,35
 422 692 422 692 380.5 682.5 c 128,-1,36
 339 673 339 673 306 654 c 128,-1,37
 273 635 273 635 253 605.5 c 128,-1,38
 233 576 233 576 233 537 c 0,39,40
 233 488 233 488 270.5 460.5 c 128,-1,41
 308 433 308 433 396 433 c 2,42,-1
 479 433 l 1,43,-1
 479 366 l 1,44,-1
 393 366 l 2,45,46
 333 366 333 366 291 346 c 128,-1,47
 249 326 249 326 227.5 290.5 c 128,-1,48
 206 255 206 255 206 207 c 0,49,50
 206 160 206 160 227 135 c 128,-1,51
 248 110 248 110 287 97.5 c 128,-1,52
 326 85 326 85 380 73 c 0,53,54
 431 61 431 61 461 46 c 128,-1,55
 491 31 491 31 504 9.5 c 128,-1,56
 517 -12 517 -12 517 -42 c 0,57,58
 517 -84 517 -84 498 -123.5 c 128,-1,59
 479 -163 479 -163 457 -195 c 1,60,-1
 374 -195 l 1,0,1
EndSplineSet
EndChar

StartChar: tau
Encoding: 964 964 214
Width: 600
GlyphClass: 2
Flags: W
AnchorPoint: "Anchor-2" 303 536 basechar 0
AnchorPoint: "Anchor-1" 347 0 basechar 0
LayerCount: 2
Fore
SplineSet
395 -11 m 0,0,1
 349 -11 349 -11 310 2.5 c 128,-1,2
 271 16 271 16 247 52 c 128,-1,3
 223 88 223 88 223 155 c 2,4,-1
 223 462 l 1,5,-1
 79 462 l 1,6,-1
 79 501 l 1,7,-1
 152 536 l 1,8,-1
 521 536 l 1,9,-1
 521 462 l 1,10,-1
 312 462 l 1,11,-1
 312 164 l 2,12,13
 312 126 312 126 324 103 c 128,-1,14
 336 80 336 80 358 70 c 128,-1,15
 380 60 380 60 408 60 c 0,16,17
 430 60 430 60 453.5 63.5 c 128,-1,18
 477 67 477 67 493 71 c 1,19,-1
 493 5 l 1,20,21
 479 -1 479 -1 451.5 -6 c 128,-1,22
 424 -11 424 -11 395 -11 c 0,0,1
EndSplineSet
EndChar

StartChar: omega
Encoding: 969 969 215
Width: 600
GlyphClass: 2
Flags: W
AnchorPoint: "Anchor-2" 300 536 basechar 0
AnchorPoint: "Anchor-1" 300 0 basechar 0
LayerCount: 2
Fore
SplineSet
197 -10 m 0,0,1
 130 -10 130 -10 92.5 60 c 128,-1,2
 55 130 55 130 55 263 c 0,3,4
 55 310 55 310 60 354.5 c 128,-1,5
 65 399 65 399 75 444.5 c 128,-1,6
 85 490 85 490 101 537 c 1,7,-1
 186 537 l 1,8,9
 168 488 168 488 158 442.5 c 128,-1,10
 148 397 148 397 144 353.5 c 128,-1,11
 140 310 140 310 140 266 c 0,12,13
 140 161 140 161 157 114.5 c 128,-1,14
 174 68 174 68 206 68 c 0,15,16
 235 68 235 68 248 103.5 c 128,-1,17
 261 139 261 139 261 215 c 2,18,-1
 261 348 l 1,19,-1
 339 348 l 1,20,-1
 339 215 l 2,21,22
 339 140 339 140 352 104 c 128,-1,23
 365 68 365 68 393 68 c 0,24,25
 426 68 426 68 443.5 116 c 128,-1,26
 461 164 461 164 461 262 c 0,27,28
 461 308 461 308 456.5 355 c 128,-1,29
 452 402 452 402 442 448 c 128,-1,30
 432 494 432 494 415 537 c 1,31,-1
 499 537 l 1,32,33
 522 468 522 468 533.5 400.5 c 128,-1,34
 545 333 545 333 545 264 c 0,35,36
 545 197 545 197 535 146 c 128,-1,37
 525 95 525 95 506 60 c 128,-1,38
 487 25 487 25 460.5 7.5 c 128,-1,39
 434 -10 434 -10 401 -10 c 0,40,41
 363 -10 363 -10 337.5 14 c 128,-1,42
 312 38 312 38 301 81 c 1,43,-1
 299 81 l 1,44,45
 289 38 289 38 263.5 14 c 128,-1,46
 238 -10 238 -10 197 -10 c 0,0,1
EndSplineSet
EndChar

StartChar: uni044C
Encoding: 1100 1100 226
Width: 600
GlyphClass: 2
Flags: W
AnchorPoint: "Anchor-2" 300 536 basechar 0
AnchorPoint: "Anchor-1" 300 0 basechar 0
LayerCount: 2
Fore
SplineSet
130 0 m 1,0,-1
 130 536 l 1,1,-1
 215 536 l 1,2,-1
 215 316 l 1,3,-1
 351 316 l 2,4,5
 447 316 447 316 495.5 277.5 c 128,-1,6
 544 239 544 239 544 162 c 0,7,8
 544 111 544 111 523 74.5 c 128,-1,9
 502 38 502 38 459 19 c 128,-1,10
 416 0 416 0 351 0 c 2,11,-1
 130 0 l 1,0,-1
348 68 m 2,12,13
 399 68 399 68 429.5 90 c 128,-1,14
 460 112 460 112 460 158 c 0,15,16
 460 205 460 205 431 226 c 128,-1,17
 402 247 402 247 347 247 c 2,18,-1
 215 247 l 1,19,-1
 215 68 l 1,20,-1
 348 68 l 2,12,13
EndSplineSet
EndChar

StartChar: uni044D
Encoding: 1101 1101 227
Width: 600
GlyphClass: 2
Flags: W
AnchorPoint: "Anchor-3" 20 536 basechar 0
AnchorPoint: "Anchor-2" 290 536 basechar 0
AnchorPoint: "Anchor-1" 240 0 basechar 0
LayerCount: 2
Fore
SplineSet
438 242 m 1,0,-1
 176 242 l 1,1,-1
 176 311 l 1,2,-1
 438 311 l 1,3,-1
 438 242 l 1,0,-1
262 -10 m 0,4,5
 219 -10 219 -10 175 -2 c 128,-1,6
 131 6 131 6 101 20 c 1,7,-1
 101 99 l 1,8,9
 130 86 130 86 169 76.5 c 128,-1,10
 208 67 208 67 252 67 c 0,11,12
 309 67 309 67 347 87 c 128,-1,13
 385 107 385 107 404 151 c 128,-1,14
 423 195 423 195 423 266 c 0,15,16
 423 334 423 334 405 378.5 c 128,-1,17
 387 423 387 423 349 445.5 c 128,-1,18
 311 468 311 468 249 468 c 0,19,20
 214 468 214 468 184 460.5 c 128,-1,21
 154 453 154 453 122 436 c 1,22,-1
 95 509 l 1,23,24
 130 527 130 527 168 536.5 c 128,-1,25
 206 546 206 546 253 546 c 0,26,27
 330 546 330 546 389 518.5 c 128,-1,28
 448 491 448 491 481.5 429 c 128,-1,29
 515 367 515 367 515 264 c 0,30,31
 515 168 515 168 484.5 107.5 c 128,-1,32
 454 47 454 47 397.5 18.5 c 128,-1,33
 341 -10 341 -10 262 -10 c 0,4,5
EndSplineSet
EndChar

StartChar: uni0454
Encoding: 1108 1108 228
Width: 600
GlyphClass: 2
Flags: W
AnchorPoint: "Anchor-3" 580 536 basechar 0
AnchorPoint: "Anchor-2" 300 536 basechar 0
AnchorPoint: "Anchor-1" 300 0 basechar 0
LayerCount: 2
Fore
SplineSet
162 242 m 1,0,-1
 162 311 l 1,1,-1
 424 311 l 1,2,-1
 424 242 l 1,3,-1
 162 242 l 1,0,-1
338 -10 m 0,4,5
 260 -10 260 -10 203 18.5 c 128,-1,6
 146 47 146 47 115.5 107.5 c 128,-1,7
 85 168 85 168 85 264 c 0,8,9
 85 367 85 367 118.5 429 c 128,-1,10
 152 491 152 491 211.5 518.5 c 128,-1,11
 271 546 271 546 347 546 c 0,12,13
 394 546 394 546 432.5 536.5 c 128,-1,14
 471 527 471 527 505 509 c 1,15,-1
 478 436 l 1,16,17
 446 453 446 453 416 460.5 c 128,-1,18
 386 468 386 468 351 468 c 0,19,20
 290 468 290 468 251.5 445.5 c 128,-1,21
 213 423 213 423 195 378.5 c 128,-1,22
 177 334 177 334 177 266 c 0,23,24
 177 195 177 195 196 151 c 128,-1,25
 215 107 215 107 253.5 87 c 128,-1,26
 292 67 292 67 348 67 c 0,27,28
 392 67 392 67 431 76.5 c 128,-1,29
 470 86 470 86 499 99 c 1,30,-1
 499 20 l 1,31,32
 469 6 469 6 425 -2 c 128,-1,33
 381 -10 381 -10 338 -10 c 0,4,5
EndSplineSet
EndChar

StartChar: partialdiff
Encoding: 8706 8706 230
Width: 600
Flags: W
LayerCount: 2
Fore
SplineSet
222 -10 m 256,0,1
 157 -10 157 -10 118.5 17.5 c 128,-1,2
 80 45 80 45 64 89 c 128,-1,3
 48 133 48 133 48 181 c 0,4,5
 48 228 48 228 61.5 282 c 128,-1,6
 75 336 75 336 105 384 c 128,-1,7
 135 432 135 432 182.5 463 c 128,-1,8
 230 494 230 494 297 494 c 0,9,10
 346 494 346 494 379.5 475.5 c 128,-1,11
 413 457 413 457 438 421 c 1,12,13
 439 430 439 430 439.5 440 c 128,-1,14
 440 450 440 450 440 463 c 0,15,16
 440 549 440 549 406 598.5 c 128,-1,17
 372 648 372 648 307 648 c 0,18,19
 276 648 276 648 241 637 c 128,-1,20
 206 626 206 626 180 608 c 1,21,-1
 180 692 l 1,22,23
 205 704 205 704 242.5 713 c 128,-1,24
 280 722 280 722 320 722 c 0,25,26
 380 722 380 722 420 700.5 c 128,-1,27
 460 679 460 679 484 641.5 c 128,-1,28
 508 604 508 604 518 555 c 128,-1,29
 528 506 528 506 528 451 c 0,30,31
 528 392 528 392 517 327.5 c 128,-1,32
 506 263 506 263 483 203 c 128,-1,33
 460 143 460 143 424 95 c 128,-1,34
 388 47 388 47 337.5 18.5 c 128,-1,35
 287 -10 287 -10 222 -10 c 256,0,1
229 64 m 0,36,37
 268 64 268 64 300.5 87 c 128,-1,38
 333 110 333 110 358 148.5 c 128,-1,39
 383 187 383 187 399.5 234.5 c 128,-1,40
 416 282 416 282 423 331 c 1,41,42
 413 369 413 369 385 397.5 c 128,-1,43
 357 426 357 426 310 426 c 0,44,45
 266 426 266 426 234 401.5 c 128,-1,46
 202 377 202 377 181 339 c 128,-1,47
 160 301 160 301 149.5 259 c 128,-1,48
 139 217 139 217 139 181 c 0,49,50
 139 131 139 131 160.5 97.5 c 128,-1,51
 182 64 182 64 229 64 c 0,36,37
EndSplineSet
Substitution2: "'rtlm' Right to Left mirrored forms lookup 36 subtable" partialdiff.mir
EndChar

StartChar: minus
Encoding: 8722 8722 232
Width: 600
Flags: W
LayerCount: 2
Fore
SplineSet
70 308 m 1,0,-1
 70 388 l 1,1,-1
 530 388 l 1,2,-1
 530 308 l 1,3,-1
 70 308 l 1,0,-1
EndSplineSet
Substitution2: "'sups' Superscript lookup 23 subtable" uni207B
Substitution2: "'subs' Subscript lookup 22 subtable" uni208B
AlternateSubs2: "'aalt' Access All Alternates lookup 1 subtable" uni208B uni207B
EndChar

StartChar: radical
Encoding: 8730 8730 233
Width: 600
Flags: W
LayerCount: 2
Fore
SplineSet
241 -7 m 1,0,-1
 106 373 l 1,1,-1
 18 373 l 1,2,-1
 18 443 l 1,3,-1
 161 443 l 1,4,-1
 274 114 l 1,5,-1
 524 827 l 1,6,-1
 602 827 l 1,7,-1
 306 -7 l 1,8,-1
 241 -7 l 1,0,-1
EndSplineSet
Substitution2: "'rtlm' Right to Left mirrored forms lookup 36 subtable" radical.mir
EndChar

StartChar: infinity
Encoding: 8734 8734 234
Width: 600
Flags: W
LayerCount: 2
Fore
SplineSet
152 198 m 0,0,1
 87 198 87 198 46 240.5 c 128,-1,2
 5 283 5 283 5 350 c 0,3,4
 5 395 5 395 23.5 430.5 c 128,-1,5
 42 466 42 466 74.5 486.5 c 128,-1,6
 107 507 107 507 149 507 c 0,7,8
 187 507 187 507 217.5 490 c 128,-1,9
 248 473 248 473 273.5 443 c 128,-1,10
 299 413 299 413 322 372 c 0,11,12
 340 341 340 341 356.5 316 c 128,-1,13
 373 291 373 291 393.5 276 c 128,-1,14
 414 261 414 261 443 261 c 0,15,16
 482 261 482 261 505 287 c 128,-1,17
 528 313 528 313 528 351 c 256,18,19
 528 389 528 389 505 415 c 128,-1,20
 482 441 482 441 444 441 c 0,21,22
 416 441 416 441 395.5 426 c 128,-1,23
 375 411 375 411 357.5 385.5 c 128,-1,24
 340 360 340 360 321 328 c 0,25,26
 301 294 301 294 278.5 264.5 c 128,-1,27
 256 235 256 235 226 216.5 c 128,-1,28
 196 198 196 198 152 198 c 0,0,1
449 196 m 0,29,30
 410 196 410 196 380 213 c 128,-1,31
 350 230 350 230 326.5 259 c 128,-1,32
 303 288 303 288 283 323 c 0,33,34
 266 354 266 354 247.5 381.5 c 128,-1,35
 229 409 229 409 206.5 426 c 128,-1,36
 184 443 184 443 153 443 c 0,37,38
 116 443 116 443 94 418 c 128,-1,39
 72 393 72 393 72 353 c 0,40,41
 72 316 72 316 93 289.5 c 128,-1,42
 114 263 114 263 157 263 c 0,43,44
 187 263 187 263 208 276.5 c 128,-1,45
 229 290 229 290 246.5 315.5 c 128,-1,46
 264 341 264 341 283 375 c 0,47,48
 297 400 297 400 313.5 423.5 c 128,-1,49
 330 447 330 447 350 465.5 c 128,-1,50
 370 484 370 484 395 494.5 c 128,-1,51
 420 505 420 505 451 505 c 0,52,53
 493 505 493 505 525.5 485.5 c 128,-1,54
 558 466 558 466 576 431.5 c 128,-1,55
 594 397 594 397 594 353 c 0,56,57
 594 310 594 310 576 274 c 128,-1,58
 558 238 558 238 525.5 217 c 128,-1,59
 493 196 493 196 449 196 c 0,29,30
EndSplineSet
EndChar

StartChar: lozenge
Encoding: 9674 9674 235
Width: 600
Flags: W
LayerCount: 2
Fore
SplineSet
281 0 m 1,0,-1
 61 359 l 1,1,-1
 281 719 l 1,2,-1
 319 719 l 1,3,-1
 539 359 l 1,4,-1
 319 0 l 1,5,-1
 281 0 l 1,0,-1
300 105 m 1,6,-1
 452 359 l 1,7,-1
 300 613 l 1,8,-1
 149 359 l 1,9,-1
 300 105 l 1,6,-1
EndSplineSet
EndChar

